ISO-10303-21;
HEADER;
/* Generated by software containing ST-Developer
 * from STEP Tools, Inc. (www.steptools.com) 
 */
/* OPTION: using custom renumber hook */

FILE_DESCRIPTION(
/* description */ ('STEP AP242 Edition 2',
'CAx-IF Rec.Pracs.---Representation and Presentation of Product Manufa
cturing Information (PMI)---4.0---2014-10-13',
'CAx-IF Rec.Pracs.---3D Tessellated Geometry---0.4---2014-09-14','2;1',
'CAx-IF Rec.Pracs.---User Defined Attributes---1.5---2016-08-15'),
/* implementation_level */ '2;1');

FILE_NAME(
/* name */ 'Part Studio 1 - Back Holder',
/* time_stamp */ '2026-07-12T09:21:57Z',
/* author */ (''),
/* organization */ (''),
/* preprocessor_version */ 'ST-DEVELOPER v20',
/* originating_system */ 'ONSHAPE BY PTC INC, 1.217',
/* authorisation */ '  ');

FILE_SCHEMA (('AP242_MANAGED_MODEL_BASED_3D_ENGINEERING_MIM_LF { 1 0 10303 442 3 1 4 }'));
ENDSEC;

DATA;
#10=SHAPE_REPRESENTATION_RELATIONSHIP('','',#839,#11);
#11=ADVANCED_BREP_SHAPE_REPRESENTATION('',(#837),#1369);
#12=B_SPLINE_CURVE_WITH_KNOTS('',3,(#1344,#1345,#1346,#1347,#1348),
 .UNSPECIFIED.,.F.,.F.,(4,1,4),(0.,0.0029112168800829,0.0058224337601658),
 .UNSPECIFIED.);
#13=B_SPLINE_CURVE_WITH_KNOTS('',3,(#1350,#1351,#1352,#1353,#1354),
 .UNSPECIFIED.,.F.,.F.,(4,1,4),(0.,0.0029112168800829,0.0058224337601658),
 .UNSPECIFIED.);
#14=CYLINDRICAL_SURFACE('',#890,0.005);
#15=CYLINDRICAL_SURFACE('',#891,0.005);
#16=CYLINDRICAL_SURFACE('',#892,0.005);
#17=CYLINDRICAL_SURFACE('',#893,0.005);
#18=CYLINDRICAL_SURFACE('',#895,0.005);
#19=CYLINDRICAL_SURFACE('',#896,0.005);
#20=CYLINDRICAL_SURFACE('',#898,0.005);
#21=CYLINDRICAL_SURFACE('',#899,0.003);
#22=CYLINDRICAL_SURFACE('',#900,0.003);
#23=CYLINDRICAL_SURFACE('',#901,0.00175);
#24=CYLINDRICAL_SURFACE('',#902,0.00175);
#25=CYLINDRICAL_SURFACE('',#903,0.00175);
#26=CYLINDRICAL_SURFACE('',#904,0.00175);
#27=ELLIPSE('',#850,0.00424264068711928,0.003);
#28=ELLIPSE('',#856,0.00424264068711928,0.003);
#29=ELLIPSE('',#871,0.00643379782946583,0.005);
#30=ELLIPSE('',#872,0.00643379782946583,0.005);
#31=ELLIPSE('',#885,0.00707106781186547,0.005);
#32=ELLIPSE('',#889,0.00707106781186548,0.005);
#33=ELLIPSE('',#894,0.00553964272041233,0.005);
#34=ELLIPSE('',#897,0.00553964272041233,0.005);
#35=CIRCLE('',#843,0.00175);
#36=CIRCLE('',#844,0.00175);
#37=CIRCLE('',#846,0.005);
#38=CIRCLE('',#848,0.00175);
#39=CIRCLE('',#849,0.00175);
#40=CIRCLE('',#854,0.00175);
#41=CIRCLE('',#855,0.00175);
#42=CIRCLE('',#858,0.005);
#43=CIRCLE('',#860,0.00175);
#44=CIRCLE('',#861,0.00175);
#45=CIRCLE('',#875,0.005);
#46=CIRCLE('',#876,0.005);
#47=CIRCLE('',#878,0.005);
#48=CIRCLE('',#879,0.005);
#49=ORIENTED_EDGE('',*,*,#277,.F.);
#50=ORIENTED_EDGE('',*,*,#278,.F.);
#51=ORIENTED_EDGE('',*,*,#279,.T.);
#52=ORIENTED_EDGE('',*,*,#280,.T.);
#53=ORIENTED_EDGE('',*,*,#281,.F.);
#54=ORIENTED_EDGE('',*,*,#282,.F.);
#55=ORIENTED_EDGE('',*,*,#283,.T.);
#56=ORIENTED_EDGE('',*,*,#284,.F.);
#57=ORIENTED_EDGE('',*,*,#285,.F.);
#58=ORIENTED_EDGE('',*,*,#286,.T.);
#59=ORIENTED_EDGE('',*,*,#287,.T.);
#60=ORIENTED_EDGE('',*,*,#288,.F.);
#61=ORIENTED_EDGE('',*,*,#289,.F.);
#62=ORIENTED_EDGE('',*,*,#290,.F.);
#63=ORIENTED_EDGE('',*,*,#291,.T.);
#64=ORIENTED_EDGE('',*,*,#279,.F.);
#65=ORIENTED_EDGE('',*,*,#292,.T.);
#66=ORIENTED_EDGE('',*,*,#293,.F.);
#67=ORIENTED_EDGE('',*,*,#294,.T.);
#68=ORIENTED_EDGE('',*,*,#295,.F.);
#69=ORIENTED_EDGE('',*,*,#292,.F.);
#70=ORIENTED_EDGE('',*,*,#278,.T.);
#71=ORIENTED_EDGE('',*,*,#296,.F.);
#72=ORIENTED_EDGE('',*,*,#297,.F.);
#73=ORIENTED_EDGE('',*,*,#298,.F.);
#74=ORIENTED_EDGE('',*,*,#299,.T.);
#75=ORIENTED_EDGE('',*,*,#300,.T.);
#76=ORIENTED_EDGE('',*,*,#293,.T.);
#77=ORIENTED_EDGE('',*,*,#277,.T.);
#78=ORIENTED_EDGE('',*,*,#301,.T.);
#79=ORIENTED_EDGE('',*,*,#302,.T.);
#80=ORIENTED_EDGE('',*,*,#295,.T.);
#81=ORIENTED_EDGE('',*,*,#303,.T.);
#82=ORIENTED_EDGE('',*,*,#304,.T.);
#83=ORIENTED_EDGE('',*,*,#286,.F.);
#84=ORIENTED_EDGE('',*,*,#305,.F.);
#85=ORIENTED_EDGE('',*,*,#306,.F.);
#86=ORIENTED_EDGE('',*,*,#307,.T.);
#87=ORIENTED_EDGE('',*,*,#308,.T.);
#88=ORIENTED_EDGE('',*,*,#309,.F.);
#89=ORIENTED_EDGE('',*,*,#310,.T.);
#90=ORIENTED_EDGE('',*,*,#311,.T.);
#91=ORIENTED_EDGE('',*,*,#312,.F.);
#92=ORIENTED_EDGE('',*,*,#313,.F.);
#93=ORIENTED_EDGE('',*,*,#314,.F.);
#94=ORIENTED_EDGE('',*,*,#315,.T.);
#95=ORIENTED_EDGE('',*,*,#316,.T.);
#96=ORIENTED_EDGE('',*,*,#317,.T.);
#97=ORIENTED_EDGE('',*,*,#318,.T.);
#98=ORIENTED_EDGE('',*,*,#319,.T.);
#99=ORIENTED_EDGE('',*,*,#307,.F.);
#100=ORIENTED_EDGE('',*,*,#320,.T.);
#101=ORIENTED_EDGE('',*,*,#321,.F.);
#102=ORIENTED_EDGE('',*,*,#322,.T.);
#103=ORIENTED_EDGE('',*,*,#320,.F.);
#104=ORIENTED_EDGE('',*,*,#306,.T.);
#105=ORIENTED_EDGE('',*,*,#323,.F.);
#106=ORIENTED_EDGE('',*,*,#324,.F.);
#107=ORIENTED_EDGE('',*,*,#325,.F.);
#108=ORIENTED_EDGE('',*,*,#326,.T.);
#109=ORIENTED_EDGE('',*,*,#327,.F.);
#110=ORIENTED_EDGE('',*,*,#328,.T.);
#111=ORIENTED_EDGE('',*,*,#329,.F.);
#112=ORIENTED_EDGE('',*,*,#323,.T.);
#113=ORIENTED_EDGE('',*,*,#305,.T.);
#114=ORIENTED_EDGE('',*,*,#330,.T.);
#115=ORIENTED_EDGE('',*,*,#331,.T.);
#116=ORIENTED_EDGE('',*,*,#321,.T.);
#117=ORIENTED_EDGE('',*,*,#329,.T.);
#118=ORIENTED_EDGE('',*,*,#332,.T.);
#119=ORIENTED_EDGE('',*,*,#333,.T.);
#120=ORIENTED_EDGE('',*,*,#334,.T.);
#121=ORIENTED_EDGE('',*,*,#309,.T.);
#122=ORIENTED_EDGE('',*,*,#291,.F.);
#123=ORIENTED_EDGE('',*,*,#335,.T.);
#124=ORIENTED_EDGE('',*,*,#336,.F.);
#125=ORIENTED_EDGE('',*,*,#280,.F.);
#126=ORIENTED_EDGE('',*,*,#337,.T.);
#127=ORIENTED_EDGE('',*,*,#338,.T.);
#128=ORIENTED_EDGE('',*,*,#339,.F.);
#129=ORIENTED_EDGE('',*,*,#340,.F.);
#130=ORIENTED_EDGE('',*,*,#341,.F.);
#131=ORIENTED_EDGE('',*,*,#311,.F.);
#132=ORIENTED_EDGE('',*,*,#342,.T.);
#133=ORIENTED_EDGE('',*,*,#343,.T.);
#134=ORIENTED_EDGE('',*,*,#344,.F.);
#135=ORIENTED_EDGE('',*,*,#345,.T.);
#136=ORIENTED_EDGE('',*,*,#346,.T.);
#137=ORIENTED_EDGE('',*,*,#347,.F.);
#138=ORIENTED_EDGE('',*,*,#348,.F.);
#139=ORIENTED_EDGE('',*,*,#346,.F.);
#140=ORIENTED_EDGE('',*,*,#349,.T.);
#141=ORIENTED_EDGE('',*,*,#350,.T.);
#142=ORIENTED_EDGE('',*,*,#351,.T.);
#143=ORIENTED_EDGE('',*,*,#352,.T.);
#144=ORIENTED_EDGE('',*,*,#353,.F.);
#145=ORIENTED_EDGE('',*,*,#350,.F.);
#146=ORIENTED_EDGE('',*,*,#298,.T.);
#147=ORIENTED_EDGE('',*,*,#354,.T.);
#148=ORIENTED_EDGE('',*,*,#355,.T.);
#149=ORIENTED_EDGE('',*,*,#356,.F.);
#150=ORIENTED_EDGE('',*,*,#357,.T.);
#151=ORIENTED_EDGE('',*,*,#358,.T.);
#152=ORIENTED_EDGE('',*,*,#359,.T.);
#153=ORIENTED_EDGE('',*,*,#360,.T.);
#154=ORIENTED_EDGE('',*,*,#317,.F.);
#155=ORIENTED_EDGE('',*,*,#361,.T.);
#156=ORIENTED_EDGE('',*,*,#362,.T.);
#157=ORIENTED_EDGE('',*,*,#327,.T.);
#158=ORIENTED_EDGE('',*,*,#363,.F.);
#159=ORIENTED_EDGE('',*,*,#364,.F.);
#160=ORIENTED_EDGE('',*,*,#288,.T.);
#161=ORIENTED_EDGE('',*,*,#365,.T.);
#162=ORIENTED_EDGE('',*,*,#366,.T.);
#163=ORIENTED_EDGE('',*,*,#367,.F.);
#164=ORIENTED_EDGE('',*,*,#368,.T.);
#165=ORIENTED_EDGE('',*,*,#369,.T.);
#166=ORIENTED_EDGE('',*,*,#282,.T.);
#167=ORIENTED_EDGE('',*,*,#358,.F.);
#168=ORIENTED_EDGE('',*,*,#370,.T.);
#169=ORIENTED_EDGE('',*,*,#351,.F.);
#170=ORIENTED_EDGE('',*,*,#349,.F.);
#171=ORIENTED_EDGE('',*,*,#345,.F.);
#172=ORIENTED_EDGE('',*,*,#371,.T.);
#173=ORIENTED_EDGE('',*,*,#337,.F.);
#174=ORIENTED_EDGE('',*,*,#372,.T.);
#175=ORIENTED_EDGE('',*,*,#342,.F.);
#176=ORIENTED_EDGE('',*,*,#310,.F.);
#177=ORIENTED_EDGE('',*,*,#334,.F.);
#178=ORIENTED_EDGE('',*,*,#373,.T.);
#179=ORIENTED_EDGE('',*,*,#353,.T.);
#180=ORIENTED_EDGE('',*,*,#374,.T.);
#181=ORIENTED_EDGE('',*,*,#356,.T.);
#182=ORIENTED_EDGE('',*,*,#375,.T.);
#183=ORIENTED_EDGE('',*,*,#367,.T.);
#184=ORIENTED_EDGE('',*,*,#281,.T.);
#185=ORIENTED_EDGE('',*,*,#336,.T.);
#186=ORIENTED_EDGE('',*,*,#376,.F.);
#187=ORIENTED_EDGE('',*,*,#339,.T.);
#188=ORIENTED_EDGE('',*,*,#377,.F.);
#189=ORIENTED_EDGE('',*,*,#347,.T.);
#190=ORIENTED_EDGE('',*,*,#348,.T.);
#191=ORIENTED_EDGE('',*,*,#335,.F.);
#192=ORIENTED_EDGE('',*,*,#290,.T.);
#193=ORIENTED_EDGE('',*,*,#378,.T.);
#194=ORIENTED_EDGE('',*,*,#379,.T.);
#195=ORIENTED_EDGE('',*,*,#343,.F.);
#196=ORIENTED_EDGE('',*,*,#372,.F.);
#197=ORIENTED_EDGE('',*,*,#340,.T.);
#198=ORIENTED_EDGE('',*,*,#376,.T.);
#199=ORIENTED_EDGE('',*,*,#377,.T.);
#200=ORIENTED_EDGE('',*,*,#338,.F.);
#201=ORIENTED_EDGE('',*,*,#371,.F.);
#202=ORIENTED_EDGE('',*,*,#344,.T.);
#203=ORIENTED_EDGE('',*,*,#289,.T.);
#204=ORIENTED_EDGE('',*,*,#364,.T.);
#205=ORIENTED_EDGE('',*,*,#380,.F.);
#206=ORIENTED_EDGE('',*,*,#378,.F.);
#207=ORIENTED_EDGE('',*,*,#312,.T.);
#208=ORIENTED_EDGE('',*,*,#341,.T.);
#209=ORIENTED_EDGE('',*,*,#379,.F.);
#210=ORIENTED_EDGE('',*,*,#380,.T.);
#211=ORIENTED_EDGE('',*,*,#363,.T.);
#212=ORIENTED_EDGE('',*,*,#326,.F.);
#213=ORIENTED_EDGE('',*,*,#319,.F.);
#214=ORIENTED_EDGE('',*,*,#381,.T.);
#215=ORIENTED_EDGE('',*,*,#382,.T.);
#216=ORIENTED_EDGE('',*,*,#332,.F.);
#217=ORIENTED_EDGE('',*,*,#308,.F.);
#218=ORIENTED_EDGE('',*,*,#304,.F.);
#219=ORIENTED_EDGE('',*,*,#383,.T.);
#220=ORIENTED_EDGE('',*,*,#365,.F.);
#221=ORIENTED_EDGE('',*,*,#287,.F.);
#222=ORIENTED_EDGE('',*,*,#362,.F.);
#223=ORIENTED_EDGE('',*,*,#384,.T.);
#224=ORIENTED_EDGE('',*,*,#330,.F.);
#225=ORIENTED_EDGE('',*,*,#328,.F.);
#226=ORIENTED_EDGE('',*,*,#385,.T.);
#227=ORIENTED_EDGE('',*,*,#386,.T.);
#228=ORIENTED_EDGE('',*,*,#301,.F.);
#229=ORIENTED_EDGE('',*,*,#283,.F.);
#230=ORIENTED_EDGE('',*,*,#369,.F.);
#231=ORIENTED_EDGE('',*,*,#385,.F.);
#232=ORIENTED_EDGE('',*,*,#368,.F.);
#233=ORIENTED_EDGE('',*,*,#375,.F.);
#234=ORIENTED_EDGE('',*,*,#355,.F.);
#235=ORIENTED_EDGE('',*,*,#387,.T.);
#236=ORIENTED_EDGE('',*,*,#373,.F.);
#237=ORIENTED_EDGE('',*,*,#333,.F.);
#238=ORIENTED_EDGE('',*,*,#382,.F.);
#239=ORIENTED_EDGE('',*,*,#388,.T.);
#240=ORIENTED_EDGE('',*,*,#359,.F.);
#241=ORIENTED_EDGE('',*,*,#370,.F.);
#242=ORIENTED_EDGE('',*,*,#357,.F.);
#243=ORIENTED_EDGE('',*,*,#374,.F.);
#244=ORIENTED_EDGE('',*,*,#352,.F.);
#245=ORIENTED_EDGE('',*,*,#294,.F.);
#246=ORIENTED_EDGE('',*,*,#300,.F.);
#247=ORIENTED_EDGE('',*,*,#389,.F.);
#248=ORIENTED_EDGE('',*,*,#303,.F.);
#249=ORIENTED_EDGE('',*,*,#366,.F.);
#250=ORIENTED_EDGE('',*,*,#383,.F.);
#251=ORIENTED_EDGE('',*,*,#389,.T.);
#252=ORIENTED_EDGE('',*,*,#299,.F.);
#253=ORIENTED_EDGE('',*,*,#322,.F.);
#254=ORIENTED_EDGE('',*,*,#331,.F.);
#255=ORIENTED_EDGE('',*,*,#390,.F.);
#256=ORIENTED_EDGE('',*,*,#315,.F.);
#257=ORIENTED_EDGE('',*,*,#390,.T.);
#258=ORIENTED_EDGE('',*,*,#384,.F.);
#259=ORIENTED_EDGE('',*,*,#361,.F.);
#260=ORIENTED_EDGE('',*,*,#316,.F.);
#261=ORIENTED_EDGE('',*,*,#302,.F.);
#262=ORIENTED_EDGE('',*,*,#386,.F.);
#263=ORIENTED_EDGE('',*,*,#387,.F.);
#264=ORIENTED_EDGE('',*,*,#354,.F.);
#265=ORIENTED_EDGE('',*,*,#388,.F.);
#266=ORIENTED_EDGE('',*,*,#381,.F.);
#267=ORIENTED_EDGE('',*,*,#318,.F.);
#268=ORIENTED_EDGE('',*,*,#360,.F.);
#269=ORIENTED_EDGE('',*,*,#314,.T.);
#270=ORIENTED_EDGE('',*,*,#325,.T.);
#271=ORIENTED_EDGE('',*,*,#313,.T.);
#272=ORIENTED_EDGE('',*,*,#324,.T.);
#273=ORIENTED_EDGE('',*,*,#285,.T.);
#274=ORIENTED_EDGE('',*,*,#297,.T.);
#275=ORIENTED_EDGE('',*,*,#284,.T.);
#276=ORIENTED_EDGE('',*,*,#296,.T.);
#277=EDGE_CURVE('',#391,#392,#469,.T.);
#278=EDGE_CURVE('',#393,#391,#470,.T.);
#279=EDGE_CURVE('',#393,#394,#471,.T.);
#280=EDGE_CURVE('',#394,#395,#472,.T.);
#281=EDGE_CURVE('',#396,#395,#473,.T.);
#282=EDGE_CURVE('',#397,#396,#474,.T.);
#283=EDGE_CURVE('',#397,#392,#475,.F.);
#284=EDGE_CURVE('',#398,#398,#35,.T.);
#285=EDGE_CURVE('',#399,#399,#36,.T.);
#286=EDGE_CURVE('',#400,#401,#476,.T.);
#287=EDGE_CURVE('',#401,#402,#477,.T.);
#288=EDGE_CURVE('',#403,#402,#478,.T.);
#289=EDGE_CURVE('',#404,#403,#479,.T.);
#290=EDGE_CURVE('',#405,#404,#480,.T.);
#291=EDGE_CURVE('',#405,#394,#481,.T.);
#292=EDGE_CURVE('',#393,#400,#482,.T.);
#293=EDGE_CURVE('',#406,#391,#483,.T.);
#294=EDGE_CURVE('',#406,#407,#37,.T.);
#295=EDGE_CURVE('',#400,#407,#484,.T.);
#296=EDGE_CURVE('',#408,#408,#38,.T.);
#297=EDGE_CURVE('',#409,#409,#39,.T.);
#298=EDGE_CURVE('',#410,#411,#485,.T.);
#299=EDGE_CURVE('',#410,#412,#486,.T.);
#300=EDGE_CURVE('',#412,#406,#487,.F.);
#301=EDGE_CURVE('',#392,#413,#488,.T.);
#302=EDGE_CURVE('',#413,#411,#27,.F.);
#303=EDGE_CURVE('',#407,#414,#489,.T.);
#304=EDGE_CURVE('',#414,#401,#490,.T.);
#305=EDGE_CURVE('',#415,#416,#491,.T.);
#306=EDGE_CURVE('',#417,#415,#492,.T.);
#307=EDGE_CURVE('',#417,#418,#493,.T.);
#308=EDGE_CURVE('',#418,#419,#494,.F.);
#309=EDGE_CURVE('',#420,#419,#495,.T.);
#310=EDGE_CURVE('',#420,#421,#496,.T.);
#311=EDGE_CURVE('',#421,#422,#497,.T.);
#312=EDGE_CURVE('',#416,#422,#498,.T.);
#313=EDGE_CURVE('',#423,#423,#40,.T.);
#314=EDGE_CURVE('',#424,#424,#41,.T.);
#315=EDGE_CURVE('',#425,#426,#499,.T.);
#316=EDGE_CURVE('',#426,#427,#500,.T.);
#317=EDGE_CURVE('',#427,#428,#501,.T.);
#318=EDGE_CURVE('',#428,#429,#28,.F.);
#319=EDGE_CURVE('',#429,#418,#502,.T.);
#320=EDGE_CURVE('',#417,#425,#503,.T.);
#321=EDGE_CURVE('',#430,#431,#504,.T.);
#322=EDGE_CURVE('',#430,#425,#42,.T.);
#323=EDGE_CURVE('',#431,#415,#505,.T.);
#324=EDGE_CURVE('',#432,#432,#43,.T.);
#325=EDGE_CURVE('',#433,#433,#44,.T.);
#326=EDGE_CURVE('',#416,#434,#506,.T.);
#327=EDGE_CURVE('',#435,#434,#507,.T.);
#328=EDGE_CURVE('',#435,#436,#508,.T.);
#329=EDGE_CURVE('',#431,#436,#509,.T.);
#330=EDGE_CURVE('',#436,#437,#510,.T.);
#331=EDGE_CURVE('',#437,#430,#511,.F.);
#332=EDGE_CURVE('',#419,#438,#512,.T.);
#333=EDGE_CURVE('',#438,#439,#513,.F.);
#334=EDGE_CURVE('',#439,#420,#514,.T.);
#335=EDGE_CURVE('',#405,#440,#515,.T.);
#336=EDGE_CURVE('',#395,#440,#516,.T.);
#337=EDGE_CURVE('',#441,#442,#517,.T.);
#338=EDGE_CURVE('',#442,#443,#518,.T.);
#339=EDGE_CURVE('',#444,#443,#519,.T.);
#340=EDGE_CURVE('',#441,#444,#520,.T.);
#341=EDGE_CURVE('',#422,#445,#521,.T.);
#342=EDGE_CURVE('',#421,#446,#522,.T.);
#343=EDGE_CURVE('',#446,#445,#523,.T.);
#344=EDGE_CURVE('',#447,#448,#524,.T.);
#345=EDGE_CURVE('',#447,#449,#525,.T.);
#346=EDGE_CURVE('',#449,#450,#526,.T.);
#347=EDGE_CURVE('',#448,#450,#527,.T.);
#348=EDGE_CURVE('',#450,#451,#528,.T.);
#349=EDGE_CURVE('',#449,#452,#529,.T.);
#350=EDGE_CURVE('',#452,#451,#530,.T.);
#351=EDGE_CURVE('',#452,#453,#531,.T.);
#352=EDGE_CURVE('',#453,#454,#532,.T.);
#353=EDGE_CURVE('',#451,#454,#533,.T.);
#354=EDGE_CURVE('',#411,#455,#534,.F.);
#355=EDGE_CURVE('',#455,#456,#535,.T.);
#356=EDGE_CURVE('',#457,#456,#536,.T.);
#357=EDGE_CURVE('',#457,#458,#537,.F.);
#358=EDGE_CURVE('',#458,#459,#538,.T.);
#359=EDGE_CURVE('',#459,#460,#539,.T.);
#360=EDGE_CURVE('',#460,#428,#540,.F.);
#361=EDGE_CURVE('',#427,#461,#29,.F.);
#362=EDGE_CURVE('',#461,#435,#541,.T.);
#363=EDGE_CURVE('',#462,#434,#542,.T.);
#364=EDGE_CURVE('',#403,#462,#543,.T.);
#365=EDGE_CURVE('',#402,#463,#544,.T.);
#366=EDGE_CURVE('',#463,#410,#30,.F.);
#367=EDGE_CURVE('',#464,#396,#545,.T.);
#368=EDGE_CURVE('',#464,#465,#546,.F.);
#369=EDGE_CURVE('',#465,#397,#547,.T.);
#370=EDGE_CURVE('',#458,#453,#45,.F.);
#371=EDGE_CURVE('',#447,#442,#548,.F.);
#372=EDGE_CURVE('',#441,#446,#549,.T.);
#373=EDGE_CURVE('',#439,#459,#46,.F.);
#374=EDGE_CURVE('',#454,#457,#47,.T.);
#375=EDGE_CURVE('',#456,#464,#48,.T.);
#376=EDGE_CURVE('',#444,#440,#550,.T.);
#377=EDGE_CURVE('',#448,#443,#551,.F.);
#378=EDGE_CURVE('',#404,#466,#552,.T.);
#379=EDGE_CURVE('',#466,#445,#553,.T.);
#380=EDGE_CURVE('',#466,#462,#554,.T.);
#381=EDGE_CURVE('',#429,#467,#555,.F.);
#382=EDGE_CURVE('',#467,#438,#31,.F.);
#383=EDGE_CURVE('',#414,#463,#556,.F.);
#384=EDGE_CURVE('',#461,#437,#557,.F.);
#385=EDGE_CURVE('',#465,#468,#32,.F.);
#386=EDGE_CURVE('',#468,#413,#558,.F.);
#387=EDGE_CURVE('',#455,#468,#12,.F.);
#388=EDGE_CURVE('',#467,#460,#13,.T.);
#389=EDGE_CURVE('',#414,#412,#33,.T.);
#390=EDGE_CURVE('',#426,#437,#34,.T.);
#391=VERTEX_POINT('',#1128);
#392=VERTEX_POINT('',#1129);
#393=VERTEX_POINT('',#1131);
#394=VERTEX_POINT('',#1133);
#395=VERTEX_POINT('',#1135);
#396=VERTEX_POINT('',#1137);
#397=VERTEX_POINT('',#1139);
#398=VERTEX_POINT('',#1143);
#399=VERTEX_POINT('',#1145);
#400=VERTEX_POINT('',#1147);
#401=VERTEX_POINT('',#1148);
#402=VERTEX_POINT('',#1150);
#403=VERTEX_POINT('',#1152);
#404=VERTEX_POINT('',#1154);
#405=VERTEX_POINT('',#1156);
#406=VERTEX_POINT('',#1161);
#407=VERTEX_POINT('',#1163);
#408=VERTEX_POINT('',#1167);
#409=VERTEX_POINT('',#1169);
#410=VERTEX_POINT('',#1171);
#411=VERTEX_POINT('',#1172);
#412=VERTEX_POINT('',#1174);
#413=VERTEX_POINT('',#1177);
#414=VERTEX_POINT('',#1181);
#415=VERTEX_POINT('',#1185);
#416=VERTEX_POINT('',#1186);
#417=VERTEX_POINT('',#1188);
#418=VERTEX_POINT('',#1190);
#419=VERTEX_POINT('',#1192);
#420=VERTEX_POINT('',#1194);
#421=VERTEX_POINT('',#1196);
#422=VERTEX_POINT('',#1198);
#423=VERTEX_POINT('',#1202);
#424=VERTEX_POINT('',#1204);
#425=VERTEX_POINT('',#1206);
#426=VERTEX_POINT('',#1207);
#427=VERTEX_POINT('',#1209);
#428=VERTEX_POINT('',#1211);
#429=VERTEX_POINT('',#1213);
#430=VERTEX_POINT('',#1218);
#431=VERTEX_POINT('',#1219);
#432=VERTEX_POINT('',#1224);
#433=VERTEX_POINT('',#1226);
#434=VERTEX_POINT('',#1228);
#435=VERTEX_POINT('',#1230);
#436=VERTEX_POINT('',#1232);
#437=VERTEX_POINT('',#1236);
#438=VERTEX_POINT('',#1240);
#439=VERTEX_POINT('',#1242);
#440=VERTEX_POINT('',#1246);
#441=VERTEX_POINT('',#1250);
#442=VERTEX_POINT('',#1251);
#443=VERTEX_POINT('',#1253);
#444=VERTEX_POINT('',#1255);
#445=VERTEX_POINT('',#1259);
#446=VERTEX_POINT('',#1261);
#447=VERTEX_POINT('',#1265);
#448=VERTEX_POINT('',#1266);
#449=VERTEX_POINT('',#1268);
#450=VERTEX_POINT('',#1270);
#451=VERTEX_POINT('',#1274);
#452=VERTEX_POINT('',#1276);
#453=VERTEX_POINT('',#1280);
#454=VERTEX_POINT('',#1282);
#455=VERTEX_POINT('',#1286);
#456=VERTEX_POINT('',#1288);
#457=VERTEX_POINT('',#1290);
#458=VERTEX_POINT('',#1292);
#459=VERTEX_POINT('',#1294);
#460=VERTEX_POINT('',#1296);
#461=VERTEX_POINT('',#1299);
#462=VERTEX_POINT('',#1302);
#463=VERTEX_POINT('',#1305);
#464=VERTEX_POINT('',#1309);
#465=VERTEX_POINT('',#1311);
#466=VERTEX_POINT('',#1325);
#467=VERTEX_POINT('',#1333);
#468=VERTEX_POINT('',#1341);
#469=LINE('',#1127,#559);
#470=LINE('',#1130,#560);
#471=LINE('',#1132,#561);
#472=LINE('',#1134,#562);
#473=LINE('',#1136,#563);
#474=LINE('',#1138,#564);
#475=LINE('',#1140,#565);
#476=LINE('',#1146,#566);
#477=LINE('',#1149,#567);
#478=LINE('',#1151,#568);
#479=LINE('',#1153,#569);
#480=LINE('',#1155,#570);
#481=LINE('',#1157,#571);
#482=LINE('',#1158,#572);
#483=LINE('',#1160,#573);
#484=LINE('',#1164,#574);
#485=LINE('',#1170,#575);
#486=LINE('',#1173,#576);
#487=LINE('',#1175,#577);
#488=LINE('',#1176,#578);
#489=LINE('',#1180,#579);
#490=LINE('',#1182,#580);
#491=LINE('',#1184,#581);
#492=LINE('',#1187,#582);
#493=LINE('',#1189,#583);
#494=LINE('',#1191,#584);
#495=LINE('',#1193,#585);
#496=LINE('',#1195,#586);
#497=LINE('',#1197,#587);
#498=LINE('',#1199,#588);
#499=LINE('',#1205,#589);
#500=LINE('',#1208,#590);
#501=LINE('',#1210,#591);
#502=LINE('',#1214,#592);
#503=LINE('',#1215,#593);
#504=LINE('',#1217,#594);
#505=LINE('',#1221,#595);
#506=LINE('',#1227,#596);
#507=LINE('',#1229,#597);
#508=LINE('',#1231,#598);
#509=LINE('',#1233,#599);
#510=LINE('',#1235,#600);
#511=LINE('',#1237,#601);
#512=LINE('',#1239,#602);
#513=LINE('',#1241,#603);
#514=LINE('',#1243,#604);
#515=LINE('',#1245,#605);
#516=LINE('',#1247,#606);
#517=LINE('',#1249,#607);
#518=LINE('',#1252,#608);
#519=LINE('',#1254,#609);
#520=LINE('',#1256,#610);
#521=LINE('',#1258,#611);
#522=LINE('',#1260,#612);
#523=LINE('',#1262,#613);
#524=LINE('',#1264,#614);
#525=LINE('',#1267,#615);
#526=LINE('',#1269,#616);
#527=LINE('',#1271,#617);
#528=LINE('',#1273,#618);
#529=LINE('',#1275,#619);
#530=LINE('',#1277,#620);
#531=LINE('',#1279,#621);
#532=LINE('',#1281,#622);
#533=LINE('',#1283,#623);
#534=LINE('',#1285,#624);
#535=LINE('',#1287,#625);
#536=LINE('',#1289,#626);
#537=LINE('',#1291,#627);
#538=LINE('',#1293,#628);
#539=LINE('',#1295,#629);
#540=LINE('',#1297,#630);
#541=LINE('',#1300,#631);
#542=LINE('',#1301,#632);
#543=LINE('',#1303,#633);
#544=LINE('',#1304,#634);
#545=LINE('',#1308,#635);
#546=LINE('',#1310,#636);
#547=LINE('',#1312,#637);
#548=LINE('',#1315,#638);
#549=LINE('',#1316,#639);
#550=LINE('',#1321,#640);
#551=LINE('',#1322,#641);
#552=LINE('',#1324,#642);
#553=LINE('',#1326,#643);
#554=LINE('',#1329,#644);
#555=LINE('',#1332,#645);
#556=LINE('',#1336,#646);
#557=LINE('',#1338,#647);
#558=LINE('',#1342,#648);
#559=VECTOR('',#909,1.);
#560=VECTOR('',#910,1.);
#561=VECTOR('',#911,1.);
#562=VECTOR('',#912,1.);
#563=VECTOR('',#913,1.);
#564=VECTOR('',#914,1.);
#565=VECTOR('',#915,1.);
#566=VECTOR('',#922,1.);
#567=VECTOR('',#923,1.);
#568=VECTOR('',#924,1.);
#569=VECTOR('',#925,1.);
#570=VECTOR('',#926,1.);
#571=VECTOR('',#927,1.);
#572=VECTOR('',#928,1.);
#573=VECTOR('',#931,1.);
#574=VECTOR('',#934,1.);
#575=VECTOR('',#941,1.);
#576=VECTOR('',#942,1.);
#577=VECTOR('',#943,1.);
#578=VECTOR('',#944,1.);
#579=VECTOR('',#949,1.);
#580=VECTOR('',#950,1.);
#581=VECTOR('',#953,1.);
#582=VECTOR('',#954,1.);
#583=VECTOR('',#955,1.);
#584=VECTOR('',#956,1.);
#585=VECTOR('',#957,1.);
#586=VECTOR('',#958,1.);
#587=VECTOR('',#959,1.);
#588=VECTOR('',#960,1.);
#589=VECTOR('',#967,1.);
#590=VECTOR('',#968,1.);
#591=VECTOR('',#969,1.);
#592=VECTOR('',#972,1.);
#593=VECTOR('',#973,1.);
#594=VECTOR('',#976,1.);
#595=VECTOR('',#979,1.);
#596=VECTOR('',#986,1.);
#597=VECTOR('',#987,1.);
#598=VECTOR('',#988,1.);
#599=VECTOR('',#989,1.);
#600=VECTOR('',#992,1.);
#601=VECTOR('',#993,1.);
#602=VECTOR('',#996,1.);
#603=VECTOR('',#997,1.);
#604=VECTOR('',#998,1.);
#605=VECTOR('',#1001,1.);
#606=VECTOR('',#1002,1.);
#607=VECTOR('',#1005,1.);
#608=VECTOR('',#1006,1.);
#609=VECTOR('',#1007,1.);
#610=VECTOR('',#1008,1.);
#611=VECTOR('',#1011,1.);
#612=VECTOR('',#1012,1.);
#613=VECTOR('',#1013,1.);
#614=VECTOR('',#1016,1.);
#615=VECTOR('',#1017,1.);
#616=VECTOR('',#1018,1.);
#617=VECTOR('',#1019,1.);
#618=VECTOR('',#1022,1.);
#619=VECTOR('',#1023,1.);
#620=VECTOR('',#1024,1.);
#621=VECTOR('',#1027,1.);
#622=VECTOR('',#1028,1.);
#623=VECTOR('',#1029,1.);
#624=VECTOR('',#1032,1.);
#625=VECTOR('',#1033,1.);
#626=VECTOR('',#1034,1.);
#627=VECTOR('',#1035,1.);
#628=VECTOR('',#1036,1.);
#629=VECTOR('',#1037,1.);
#630=VECTOR('',#1038,1.);
#631=VECTOR('',#1041,1.);
#632=VECTOR('',#1042,1.);
#633=VECTOR('',#1043,1.);
#634=VECTOR('',#1044,1.);
#635=VECTOR('',#1049,1.);
#636=VECTOR('',#1050,1.);
#637=VECTOR('',#1051,1.);
#638=VECTOR('',#1056,1.);
#639=VECTOR('',#1057,1.);
#640=VECTOR('',#1066,1.);
#641=VECTOR('',#1067,1.);
#642=VECTOR('',#1070,1.);
#643=VECTOR('',#1071,1.);
#644=VECTOR('',#1076,1.);
#645=VECTOR('',#1081,1.);
#646=VECTOR('',#1086,1.);
#647=VECTOR('',#1089,1.);
#648=VECTOR('',#1094,1.);
#649=EDGE_LOOP('',(#49,#50,#51,#52,#53,#54,#55));
#650=EDGE_LOOP('',(#56));
#651=EDGE_LOOP('',(#57));
#652=EDGE_LOOP('',(#58,#59,#60,#61,#62,#63,#64,#65));
#653=EDGE_LOOP('',(#66,#67,#68,#69,#70));
#654=EDGE_LOOP('',(#71));
#655=EDGE_LOOP('',(#72));
#656=EDGE_LOOP('',(#73,#74,#75,#76,#77,#78,#79));
#657=EDGE_LOOP('',(#80,#81,#82,#83));
#658=EDGE_LOOP('',(#84,#85,#86,#87,#88,#89,#90,#91));
#659=EDGE_LOOP('',(#92));
#660=EDGE_LOOP('',(#93));
#661=EDGE_LOOP('',(#94,#95,#96,#97,#98,#99,#100));
#662=EDGE_LOOP('',(#101,#102,#103,#104,#105));
#663=EDGE_LOOP('',(#106));
#664=EDGE_LOOP('',(#107));
#665=EDGE_LOOP('',(#108,#109,#110,#111,#112,#113));
#666=EDGE_LOOP('',(#114,#115,#116,#117));
#667=EDGE_LOOP('',(#118,#119,#120,#121));
#668=EDGE_LOOP('',(#122,#123,#124,#125));
#669=EDGE_LOOP('',(#126,#127,#128,#129));
#670=EDGE_LOOP('',(#130,#131,#132,#133));
#671=EDGE_LOOP('',(#134,#135,#136,#137));
#672=EDGE_LOOP('',(#138,#139,#140,#141));
#673=EDGE_LOOP('',(#142,#143,#144,#145));
#674=EDGE_LOOP('',(#146,#147,#148,#149,#150,#151,#152,#153,#154,#155,#156,
#157,#158,#159,#160,#161,#162));
#675=EDGE_LOOP('',(#163,#164,#165,#166));
#676=EDGE_LOOP('',(#167,#168,#169,#170,#171,#172,#173,#174,#175,#176,#177,
#178));
#677=EDGE_LOOP('',(#179,#180,#181,#182,#183,#184,#185,#186,#187,#188,#189,
#190));
#678=EDGE_LOOP('',(#191,#192,#193,#194,#195,#196,#197,#198));
#679=EDGE_LOOP('',(#199,#200,#201,#202));
#680=EDGE_LOOP('',(#203,#204,#205,#206));
#681=EDGE_LOOP('',(#207,#208,#209,#210,#211,#212));
#682=EDGE_LOOP('',(#213,#214,#215,#216,#217));
#683=EDGE_LOOP('',(#218,#219,#220,#221));
#684=EDGE_LOOP('',(#222,#223,#224,#225));
#685=EDGE_LOOP('',(#226,#227,#228,#229,#230));
#686=EDGE_LOOP('',(#231,#232,#233,#234,#235));
#687=EDGE_LOOP('',(#236,#237,#238,#239,#240));
#688=EDGE_LOOP('',(#241,#242,#243,#244));
#689=EDGE_LOOP('',(#245,#246,#247,#248));
#690=EDGE_LOOP('',(#249,#250,#251,#252));
#691=EDGE_LOOP('',(#253,#254,#255,#256));
#692=EDGE_LOOP('',(#257,#258,#259,#260));
#693=EDGE_LOOP('',(#261,#262,#263,#264));
#694=EDGE_LOOP('',(#265,#266,#267,#268));
#695=EDGE_LOOP('',(#269));
#696=EDGE_LOOP('',(#270));
#697=EDGE_LOOP('',(#271));
#698=EDGE_LOOP('',(#272));
#699=EDGE_LOOP('',(#273));
#700=EDGE_LOOP('',(#274));
#701=EDGE_LOOP('',(#275));
#702=EDGE_LOOP('',(#276));
#703=FACE_BOUND('',#649,.T.);
#704=FACE_BOUND('',#650,.T.);
#705=FACE_BOUND('',#651,.T.);
#706=FACE_BOUND('',#652,.T.);
#707=FACE_BOUND('',#653,.T.);
#708=FACE_BOUND('',#654,.T.);
#709=FACE_BOUND('',#655,.T.);
#710=FACE_BOUND('',#656,.T.);
#711=FACE_BOUND('',#657,.T.);
#712=FACE_BOUND('',#658,.T.);
#713=FACE_BOUND('',#659,.T.);
#714=FACE_BOUND('',#660,.T.);
#715=FACE_BOUND('',#661,.T.);
#716=FACE_BOUND('',#662,.T.);
#717=FACE_BOUND('',#663,.T.);
#718=FACE_BOUND('',#664,.T.);
#719=FACE_BOUND('',#665,.T.);
#720=FACE_BOUND('',#666,.T.);
#721=FACE_BOUND('',#667,.T.);
#722=FACE_BOUND('',#668,.T.);
#723=FACE_BOUND('',#669,.T.);
#724=FACE_BOUND('',#670,.T.);
#725=FACE_BOUND('',#671,.T.);
#726=FACE_BOUND('',#672,.T.);
#727=FACE_BOUND('',#673,.T.);
#728=FACE_BOUND('',#674,.T.);
#729=FACE_BOUND('',#675,.T.);
#730=FACE_BOUND('',#676,.T.);
#731=FACE_BOUND('',#677,.T.);
#732=FACE_BOUND('',#678,.T.);
#733=FACE_BOUND('',#679,.T.);
#734=FACE_BOUND('',#680,.T.);
#735=FACE_BOUND('',#681,.T.);
#736=FACE_BOUND('',#682,.T.);
#737=FACE_BOUND('',#683,.T.);
#738=FACE_BOUND('',#684,.T.);
#739=FACE_BOUND('',#685,.T.);
#740=FACE_BOUND('',#686,.T.);
#741=FACE_BOUND('',#687,.T.);
#742=FACE_BOUND('',#688,.T.);
#743=FACE_BOUND('',#689,.T.);
#744=FACE_BOUND('',#690,.T.);
#745=FACE_BOUND('',#691,.T.);
#746=FACE_BOUND('',#692,.T.);
#747=FACE_BOUND('',#693,.T.);
#748=FACE_BOUND('',#694,.T.);
#749=FACE_BOUND('',#695,.T.);
#750=FACE_BOUND('',#696,.T.);
#751=FACE_BOUND('',#697,.T.);
#752=FACE_BOUND('',#698,.T.);
#753=FACE_BOUND('',#699,.T.);
#754=FACE_BOUND('',#700,.T.);
#755=FACE_BOUND('',#701,.T.);
#756=FACE_BOUND('',#702,.T.);
#757=PLANE('',#841);
#758=PLANE('',#842);
#759=PLANE('',#845);
#760=PLANE('',#847);
#761=PLANE('',#851);
#762=PLANE('',#852);
#763=PLANE('',#853);
#764=PLANE('',#857);
#765=PLANE('',#859);
#766=PLANE('',#862);
#767=PLANE('',#863);
#768=PLANE('',#864);
#769=PLANE('',#865);
#770=PLANE('',#866);
#771=PLANE('',#867);
#772=PLANE('',#868);
#773=PLANE('',#869);
#774=PLANE('',#870);
#775=PLANE('',#873);
#776=PLANE('',#874);
#777=PLANE('',#877);
#778=PLANE('',#880);
#779=PLANE('',#881);
#780=PLANE('',#882);
#781=PLANE('',#883);
#782=PLANE('',#884);
#783=PLANE('',#886);
#784=PLANE('',#887);
#785=PLANE('',#888);
#786=ADVANCED_FACE('',(#703),#757,.F.);
#787=ADVANCED_FACE('',(#704,#705,#706),#758,.T.);
#788=ADVANCED_FACE('',(#707),#759,.T.);
#789=ADVANCED_FACE('',(#708,#709,#710),#760,.T.);
#790=ADVANCED_FACE('',(#711),#761,.T.);
#791=ADVANCED_FACE('',(#712),#762,.F.);
#792=ADVANCED_FACE('',(#713,#714,#715),#763,.T.);
#793=ADVANCED_FACE('',(#716),#764,.T.);
#794=ADVANCED_FACE('',(#717,#718,#719),#765,.T.);
#795=ADVANCED_FACE('',(#720),#766,.T.);
#796=ADVANCED_FACE('',(#721),#767,.T.);
#797=ADVANCED_FACE('',(#722),#768,.T.);
#798=ADVANCED_FACE('',(#723),#769,.T.);
#799=ADVANCED_FACE('',(#724),#770,.T.);
#800=ADVANCED_FACE('',(#725),#771,.T.);
#801=ADVANCED_FACE('',(#726),#772,.T.);
#802=ADVANCED_FACE('',(#727),#773,.T.);
#803=ADVANCED_FACE('',(#728),#774,.T.);
#804=ADVANCED_FACE('',(#729),#775,.T.);
#805=ADVANCED_FACE('',(#730),#776,.F.);
#806=ADVANCED_FACE('',(#731),#777,.T.);
#807=ADVANCED_FACE('',(#732),#778,.F.);
#808=ADVANCED_FACE('',(#733),#779,.F.);
#809=ADVANCED_FACE('',(#734),#780,.F.);
#810=ADVANCED_FACE('',(#735),#781,.F.);
#811=ADVANCED_FACE('',(#736),#782,.T.);
#812=ADVANCED_FACE('',(#737),#783,.F.);
#813=ADVANCED_FACE('',(#738),#784,.F.);
#814=ADVANCED_FACE('',(#739),#785,.T.);
#815=ADVANCED_FACE('',(#740),#14,.T.);
#816=ADVANCED_FACE('',(#741),#15,.T.);
#817=ADVANCED_FACE('',(#742),#16,.T.);
#818=ADVANCED_FACE('',(#743),#17,.T.);
#819=ADVANCED_FACE('',(#744),#18,.T.);
#820=ADVANCED_FACE('',(#745),#19,.T.);
#821=ADVANCED_FACE('',(#746),#20,.T.);
#822=ADVANCED_FACE('',(#747),#21,.T.);
#823=ADVANCED_FACE('',(#748),#22,.T.);
#824=ADVANCED_FACE('',(#749,#750),#23,.F.);
#825=ADVANCED_FACE('',(#751,#752),#24,.F.);
#826=ADVANCED_FACE('',(#753,#754),#25,.F.);
#827=ADVANCED_FACE('',(#755,#756),#26,.F.);
#828=CLOSED_SHELL('',(#786,#787,#788,#789,#790,#791,#792,#793,#794,#795,
#796,#797,#798,#799,#800,#801,#802,#803,#804,#805,#806,#807,#808,#809,#810,
#811,#812,#813,#814,#815,#816,#817,#818,#819,#820,#821,#822,#823,#824,#825,
#826,#827));
#829=STYLED_ITEM('',(#830),#837);
#830=PRESENTATION_STYLE_ASSIGNMENT((#831));
#831=SURFACE_STYLE_USAGE(.BOTH.,#832);
#832=SURFACE_SIDE_STYLE('',(#833));
#833=SURFACE_STYLE_FILL_AREA(#834);
#834=FILL_AREA_STYLE('',(#835));
#835=FILL_AREA_STYLE_COLOUR('',#836);
#836=COLOUR_RGB('',0.972549019607843,0.529411764705882,0.00392156862745098);
#837=MANIFOLD_SOLID_BREP('Back Holder',#828);
#838=SHAPE_DEFINITION_REPRESENTATION(#1374,#839);
#839=SHAPE_REPRESENTATION('Back Holder',(#840),#1369);
#840=AXIS2_PLACEMENT_3D('',#1125,#905,#906);
#841=AXIS2_PLACEMENT_3D('',#1126,#907,#908);
#842=AXIS2_PLACEMENT_3D('',#1141,#916,#917);
#843=AXIS2_PLACEMENT_3D('',#1142,#918,#919);
#844=AXIS2_PLACEMENT_3D('',#1144,#920,#921);
#845=AXIS2_PLACEMENT_3D('',#1159,#929,#930);
#846=AXIS2_PLACEMENT_3D('',#1162,#932,#933);
#847=AXIS2_PLACEMENT_3D('',#1165,#935,#936);
#848=AXIS2_PLACEMENT_3D('',#1166,#937,#938);
#849=AXIS2_PLACEMENT_3D('',#1168,#939,#940);
#850=AXIS2_PLACEMENT_3D('',#1178,#945,#946);
#851=AXIS2_PLACEMENT_3D('',#1179,#947,#948);
#852=AXIS2_PLACEMENT_3D('',#1183,#951,#952);
#853=AXIS2_PLACEMENT_3D('',#1200,#961,#962);
#854=AXIS2_PLACEMENT_3D('',#1201,#963,#964);
#855=AXIS2_PLACEMENT_3D('',#1203,#965,#966);
#856=AXIS2_PLACEMENT_3D('',#1212,#970,#971);
#857=AXIS2_PLACEMENT_3D('',#1216,#974,#975);
#858=AXIS2_PLACEMENT_3D('',#1220,#977,#978);
#859=AXIS2_PLACEMENT_3D('',#1222,#980,#981);
#860=AXIS2_PLACEMENT_3D('',#1223,#982,#983);
#861=AXIS2_PLACEMENT_3D('',#1225,#984,#985);
#862=AXIS2_PLACEMENT_3D('',#1234,#990,#991);
#863=AXIS2_PLACEMENT_3D('',#1238,#994,#995);
#864=AXIS2_PLACEMENT_3D('',#1244,#999,#1000);
#865=AXIS2_PLACEMENT_3D('',#1248,#1003,#1004);
#866=AXIS2_PLACEMENT_3D('',#1257,#1009,#1010);
#867=AXIS2_PLACEMENT_3D('',#1263,#1014,#1015);
#868=AXIS2_PLACEMENT_3D('',#1272,#1020,#1021);
#869=AXIS2_PLACEMENT_3D('',#1278,#1025,#1026);
#870=AXIS2_PLACEMENT_3D('',#1284,#1030,#1031);
#871=AXIS2_PLACEMENT_3D('',#1298,#1039,#1040);
#872=AXIS2_PLACEMENT_3D('',#1306,#1045,#1046);
#873=AXIS2_PLACEMENT_3D('',#1307,#1047,#1048);
#874=AXIS2_PLACEMENT_3D('',#1313,#1052,#1053);
#875=AXIS2_PLACEMENT_3D('',#1314,#1054,#1055);
#876=AXIS2_PLACEMENT_3D('',#1317,#1058,#1059);
#877=AXIS2_PLACEMENT_3D('',#1318,#1060,#1061);
#878=AXIS2_PLACEMENT_3D('',#1319,#1062,#1063);
#879=AXIS2_PLACEMENT_3D('',#1320,#1064,#1065);
#880=AXIS2_PLACEMENT_3D('',#1323,#1068,#1069);
#881=AXIS2_PLACEMENT_3D('',#1327,#1072,#1073);
#882=AXIS2_PLACEMENT_3D('',#1328,#1074,#1075);
#883=AXIS2_PLACEMENT_3D('',#1330,#1077,#1078);
#884=AXIS2_PLACEMENT_3D('',#1331,#1079,#1080);
#885=AXIS2_PLACEMENT_3D('',#1334,#1082,#1083);
#886=AXIS2_PLACEMENT_3D('',#1335,#1084,#1085);
#887=AXIS2_PLACEMENT_3D('',#1337,#1087,#1088);
#888=AXIS2_PLACEMENT_3D('',#1339,#1090,#1091);
#889=AXIS2_PLACEMENT_3D('',#1340,#1092,#1093);
#890=AXIS2_PLACEMENT_3D('',#1343,#1095,#1096);
#891=AXIS2_PLACEMENT_3D('',#1349,#1097,#1098);
#892=AXIS2_PLACEMENT_3D('',#1355,#1099,#1100);
#893=AXIS2_PLACEMENT_3D('',#1356,#1101,#1102);
#894=AXIS2_PLACEMENT_3D('',#1357,#1103,#1104);
#895=AXIS2_PLACEMENT_3D('',#1358,#1105,#1106);
#896=AXIS2_PLACEMENT_3D('',#1359,#1107,#1108);
#897=AXIS2_PLACEMENT_3D('',#1360,#1109,#1110);
#898=AXIS2_PLACEMENT_3D('',#1361,#1111,#1112);
#899=AXIS2_PLACEMENT_3D('',#1362,#1113,#1114);
#900=AXIS2_PLACEMENT_3D('',#1363,#1115,#1116);
#901=AXIS2_PLACEMENT_3D('',#1364,#1117,#1118);
#902=AXIS2_PLACEMENT_3D('',#1365,#1119,#1120);
#903=AXIS2_PLACEMENT_3D('',#1366,#1121,#1122);
#904=AXIS2_PLACEMENT_3D('',#1367,#1123,#1124);
#905=DIRECTION('',(0.,0.,1.));
#906=DIRECTION('',(1.,0.,0.));
#907=DIRECTION('',(-1.,0.,0.));
#908=DIRECTION('',(0.,0.,1.));
#909=DIRECTION('',(0.,0.,-1.));
#910=DIRECTION('',(0.,1.,0.));
#911=DIRECTION('',(0.,0.,-1.));
#912=DIRECTION('',(0.,1.,0.));
#913=DIRECTION('',(0.,0.,-1.));
#914=DIRECTION('',(0.,1.,0.));
#915=DIRECTION('',(0.,0.707106781186548,-0.707106781186547));
#916=DIRECTION('',(0.,-1.,0.));
#917=DIRECTION('',(0.,0.,-1.));
#918=DIRECTION('',(0.,-1.,0.));
#919=DIRECTION('',(0.,0.,-1.));
#920=DIRECTION('',(0.,-1.,0.));
#921=DIRECTION('',(0.,0.,-1.));
#922=DIRECTION('',(0.,0.,-1.));
#923=DIRECTION('',(0.777145961456971,0.,-0.629320391049837));
#924=DIRECTION('',(0.,0.,-1.));
#925=DIRECTION('',(-1.,0.,0.));
#926=DIRECTION('',(-0.707106781186548,0.,-0.707106781186547));
#927=DIRECTION('',(1.,0.,0.));
#928=DIRECTION('',(-1.,0.,0.));
#929=DIRECTION('',(0.,0.,1.));
#930=DIRECTION('',(1.,0.,0.));
#931=DIRECTION('',(1.,0.,0.));
#932=DIRECTION('',(0.,0.,1.));
#933=DIRECTION('',(1.,0.,0.));
#934=DIRECTION('',(0.,1.,0.));
#935=DIRECTION('',(0.,1.,0.));
#936=DIRECTION('',(0.,0.,1.));
#937=DIRECTION('',(0.,1.,0.));
#938=DIRECTION('',(0.,0.,1.));
#939=DIRECTION('',(0.,1.,0.));
#940=DIRECTION('',(0.,0.,1.));
#941=DIRECTION('',(0.,0.,1.));
#942=DIRECTION('',(-0.777145961456971,0.,0.629320391049837));
#943=DIRECTION('',(0.,0.,-1.));
#944=DIRECTION('',(-1.,0.,0.));
#945=DIRECTION('',(0.,1.,0.));
#946=DIRECTION('',(0.,0.,-1.));
#947=DIRECTION('',(-1.,0.,0.));
#948=DIRECTION('',(0.,0.,1.));
#949=DIRECTION('',(0.,0.,-1.));
#950=DIRECTION('',(0.,-1.,0.));
#951=DIRECTION('',(-1.,0.,0.));
#952=DIRECTION('',(0.,0.,1.));
#953=DIRECTION('',(0.,0.,-1.));
#954=DIRECTION('',(0.,1.,0.));
#955=DIRECTION('',(0.,0.,-1.));
#956=DIRECTION('',(0.,0.707106781186547,0.707106781186548));
#957=DIRECTION('',(0.,1.,0.));
#958=DIRECTION('',(0.,0.,-1.));
#959=DIRECTION('',(0.,1.,0.));
#960=DIRECTION('',(0.,0.,-1.));
#961=DIRECTION('',(0.,-1.,0.));
#962=DIRECTION('',(0.,0.,-1.));
#963=DIRECTION('',(0.,-1.,0.));
#964=DIRECTION('',(0.,0.,-1.));
#965=DIRECTION('',(0.,-1.,0.));
#966=DIRECTION('',(0.,0.,-1.));
#967=DIRECTION('',(0.,0.,-1.));
#968=DIRECTION('',(0.777145961456971,0.,-0.629320391049837));
#969=DIRECTION('',(0.,0.,1.));
#970=DIRECTION('',(0.,-1.,0.));
#971=DIRECTION('',(0.,0.,1.));
#972=DIRECTION('',(1.,0.,0.));
#973=DIRECTION('',(-1.,0.,0.));
#974=DIRECTION('',(0.,0.,1.));
#975=DIRECTION('',(1.,0.,0.));
#976=DIRECTION('',(0.,1.,0.));
#977=DIRECTION('',(0.,0.,1.));
#978=DIRECTION('',(1.,0.,0.));
#979=DIRECTION('',(1.,0.,0.));
#980=DIRECTION('',(0.,1.,0.));
#981=DIRECTION('',(0.,0.,1.));
#982=DIRECTION('',(0.,1.,0.));
#983=DIRECTION('',(0.,0.,1.));
#984=DIRECTION('',(0.,1.,0.));
#985=DIRECTION('',(0.,0.,1.));
#986=DIRECTION('',(-1.,0.,0.));
#987=DIRECTION('',(0.,0.,1.));
#988=DIRECTION('',(-0.777145961456971,0.,0.629320391049837));
#989=DIRECTION('',(0.,0.,-1.));
#990=DIRECTION('',(-1.,0.,0.));
#991=DIRECTION('',(0.,0.,1.));
#992=DIRECTION('',(0.,-1.,0.));
#993=DIRECTION('',(0.,0.,-1.));
#994=DIRECTION('',(0.,0.,1.));
#995=DIRECTION('',(1.,0.,0.));
#996=DIRECTION('',(-1.,0.,0.));
#997=DIRECTION('',(0.,1.,0.));
#998=DIRECTION('',(1.,0.,0.));
#999=DIRECTION('',(0.,0.,-1.));
#1000=DIRECTION('',(-1.,0.,0.));
#1001=DIRECTION('',(0.,1.,0.));
#1002=DIRECTION('',(-1.,0.,0.));
#1003=DIRECTION('',(1.,0.,0.));
#1004=DIRECTION('',(0.,0.,-1.));
#1005=DIRECTION('',(0.,0.,-1.));
#1006=DIRECTION('',(0.,1.,0.));
#1007=DIRECTION('',(0.,0.,-1.));
#1008=DIRECTION('',(0.,1.,0.));
#1009=DIRECTION('',(0.,0.,-1.));
#1010=DIRECTION('',(-1.,0.,0.));
#1011=DIRECTION('',(-1.,0.,0.));
#1012=DIRECTION('',(-1.,0.,0.));
#1013=DIRECTION('',(0.,1.,0.));
#1014=DIRECTION('',(0.,0.,1.));
#1015=DIRECTION('',(1.,0.,0.));
#1016=DIRECTION('',(0.,1.,0.));
#1017=DIRECTION('',(1.,0.,0.));
#1018=DIRECTION('',(0.,1.,0.));
#1019=DIRECTION('',(1.,0.,0.));
#1020=DIRECTION('',(1.,0.,0.));
#1021=DIRECTION('',(0.,0.,-1.));
#1022=DIRECTION('',(0.,0.,-1.));
#1023=DIRECTION('',(0.,0.,-1.));
#1024=DIRECTION('',(0.,1.,0.));
#1025=DIRECTION('',(0.,0.,-1.));
#1026=DIRECTION('',(-1.,0.,0.));
#1027=DIRECTION('',(-1.,0.,0.));
#1028=DIRECTION('',(0.,1.,0.));
#1029=DIRECTION('',(-1.,0.,0.));
#1030=DIRECTION('',(-1.,0.,0.));
#1031=DIRECTION('',(0.,0.,1.));
#1032=DIRECTION('',(0.,-0.707106781186548,0.707106781186547));
#1033=DIRECTION('',(0.,1.,0.));
#1034=DIRECTION('',(0.,0.,1.));
#1035=DIRECTION('',(0.,1.,0.));
#1036=DIRECTION('',(0.,0.,1.));
#1037=DIRECTION('',(0.,1.,0.));
#1038=DIRECTION('',(0.,-0.707106781186547,-0.707106781186548));
#1039=DIRECTION('',(-1.,0.,0.));
#1040=DIRECTION('',(0.,0.,1.));
#1041=DIRECTION('',(0.,1.,0.));
#1042=DIRECTION('',(0.,0.,1.));
#1043=DIRECTION('',(0.,-1.,0.));
#1044=DIRECTION('',(0.,1.,0.));
#1045=DIRECTION('',(-1.,0.,0.));
#1046=DIRECTION('',(0.,0.,-1.));
#1047=DIRECTION('',(0.,0.,1.));
#1048=DIRECTION('',(1.,0.,0.));
#1049=DIRECTION('',(1.,0.,0.));
#1050=DIRECTION('',(0.,1.,0.));
#1051=DIRECTION('',(1.,0.,0.));
#1052=DIRECTION('',(0.,1.,0.));
#1053=DIRECTION('',(-1.,0.,0.));
#1054=DIRECTION('',(0.,1.,0.));
#1055=DIRECTION('',(0.,0.,1.));
#1056=DIRECTION('',(0.707106781186547,0.,-0.707106781186548));
#1057=DIRECTION('',(0.707106781186548,0.,0.707106781186547));
#1058=DIRECTION('',(0.,1.,0.));
#1059=DIRECTION('',(0.,0.,1.));
#1060=DIRECTION('',(0.,1.,0.));
#1061=DIRECTION('',(-1.,0.,0.));
#1062=DIRECTION('',(0.,1.,0.));
#1063=DIRECTION('',(0.,0.,1.));
#1064=DIRECTION('',(0.,1.,0.));
#1065=DIRECTION('',(0.,0.,1.));
#1066=DIRECTION('',(0.707106781186548,0.,0.707106781186547));
#1067=DIRECTION('',(0.707106781186547,0.,-0.707106781186548));
#1068=DIRECTION('',(-0.707106781186547,0.,0.707106781186548));
#1069=DIRECTION('',(0.707106781186548,0.,0.707106781186547));
#1070=DIRECTION('',(0.,-1.,0.));
#1071=DIRECTION('',(0.707106781186548,0.,0.707106781186547));
#1072=DIRECTION('',(-0.707106781186548,0.,-0.707106781186547));
#1073=DIRECTION('',(-0.707106781186547,0.,0.707106781186548));
#1074=DIRECTION('',(0.,0.,-1.));
#1075=DIRECTION('',(-1.,0.,0.));
#1076=DIRECTION('',(-1.,0.,0.));
#1077=DIRECTION('',(0.,-1.,0.));
#1078=DIRECTION('',(0.,0.,-1.));
#1079=DIRECTION('',(0.,-0.707106781186548,0.707106781186547));
#1080=DIRECTION('',(1.,0.,0.));
#1081=DIRECTION('',(0.,0.707106781186547,0.707106781186548));
#1082=DIRECTION('',(0.,-0.707106781186548,0.707106781186547));
#1083=DIRECTION('',(0.,0.707106781186547,0.707106781186548));
#1084=DIRECTION('',(0.629320391049837,0.,0.777145961456971));
#1085=DIRECTION('',(0.,1.,0.));
#1086=DIRECTION('',(-0.777145961456971,0.,0.629320391049837));
#1087=DIRECTION('',(0.629320391049837,0.,0.777145961456971));
#1088=DIRECTION('',(0.,1.,0.));
#1089=DIRECTION('',(0.777145961456971,0.,-0.629320391049837));
#1090=DIRECTION('',(0.,0.707106781186547,0.707106781186548));
#1091=DIRECTION('',(-1.,0.,0.));
#1092=DIRECTION('',(0.,0.707106781186547,0.707106781186548));
#1093=DIRECTION('',(0.,0.707106781186548,-0.707106781186547));
#1094=DIRECTION('',(0.,0.707106781186548,-0.707106781186547));
#1095=DIRECTION('',(0.,1.,0.));
#1096=DIRECTION('',(0.,0.,1.));
#1097=DIRECTION('',(0.,1.,0.));
#1098=DIRECTION('',(0.,0.,1.));
#1099=DIRECTION('',(0.,1.,0.));
#1100=DIRECTION('',(0.,0.,1.));
#1101=DIRECTION('',(0.,0.,-1.));
#1102=DIRECTION('',(-1.,0.,0.));
#1103=DIRECTION('',(0.430511096808295,0.,-0.902585284349861));
#1104=DIRECTION('',(-0.902585284349861,0.,-0.430511096808295));
#1105=DIRECTION('',(0.777145961456971,0.,-0.629320391049837));
#1106=DIRECTION('',(-0.629320391049837,0.,-0.777145961456971));
#1107=DIRECTION('',(0.,0.,-1.));
#1108=DIRECTION('',(-1.,0.,0.));
#1109=DIRECTION('',(0.430511096808295,0.,-0.902585284349861));
#1110=DIRECTION('',(-0.902585284349861,0.,-0.430511096808295));
#1111=DIRECTION('',(-0.777145961456971,0.,0.629320391049837));
#1112=DIRECTION('',(0.629320391049837,0.,0.777145961456971));
#1113=DIRECTION('',(0.,0.707106781186548,-0.707106781186547));
#1114=DIRECTION('',(0.,0.707106781186547,0.707106781186548));
#1115=DIRECTION('',(0.,0.707106781186547,0.707106781186548));
#1116=DIRECTION('',(0.,-0.707106781186548,0.707106781186547));
#1117=DIRECTION('',(0.,1.,0.));
#1118=DIRECTION('',(0.,0.,1.));
#1119=DIRECTION('',(0.,1.,0.));
#1120=DIRECTION('',(0.,0.,1.));
#1121=DIRECTION('',(0.,1.,0.));
#1122=DIRECTION('',(0.,0.,1.));
#1123=DIRECTION('',(0.,1.,0.));
#1124=DIRECTION('',(0.,0.,1.));
#1125=CARTESIAN_POINT('',(0.,0.,0.));
#1126=CARTESIAN_POINT('',(0.,-0.0630651637688279,0.0384));
#1127=CARTESIAN_POINT('',(0.,0.000534836231172092,0.0384));
#1128=CARTESIAN_POINT('',(0.,0.000534836231172092,0.0384));
#1129=CARTESIAN_POINT('',(0.,0.000534836231172092,0.0304));
#1130=CARTESIAN_POINT('',(0.,-0.0630651637688279,0.0384));
#1131=CARTESIAN_POINT('',(0.,-0.0044792452827096,0.0384));
#1132=CARTESIAN_POINT('',(0.,-0.0044792452827096,0.0384));
#1133=CARTESIAN_POINT('',(0.,-0.0044792452827096,0.0213));
#1134=CARTESIAN_POINT('',(0.,-0.0630651637688279,0.0213));
#1135=CARTESIAN_POINT('',(0.,0.0469348362311721,0.0213));
#1136=CARTESIAN_POINT('',(0.,0.0469348362311721,0.02385));
#1137=CARTESIAN_POINT('',(0.,0.0469348362311721,0.0264));
#1138=CARTESIAN_POINT('',(0.,-0.0630651637688279,0.0264));
#1139=CARTESIAN_POINT('',(0.,0.0045348362311721,0.0264));
#1140=CARTESIAN_POINT('',(0.,-0.0352651637688279,0.0662));
#1141=CARTESIAN_POINT('',(0.0009,-0.0044792452827096,0.0384));
#1142=CARTESIAN_POINT('',(-0.00916796643286943,-0.0044792452827096,0.0343514308333397));
#1143=CARTESIAN_POINT('',(-0.00916796643286943,-0.0044792452827096,0.0326014308333397));
#1144=CARTESIAN_POINT('',(-0.0488320335671306,-0.0044792452827096,0.0343514308333397));
#1145=CARTESIAN_POINT('',(-0.0488320335671306,-0.0044792452827096,0.0326014308333397));
#1146=CARTESIAN_POINT('',(-0.0636,-0.0044792452827096,0.0384));
#1147=CARTESIAN_POINT('',(-0.0636,-0.0044792452827096,0.0384));
#1148=CARTESIAN_POINT('',(-0.0636,-0.0044792452827096,0.0259891754489622));
#1149=CARTESIAN_POINT('',(-0.032,-0.0044792452827096,0.000400000000000005));
#1150=CARTESIAN_POINT('',(-0.032,-0.0044792452827096,0.000400000000000005));
#1151=CARTESIAN_POINT('',(-0.032,-0.0044792452827096,0.0384));
#1152=CARTESIAN_POINT('',(-0.032,-0.0044792452827096,0.021272860467434));
#1153=CARTESIAN_POINT('',(0.0009,-0.0044792452827096,0.021272860467434));
#1154=CARTESIAN_POINT('',(-0.0250271395325661,-0.0044792452827096,0.021272860467434));
#1155=CARTESIAN_POINT('',(-0.025,-0.0044792452827096,0.0213));
#1156=CARTESIAN_POINT('',(-0.025,-0.0044792452827096,0.0213));
#1157=CARTESIAN_POINT('',(-0.0135,-0.0044792452827096,0.0213));
#1158=CARTESIAN_POINT('',(0.0009,-0.0044792452827096,0.0384));
#1159=CARTESIAN_POINT('',(-0.016,-0.0630651637688279,0.0384));
#1160=CARTESIAN_POINT('',(-0.016,0.000534836231172092,0.0384));
#1161=CARTESIAN_POINT('',(-0.0586,0.000534836231172092,0.0384));
#1162=CARTESIAN_POINT('',(-0.0586,-0.00446516376882791,0.0384));
#1163=CARTESIAN_POINT('',(-0.0636,-0.00446516376882791,0.0384));
#1164=CARTESIAN_POINT('',(-0.0636,-0.0630651637688279,0.0384));
#1165=CARTESIAN_POINT('',(-0.016,0.000534836231172092,0.0384));
#1166=CARTESIAN_POINT('',(-0.00916796643286943,0.000534836231172092,0.0343514308333397));
#1167=CARTESIAN_POINT('',(-0.00916796643286943,0.000534836231172092,0.0361014308333397));
#1168=CARTESIAN_POINT('',(-0.0488320335671306,0.000534836231172092,0.0343514308333397));
#1169=CARTESIAN_POINT('',(-0.0488320335671306,0.000534836231172092,0.0361014308333397));
#1170=CARTESIAN_POINT('',(-0.032,0.000534836231172092,0.0384));
#1171=CARTESIAN_POINT('',(-0.032,0.000534836231172092,0.00683379782946583));
#1172=CARTESIAN_POINT('',(-0.032,0.000534836231172092,0.0261573593128807));
#1173=CARTESIAN_POINT('',(-0.0604533980447508,0.000534836231172092,0.0298749052562471));
#1174=CARTESIAN_POINT('',(-0.0586,0.000534836231172092,0.028374053112453));
#1175=CARTESIAN_POINT('',(-0.0586,0.000534836231172092,0.0384));
#1176=CARTESIAN_POINT('',(-0.032,0.000534836231172092,0.0304));
#1177=CARTESIAN_POINT('',(-0.029,0.000534836231172092,0.0304));
#1178=CARTESIAN_POINT('',(-0.029,0.000534836231172092,0.0261573593128807));
#1179=CARTESIAN_POINT('',(-0.0636,-0.0630651637688279,0.0384));
#1180=CARTESIAN_POINT('',(-0.0636,-0.00446516376882791,0.0384));
#1181=CARTESIAN_POINT('',(-0.0636,-0.00446516376882792,0.0259891754489623));
#1182=CARTESIAN_POINT('',(-0.0636,-0.0630651637688279,0.0259891754489623));
#1183=CARTESIAN_POINT('',(0.,-0.0741551637688279,0.0384));
#1184=CARTESIAN_POINT('',(0.,-0.0105551637688279,0.0384));
#1185=CARTESIAN_POINT('',(0.,-0.0105551637688279,0.0384));
#1186=CARTESIAN_POINT('',(0.,-0.010554427652508,0.0264));
#1187=CARTESIAN_POINT('',(0.,-0.0741551637688279,0.0384));
#1188=CARTESIAN_POINT('',(0.,-0.0155692452827096,0.0384));
#1189=CARTESIAN_POINT('',(0.,-0.0155692452827096,0.0384));
#1190=CARTESIAN_POINT('',(0.,-0.0155692452827096,0.0304));
#1191=CARTESIAN_POINT('',(0.,-0.0408622045257687,0.00510704075694086));
#1192=CARTESIAN_POINT('',(0.,-0.0195692452827096,0.0264));
#1193=CARTESIAN_POINT('',(0.,-0.0630651637688279,0.0264));
#1194=CARTESIAN_POINT('',(0.,-0.0630651637688279,0.0264));
#1195=CARTESIAN_POINT('',(0.,-0.0630651637688279,0.02385));
#1196=CARTESIAN_POINT('',(0.,-0.0630651637688279,0.0213));
#1197=CARTESIAN_POINT('',(0.,-0.0630651637688279,0.0213));
#1198=CARTESIAN_POINT('',(0.,-0.0105536915361881,0.0213));
#1199=CARTESIAN_POINT('',(0.,-0.0105536915361881,0.02385));
#1200=CARTESIAN_POINT('',(0.0009,-0.0155692452827096,0.0384));
#1201=CARTESIAN_POINT('',(-0.00916796643286943,-0.0155692452827096,0.0343514308333397));
#1202=CARTESIAN_POINT('',(-0.00916796643286943,-0.0155692452827096,0.0326014308333397));
#1203=CARTESIAN_POINT('',(-0.0488320335671306,-0.0155692452827096,0.0343514308333397));
#1204=CARTESIAN_POINT('',(-0.0488320335671306,-0.0155692452827096,0.0326014308333397));
#1205=CARTESIAN_POINT('',(-0.0586,-0.0155692452827096,0.0384));
#1206=CARTESIAN_POINT('',(-0.0586,-0.0155692452827096,0.0384));
#1207=CARTESIAN_POINT('',(-0.0586,-0.0155692452827096,0.028374053112453));
#1208=CARTESIAN_POINT('',(-0.0288533980447508,-0.0155692452827096,0.00428572980728485));
#1209=CARTESIAN_POINT('',(-0.032,-0.0155692452827096,0.00683379782946583));
#1210=CARTESIAN_POINT('',(-0.032,-0.0155692452827096,0.0107));
#1211=CARTESIAN_POINT('',(-0.032,-0.0155692452827096,0.0261573593128807));
#1212=CARTESIAN_POINT('',(-0.029,-0.0155692452827096,0.0261573593128807));
#1213=CARTESIAN_POINT('',(-0.029,-0.0155692452827096,0.0304));
#1214=CARTESIAN_POINT('',(0.,-0.0155692452827096,0.0304));
#1215=CARTESIAN_POINT('',(0.0009,-0.0155692452827096,0.0384));
#1216=CARTESIAN_POINT('',(-0.016,-0.0741551637688279,0.0384));
#1217=CARTESIAN_POINT('',(-0.0636,-0.0741551637688279,0.0384));
#1218=CARTESIAN_POINT('',(-0.0636,-0.0105692452827096,0.0384));
#1219=CARTESIAN_POINT('',(-0.0636,-0.0105551637688279,0.0384));
#1220=CARTESIAN_POINT('',(-0.0586,-0.0105692452827096,0.0384));
#1221=CARTESIAN_POINT('',(-0.016,-0.0105551637688279,0.0384));
#1222=CARTESIAN_POINT('',(-0.016,-0.0105551637688279,0.0384));
#1223=CARTESIAN_POINT('',(-0.00916796643286943,-0.0105551637688279,0.0343514308333397));
#1224=CARTESIAN_POINT('',(-0.00916796643286943,-0.0105551637688279,0.0361014308333397));
#1225=CARTESIAN_POINT('',(-0.0488320335671306,-0.0105551637688279,0.0343514308333397));
#1226=CARTESIAN_POINT('',(-0.0488320335671306,-0.0105551637688279,0.0361014308333397));
#1227=CARTESIAN_POINT('',(0.0009,-0.0105536915361881,0.0264));
#1228=CARTESIAN_POINT('',(-0.032,-0.010554427652508,0.0264));
#1229=CARTESIAN_POINT('',(-0.032,-0.0105551637688279,0.0384));
#1230=CARTESIAN_POINT('',(-0.032,-0.0105551637688279,0.000400000000000005));
#1231=CARTESIAN_POINT('',(-0.032,-0.0105551637688279,0.000400000000000005));
#1232=CARTESIAN_POINT('',(-0.0636,-0.0105551637688279,0.0259891754489622));
#1233=CARTESIAN_POINT('',(-0.0636,-0.0105551637688279,0.0384));
#1234=CARTESIAN_POINT('',(-0.0636,-0.0741551637688279,0.0384));
#1235=CARTESIAN_POINT('',(-0.0636,-0.0630651637688279,0.0259891754489623));
#1236=CARTESIAN_POINT('',(-0.0636,-0.0105692452827096,0.0259891754489623));
#1237=CARTESIAN_POINT('',(-0.0636,-0.0105692452827096,0.0384));
#1238=CARTESIAN_POINT('',(-0.016,-0.0630651637688279,0.0264));
#1239=CARTESIAN_POINT('',(-0.032,-0.0195692452827096,0.0264));
#1240=CARTESIAN_POINT('',(-0.027,-0.0195692452827096,0.0264));
#1241=CARTESIAN_POINT('',(-0.027,-0.0630651637688279,0.0264));
#1242=CARTESIAN_POINT('',(-0.027,-0.0630651637688279,0.0264));
#1243=CARTESIAN_POINT('',(-0.016,-0.0630651637688279,0.0264));
#1244=CARTESIAN_POINT('',(-0.0135,-0.0630651637688279,0.0213));
#1245=CARTESIAN_POINT('',(-0.025,-0.0630651637688279,0.0213));
#1246=CARTESIAN_POINT('',(-0.025,0.0469348362311721,0.0213));
#1247=CARTESIAN_POINT('',(-0.0135,0.0469348362311721,0.0213));
#1248=CARTESIAN_POINT('',(-0.027,-0.0630651637688279,0.01165));
#1249=CARTESIAN_POINT('',(-0.027,-0.0630651637688279,0.01165));
#1250=CARTESIAN_POINT('',(-0.027,-0.0630651637688279,0.0193));
#1251=CARTESIAN_POINT('',(-0.027,-0.0630651637688279,0.002));
#1252=CARTESIAN_POINT('',(-0.027,-0.0630651637688279,0.002));
#1253=CARTESIAN_POINT('',(-0.027,0.0469348362311721,0.002));
#1254=CARTESIAN_POINT('',(-0.027,0.0469348362311721,0.01165));
#1255=CARTESIAN_POINT('',(-0.027,0.0469348362311721,0.0193));
#1256=CARTESIAN_POINT('',(-0.027,-0.0630651637688279,0.0193));
#1257=CARTESIAN_POINT('',(-0.0135,-0.0630651637688279,0.0213));
#1258=CARTESIAN_POINT('',(-0.0135,-0.0105536915361881,0.0213));
#1259=CARTESIAN_POINT('',(-0.025,-0.0105536915361881,0.0213));
#1260=CARTESIAN_POINT('',(-0.0135,-0.0630651637688279,0.0213));
#1261=CARTESIAN_POINT('',(-0.025,-0.0630651637688279,0.0213));
#1262=CARTESIAN_POINT('',(-0.025,-0.0630651637688279,0.0213));
#1263=CARTESIAN_POINT('',(-0.02595,-0.0630651637688279,-9.99999999999925E-5));
#1264=CARTESIAN_POINT('',(-0.0249,-0.0630651637688279,-9.99999999999923E-5));
#1265=CARTESIAN_POINT('',(-0.0249,-0.0630651637688279,-9.99999999999921E-5));
#1266=CARTESIAN_POINT('',(-0.0249,0.0469348362311721,-9.99999999999923E-5));
#1267=CARTESIAN_POINT('',(-0.02595,-0.0630651637688279,-9.99999999999925E-5));
#1268=CARTESIAN_POINT('',(0.,-0.0630651637688279,-9.99999999999925E-5));
#1269=CARTESIAN_POINT('',(0.,-0.0630651637688279,-9.99999999999925E-5));
#1270=CARTESIAN_POINT('',(0.,0.0469348362311721,-9.99999999999925E-5));
#1271=CARTESIAN_POINT('',(-0.02595,0.0469348362311721,-9.99999999999925E-5));
#1272=CARTESIAN_POINT('',(0.,-0.0630651637688279,-0.00255));
#1273=CARTESIAN_POINT('',(0.,0.0469348362311721,-0.00255));
#1274=CARTESIAN_POINT('',(0.,0.0469348362311721,-0.005));
#1275=CARTESIAN_POINT('',(0.,-0.0630651637688279,-0.00255));
#1276=CARTESIAN_POINT('',(0.,-0.0630651637688279,-0.005));
#1277=CARTESIAN_POINT('',(0.,-0.0630651637688279,-0.005));
#1278=CARTESIAN_POINT('',(-0.016,-0.0630651637688279,-0.005));
#1279=CARTESIAN_POINT('',(-0.016,-0.0630651637688279,-0.005));
#1280=CARTESIAN_POINT('',(-0.027,-0.0630651637688279,-0.005));
#1281=CARTESIAN_POINT('',(-0.027,-0.0630651637688279,-0.005));
#1282=CARTESIAN_POINT('',(-0.027,0.0469348362311721,-0.005));
#1283=CARTESIAN_POINT('',(-0.016,0.0469348362311721,-0.005));
#1284=CARTESIAN_POINT('',(-0.032,-0.0630651637688279,0.0107));
#1285=CARTESIAN_POINT('',(-0.032,0.00741351588761247,0.0192786796564404));
#1286=CARTESIAN_POINT('',(-0.032,0.00529219554405283,0.0214));
#1287=CARTESIAN_POINT('',(-0.032,-0.0630651637688279,0.0214));
#1288=CARTESIAN_POINT('',(-0.032,0.0469348362311721,0.0214));
#1289=CARTESIAN_POINT('',(-0.032,0.0469348362311721,0.0107));
#1290=CARTESIAN_POINT('',(-0.032,0.0469348362311721,0.));
#1291=CARTESIAN_POINT('',(-0.032,-0.0630651637688279,0.));
#1292=CARTESIAN_POINT('',(-0.032,-0.0630651637688279,0.));
#1293=CARTESIAN_POINT('',(-0.032,-0.0630651637688279,0.0107));
#1294=CARTESIAN_POINT('',(-0.032,-0.0630651637688279,0.0214));
#1295=CARTESIAN_POINT('',(-0.032,-0.0630651637688279,0.0214));
#1296=CARTESIAN_POINT('',(-0.032,-0.0203266045955903,0.0214));
#1297=CARTESIAN_POINT('',(-0.032,-0.01344792493915,0.0282786796564403));
#1298=CARTESIAN_POINT('',(-0.032,-0.0105692452827096,0.00683379782946583));
#1299=CARTESIAN_POINT('',(-0.032,-0.0105692452827096,0.000400000000000005));
#1300=CARTESIAN_POINT('',(-0.032,-0.0630651637688279,0.000400000000000005));
#1301=CARTESIAN_POINT('',(-0.032,-0.0105536915361881,0.023836430233717));
#1302=CARTESIAN_POINT('',(-0.032,-0.0105536915361881,0.021272860467434));
#1303=CARTESIAN_POINT('',(-0.032,-0.00751646840944886,0.021272860467434));
#1304=CARTESIAN_POINT('',(-0.032,-0.0630651637688279,0.000400000000000005));
#1305=CARTESIAN_POINT('',(-0.032,-0.00446516376882791,0.000400000000000005));
#1306=CARTESIAN_POINT('',(-0.032,-0.00446516376882791,0.00683379782946583));
#1307=CARTESIAN_POINT('',(-0.016,-0.0630651637688279,0.0264));
#1308=CARTESIAN_POINT('',(-0.016,0.0469348362311721,0.0264));
#1309=CARTESIAN_POINT('',(-0.027,0.0469348362311721,0.0264));
#1310=CARTESIAN_POINT('',(-0.027,-0.0630651637688279,0.0264));
#1311=CARTESIAN_POINT('',(-0.027,0.0045348362311721,0.0264));
#1312=CARTESIAN_POINT('',(0.,0.0045348362311721,0.0264));
#1313=CARTESIAN_POINT('',(-0.016,-0.0630651637688279,0.0107));
#1314=CARTESIAN_POINT('',(-0.027,-0.0630651637688279,0.));
#1315=CARTESIAN_POINT('',(-0.027,-0.0630651637688279,0.002));
#1316=CARTESIAN_POINT('',(-0.025,-0.0630651637688279,0.0213));
#1317=CARTESIAN_POINT('',(-0.027,-0.0630651637688279,0.0214));
#1318=CARTESIAN_POINT('',(-0.016,0.0469348362311721,0.0107));
#1319=CARTESIAN_POINT('',(-0.027,0.0469348362311721,0.));
#1320=CARTESIAN_POINT('',(-0.027,0.0469348362311721,0.0214));
#1321=CARTESIAN_POINT('',(-0.025,0.0469348362311721,0.0213));
#1322=CARTESIAN_POINT('',(-0.027,0.0469348362311721,0.002));
#1323=CARTESIAN_POINT('',(-0.025,-0.0630651637688279,0.0213));
#1324=CARTESIAN_POINT('',(-0.0250271395325661,-0.0630651637688279,0.021272860467434));
#1325=CARTESIAN_POINT('',(-0.0250271395325661,-0.0105536915361881,0.021272860467434));
#1326=CARTESIAN_POINT('',(-0.025,-0.0105536915361881,0.0213));
#1327=CARTESIAN_POINT('',(-0.027,-0.0630651637688279,0.002));
#1328=CARTESIAN_POINT('',(0.0009,-0.00751646840944886,0.021272860467434));
#1329=CARTESIAN_POINT('',(0.0009,-0.0105536915361881,0.021272860467434));
#1330=CARTESIAN_POINT('',(0.0009,-0.0105536915361881,0.023836430233717));
#1331=CARTESIAN_POINT('',(-0.016,-0.0195692452827096,0.0264));
#1332=CARTESIAN_POINT('',(-0.029,-0.0245692452827096,0.0214));
#1333=CARTESIAN_POINT('',(-0.029,-0.0199866695877538,0.0259825756949558));
#1334=CARTESIAN_POINT('',(-0.027,-0.0245692452827096,0.0214));
#1335=CARTESIAN_POINT('',(-0.032,-0.0630651637688279,0.000400000000000005));
#1336=CARTESIAN_POINT('',(-0.032,-0.00446516376882791,0.0004));
#1337=CARTESIAN_POINT('',(-0.032,-0.0630651637688279,0.000400000000000005));
#1338=CARTESIAN_POINT('',(-0.0636,-0.0105692452827096,0.0259891754489623));
#1339=CARTESIAN_POINT('',(-0.016,0.0045348362311721,0.0264));
#1340=CARTESIAN_POINT('',(-0.027,0.0095348362311721,0.0214));
#1341=CARTESIAN_POINT('',(-0.029,0.00495226053621626,0.0259825756949558));
#1342=CARTESIAN_POINT('',(-0.029,0.000534836231172092,0.0304));
#1343=CARTESIAN_POINT('',(-0.027,-0.0630651637688279,0.0214));
#1344=CARTESIAN_POINT('',(-0.029,0.00495226053621626,0.0259825756949558));
#1345=CARTESIAN_POINT('',(-0.029839769717106,0.00531876608811814,0.025616070143054));
#1346=CARTESIAN_POINT('',(-0.0314141584116432,0.00557406285819856,0.0243355939420576));
#1347=CARTESIAN_POINT('',(-0.032,0.00538439606254938,0.0223660171020399));
#1348=CARTESIAN_POINT('',(-0.032,0.00529219554405283,0.0214));
#1349=CARTESIAN_POINT('',(-0.027,-0.0630651637688279,0.0214));
#1350=CARTESIAN_POINT('',(-0.029,-0.0199866695877538,0.0259825756949558));
#1351=CARTESIAN_POINT('',(-0.029839769717106,-0.0203531751396556,0.025616070143054));
#1352=CARTESIAN_POINT('',(-0.0314141584116432,-0.0206084719097353,0.0243355939420576));
#1353=CARTESIAN_POINT('',(-0.032,-0.0204188051140881,0.0223660171020398));
#1354=CARTESIAN_POINT('',(-0.032,-0.0203266045955903,0.0214));
#1355=CARTESIAN_POINT('',(-0.027,-0.0630651637688279,0.));
#1356=CARTESIAN_POINT('',(-0.0586,-0.00446516376882791,0.0384));
#1357=CARTESIAN_POINT('',(-0.0586,-0.00446516376882791,0.0283740531124531));
#1358=CARTESIAN_POINT('',(-0.0377749089321511,-0.00446516376882791,0.011510226875877));
#1359=CARTESIAN_POINT('',(-0.0586,-0.0105692452827096,0.0384));
#1360=CARTESIAN_POINT('',(-0.0586,-0.0105692452827096,0.0283740531124531));
#1361=CARTESIAN_POINT('',(-0.027568055144741,-0.0105692452827096,0.00324487964967632));
#1362=CARTESIAN_POINT('',(-0.029,-0.0235364841123876,0.0502286796564404));
#1363=CARTESIAN_POINT('',(-0.029,-0.0470458841822091,-0.0053192795866188));
#1364=CARTESIAN_POINT('',(-0.0488320335671306,-0.32982061381678,0.0343514308333397));
#1365=CARTESIAN_POINT('',(-0.00916796643286943,-0.32982061381678,0.0343514308333397));
#1366=CARTESIAN_POINT('',(-0.0488320335671306,-0.32982061381678,0.0343514308333397));
#1367=CARTESIAN_POINT('',(-0.00916796643286943,-0.32982061381678,0.0343514308333397));
#1368=MECHANICAL_DESIGN_GEOMETRIC_PRESENTATION_REPRESENTATION('',(#829),
#1369);
#1369=(
GEOMETRIC_REPRESENTATION_CONTEXT(3)
GLOBAL_UNCERTAINTY_ASSIGNED_CONTEXT((#1370))
GLOBAL_UNIT_ASSIGNED_CONTEXT((#1373,#1372,#1371))
REPRESENTATION_CONTEXT('Back Holder','TOP_LEVEL_ASSEMBLY_PART')
);
#1370=UNCERTAINTY_MEASURE_WITH_UNIT(LENGTH_MEASURE(2.E-5),#1373,
'DISTANCE_ACCURACY_VALUE','Maximum Tolerance applied to model');
#1371=(
NAMED_UNIT(*)
SI_UNIT($,.STERADIAN.)
SOLID_ANGLE_UNIT()
);
#1372=(
NAMED_UNIT(*)
PLANE_ANGLE_UNIT()
SI_UNIT($,.RADIAN.)
);
#1373=(
LENGTH_UNIT()
NAMED_UNIT(*)
SI_UNIT($,.METRE.)
);
#1374=PRODUCT_DEFINITION_SHAPE('','',#1375);
#1375=PRODUCT_DEFINITION('','',#1377,#1376);
#1376=PRODUCT_DEFINITION_CONTEXT('',#1383,'design');
#1377=PRODUCT_DEFINITION_FORMATION_WITH_SPECIFIED_SOURCE('','',#1379,
 .NOT_KNOWN.);
#1378=PRODUCT_RELATED_PRODUCT_CATEGORY('','',(#1379));
#1379=PRODUCT('Back Holder','Back Holder','Back Holder',(#1381));
#1380=PRODUCT_CATEGORY('','');
#1381=PRODUCT_CONTEXT('',#1383,'mechanical');
#1382=APPLICATION_PROTOCOL_DEFINITION('international standard',
'ap242_managed_model_based_3d_engineering',2020,#1383);
#1383=APPLICATION_CONTEXT('managed model based 3d engineering');
ENDSEC;
END-ISO-10303-21;
