ISO-10303-21;
HEADER;
/* Generated by software containing ST-Developer
 * from STEP Tools, Inc. (www.steptools.com) 
 */
/* OPTION: using custom renumber hook */

FILE_DESCRIPTION(
/* description */ ('STEP AP242 Edition 2',
'CAx-IF Rec.Pracs.---Representation and Presentation of Product Manufa
cturing Information (PMI)---4.0---2014-10-13',
'CAx-IF Rec.Pracs.---3D Tessellated Geometry---0.4---2014-09-14','2;1',
'CAx-IF Rec.Pracs.---User Defined Attributes---1.5---2016-08-15'),
/* implementation_level */ '2;1');

FILE_NAME(
/* name */ 'Part Studio 1 - Cap',
/* time_stamp */ '2026-07-12T09:24:37Z',
/* author */ (''),
/* organization */ (''),
/* preprocessor_version */ 'ST-DEVELOPER v20',
/* originating_system */ 'ONSHAPE BY PTC INC, 1.217',
/* authorisation */ '  ');

FILE_SCHEMA (('AP242_MANAGED_MODEL_BASED_3D_ENGINEERING_MIM_LF { 1 0 10303 442 3 1 4 }'));
ENDSEC;

DATA;
#10=SHAPE_REPRESENTATION_RELATIONSHIP('','',#539,#11);
#11=ADVANCED_BREP_SHAPE_REPRESENTATION('',(#537),#865);
#12=CYLINDRICAL_SURFACE('',#567,0.00145);
#13=CYLINDRICAL_SURFACE('',#570,0.00145);
#14=CYLINDRICAL_SURFACE('',#573,0.00145);
#15=CYLINDRICAL_SURFACE('',#576,0.00145);
#16=CIRCLE('',#554,0.00145);
#17=CIRCLE('',#555,0.00145);
#18=CIRCLE('',#556,0.00145);
#19=CIRCLE('',#557,0.00145);
#20=CIRCLE('',#568,0.00145);
#21=CIRCLE('',#571,0.00145);
#22=CIRCLE('',#574,0.00145);
#23=CIRCLE('',#577,0.00145);
#24=ORIENTED_EDGE('',*,*,#160,.F.);
#25=ORIENTED_EDGE('',*,*,#161,.F.);
#26=ORIENTED_EDGE('',*,*,#162,.F.);
#27=ORIENTED_EDGE('',*,*,#163,.T.);
#28=ORIENTED_EDGE('',*,*,#164,.T.);
#29=ORIENTED_EDGE('',*,*,#165,.F.);
#30=ORIENTED_EDGE('',*,*,#166,.F.);
#31=ORIENTED_EDGE('',*,*,#167,.T.);
#32=ORIENTED_EDGE('',*,*,#168,.T.);
#33=ORIENTED_EDGE('',*,*,#169,.F.);
#34=ORIENTED_EDGE('',*,*,#170,.F.);
#35=ORIENTED_EDGE('',*,*,#165,.T.);
#36=ORIENTED_EDGE('',*,*,#171,.T.);
#37=ORIENTED_EDGE('',*,*,#172,.F.);
#38=ORIENTED_EDGE('',*,*,#173,.F.);
#39=ORIENTED_EDGE('',*,*,#169,.T.);
#40=ORIENTED_EDGE('',*,*,#174,.T.);
#41=ORIENTED_EDGE('',*,*,#175,.F.);
#42=ORIENTED_EDGE('',*,*,#176,.F.);
#43=ORIENTED_EDGE('',*,*,#172,.T.);
#44=ORIENTED_EDGE('',*,*,#177,.T.);
#45=ORIENTED_EDGE('',*,*,#178,.F.);
#46=ORIENTED_EDGE('',*,*,#179,.F.);
#47=ORIENTED_EDGE('',*,*,#175,.T.);
#48=ORIENTED_EDGE('',*,*,#180,.F.);
#49=ORIENTED_EDGE('',*,*,#181,.T.);
#50=ORIENTED_EDGE('',*,*,#178,.T.);
#51=ORIENTED_EDGE('',*,*,#182,.F.);
#52=ORIENTED_EDGE('',*,*,#183,.T.);
#53=ORIENTED_EDGE('',*,*,#184,.T.);
#54=ORIENTED_EDGE('',*,*,#185,.T.);
#55=ORIENTED_EDGE('',*,*,#186,.T.);
#56=ORIENTED_EDGE('',*,*,#187,.F.);
#57=ORIENTED_EDGE('',*,*,#188,.F.);
#58=ORIENTED_EDGE('',*,*,#189,.F.);
#59=ORIENTED_EDGE('',*,*,#190,.T.);
#60=ORIENTED_EDGE('',*,*,#191,.T.);
#61=ORIENTED_EDGE('',*,*,#192,.F.);
#62=ORIENTED_EDGE('',*,*,#193,.F.);
#63=ORIENTED_EDGE('',*,*,#187,.T.);
#64=ORIENTED_EDGE('',*,*,#194,.T.);
#65=ORIENTED_EDGE('',*,*,#195,.F.);
#66=ORIENTED_EDGE('',*,*,#196,.F.);
#67=ORIENTED_EDGE('',*,*,#192,.T.);
#68=ORIENTED_EDGE('',*,*,#197,.T.);
#69=ORIENTED_EDGE('',*,*,#167,.F.);
#70=ORIENTED_EDGE('',*,*,#198,.F.);
#71=ORIENTED_EDGE('',*,*,#195,.T.);
#72=ORIENTED_EDGE('',*,*,#181,.F.);
#73=ORIENTED_EDGE('',*,*,#199,.F.);
#74=ORIENTED_EDGE('',*,*,#200,.F.);
#75=ORIENTED_EDGE('',*,*,#201,.F.);
#76=ORIENTED_EDGE('',*,*,#188,.T.);
#77=ORIENTED_EDGE('',*,*,#193,.T.);
#78=ORIENTED_EDGE('',*,*,#196,.T.);
#79=ORIENTED_EDGE('',*,*,#198,.T.);
#80=ORIENTED_EDGE('',*,*,#166,.T.);
#81=ORIENTED_EDGE('',*,*,#170,.T.);
#82=ORIENTED_EDGE('',*,*,#173,.T.);
#83=ORIENTED_EDGE('',*,*,#176,.T.);
#84=ORIENTED_EDGE('',*,*,#179,.T.);
#85=ORIENTED_EDGE('',*,*,#202,.F.);
#86=ORIENTED_EDGE('',*,*,#203,.F.);
#87=ORIENTED_EDGE('',*,*,#204,.F.);
#88=ORIENTED_EDGE('',*,*,#205,.F.);
#89=ORIENTED_EDGE('',*,*,#186,.F.);
#90=ORIENTED_EDGE('',*,*,#206,.T.);
#91=ORIENTED_EDGE('',*,*,#182,.T.);
#92=ORIENTED_EDGE('',*,*,#177,.F.);
#93=ORIENTED_EDGE('',*,*,#174,.F.);
#94=ORIENTED_EDGE('',*,*,#171,.F.);
#95=ORIENTED_EDGE('',*,*,#168,.F.);
#96=ORIENTED_EDGE('',*,*,#164,.F.);
#97=ORIENTED_EDGE('',*,*,#197,.F.);
#98=ORIENTED_EDGE('',*,*,#194,.F.);
#99=ORIENTED_EDGE('',*,*,#191,.F.);
#100=ORIENTED_EDGE('',*,*,#207,.F.);
#101=ORIENTED_EDGE('',*,*,#208,.T.);
#102=ORIENTED_EDGE('',*,*,#184,.F.);
#103=ORIENTED_EDGE('',*,*,#209,.F.);
#104=ORIENTED_EDGE('',*,*,#210,.T.);
#105=ORIENTED_EDGE('',*,*,#163,.F.);
#106=ORIENTED_EDGE('',*,*,#211,.F.);
#107=ORIENTED_EDGE('',*,*,#212,.F.);
#108=ORIENTED_EDGE('',*,*,#189,.T.);
#109=ORIENTED_EDGE('',*,*,#201,.T.);
#110=ORIENTED_EDGE('',*,*,#213,.F.);
#111=ORIENTED_EDGE('',*,*,#214,.T.);
#112=ORIENTED_EDGE('',*,*,#215,.T.);
#113=ORIENTED_EDGE('',*,*,#161,.T.);
#114=ORIENTED_EDGE('',*,*,#216,.F.);
#115=ORIENTED_EDGE('',*,*,#217,.T.);
#116=ORIENTED_EDGE('',*,*,#213,.T.);
#117=ORIENTED_EDGE('',*,*,#200,.T.);
#118=ORIENTED_EDGE('',*,*,#218,.T.);
#119=ORIENTED_EDGE('',*,*,#219,.T.);
#120=ORIENTED_EDGE('',*,*,#207,.T.);
#121=ORIENTED_EDGE('',*,*,#220,.F.);
#122=ORIENTED_EDGE('',*,*,#221,.F.);
#123=ORIENTED_EDGE('',*,*,#211,.T.);
#124=ORIENTED_EDGE('',*,*,#162,.T.);
#125=ORIENTED_EDGE('',*,*,#215,.F.);
#126=ORIENTED_EDGE('',*,*,#220,.T.);
#127=ORIENTED_EDGE('',*,*,#212,.T.);
#128=ORIENTED_EDGE('',*,*,#221,.T.);
#129=ORIENTED_EDGE('',*,*,#214,.F.);
#130=ORIENTED_EDGE('',*,*,#222,.F.);
#131=ORIENTED_EDGE('',*,*,#216,.T.);
#132=ORIENTED_EDGE('',*,*,#160,.T.);
#133=ORIENTED_EDGE('',*,*,#210,.F.);
#134=ORIENTED_EDGE('',*,*,#217,.F.);
#135=ORIENTED_EDGE('',*,*,#222,.T.);
#136=ORIENTED_EDGE('',*,*,#209,.T.);
#137=ORIENTED_EDGE('',*,*,#190,.F.);
#138=ORIENTED_EDGE('',*,*,#218,.F.);
#139=ORIENTED_EDGE('',*,*,#199,.T.);
#140=ORIENTED_EDGE('',*,*,#180,.T.);
#141=ORIENTED_EDGE('',*,*,#223,.T.);
#142=ORIENTED_EDGE('',*,*,#183,.F.);
#143=ORIENTED_EDGE('',*,*,#206,.F.);
#144=ORIENTED_EDGE('',*,*,#185,.F.);
#145=ORIENTED_EDGE('',*,*,#208,.F.);
#146=ORIENTED_EDGE('',*,*,#219,.F.);
#147=ORIENTED_EDGE('',*,*,#223,.F.);
#148=ORIENTED_EDGE('',*,*,#224,.F.);
#149=ORIENTED_EDGE('',*,*,#205,.T.);
#150=ORIENTED_EDGE('',*,*,#224,.T.);
#151=ORIENTED_EDGE('',*,*,#225,.F.);
#152=ORIENTED_EDGE('',*,*,#204,.T.);
#153=ORIENTED_EDGE('',*,*,#225,.T.);
#154=ORIENTED_EDGE('',*,*,#226,.F.);
#155=ORIENTED_EDGE('',*,*,#203,.T.);
#156=ORIENTED_EDGE('',*,*,#226,.T.);
#157=ORIENTED_EDGE('',*,*,#227,.F.);
#158=ORIENTED_EDGE('',*,*,#202,.T.);
#159=ORIENTED_EDGE('',*,*,#227,.T.);
#160=EDGE_CURVE('',#228,#229,#276,.T.);
#161=EDGE_CURVE('',#230,#228,#277,.T.);
#162=EDGE_CURVE('',#231,#230,#278,.T.);
#163=EDGE_CURVE('',#231,#229,#279,.T.);
#164=EDGE_CURVE('',#232,#233,#280,.T.);
#165=EDGE_CURVE('',#234,#233,#281,.T.);
#166=EDGE_CURVE('',#235,#234,#282,.T.);
#167=EDGE_CURVE('',#235,#232,#283,.T.);
#168=EDGE_CURVE('',#233,#236,#284,.T.);
#169=EDGE_CURVE('',#237,#236,#285,.T.);
#170=EDGE_CURVE('',#234,#237,#286,.T.);
#171=EDGE_CURVE('',#236,#238,#287,.T.);
#172=EDGE_CURVE('',#239,#238,#288,.T.);
#173=EDGE_CURVE('',#237,#239,#289,.T.);
#174=EDGE_CURVE('',#238,#240,#290,.T.);
#175=EDGE_CURVE('',#241,#240,#291,.T.);
#176=EDGE_CURVE('',#239,#241,#292,.T.);
#177=EDGE_CURVE('',#240,#242,#293,.T.);
#178=EDGE_CURVE('',#243,#242,#294,.T.);
#179=EDGE_CURVE('',#241,#243,#295,.T.);
#180=EDGE_CURVE('',#244,#245,#296,.T.);
#181=EDGE_CURVE('',#244,#243,#297,.T.);
#182=EDGE_CURVE('',#246,#242,#298,.T.);
#183=EDGE_CURVE('',#246,#245,#299,.F.);
#184=EDGE_CURVE('',#247,#248,#300,.T.);
#185=EDGE_CURVE('',#248,#249,#301,.F.);
#186=EDGE_CURVE('',#249,#250,#302,.T.);
#187=EDGE_CURVE('',#251,#250,#303,.T.);
#188=EDGE_CURVE('',#252,#251,#304,.T.);
#189=EDGE_CURVE('',#253,#252,#305,.T.);
#190=EDGE_CURVE('',#253,#247,#306,.T.);
#191=EDGE_CURVE('',#250,#254,#307,.T.);
#192=EDGE_CURVE('',#255,#254,#308,.T.);
#193=EDGE_CURVE('',#251,#255,#309,.T.);
#194=EDGE_CURVE('',#254,#256,#310,.T.);
#195=EDGE_CURVE('',#257,#256,#311,.T.);
#196=EDGE_CURVE('',#255,#257,#312,.T.);
#197=EDGE_CURVE('',#256,#232,#313,.T.);
#198=EDGE_CURVE('',#257,#235,#314,.T.);
#199=EDGE_CURVE('',#258,#244,#315,.T.);
#200=EDGE_CURVE('',#259,#258,#316,.T.);
#201=EDGE_CURVE('',#252,#259,#317,.T.);
#202=EDGE_CURVE('',#260,#260,#16,.F.);
#203=EDGE_CURVE('',#261,#261,#17,.F.);
#204=EDGE_CURVE('',#262,#262,#18,.F.);
#205=EDGE_CURVE('',#263,#263,#19,.F.);
#206=EDGE_CURVE('',#249,#246,#318,.T.);
#207=EDGE_CURVE('',#264,#265,#319,.T.);
#208=EDGE_CURVE('',#264,#248,#320,.T.);
#209=EDGE_CURVE('',#266,#247,#321,.T.);
#210=EDGE_CURVE('',#266,#229,#322,.T.);
#211=EDGE_CURVE('',#267,#231,#323,.T.);
#212=EDGE_CURVE('',#265,#267,#324,.T.);
#213=EDGE_CURVE('',#268,#259,#325,.T.);
#214=EDGE_CURVE('',#268,#269,#326,.T.);
#215=EDGE_CURVE('',#269,#230,#327,.T.);
#216=EDGE_CURVE('',#270,#228,#328,.T.);
#217=EDGE_CURVE('',#270,#253,#329,.T.);
#218=EDGE_CURVE('',#258,#271,#330,.T.);
#219=EDGE_CURVE('',#271,#264,#331,.F.);
#220=EDGE_CURVE('',#268,#265,#332,.T.);
#221=EDGE_CURVE('',#267,#269,#333,.T.);
#222=EDGE_CURVE('',#270,#266,#334,.T.);
#223=EDGE_CURVE('',#245,#271,#335,.F.);
#224=EDGE_CURVE('',#272,#272,#20,.T.);
#225=EDGE_CURVE('',#273,#273,#21,.T.);
#226=EDGE_CURVE('',#274,#274,#22,.T.);
#227=EDGE_CURVE('',#275,#275,#23,.T.);
#228=VERTEX_POINT('',#720);
#229=VERTEX_POINT('',#721);
#230=VERTEX_POINT('',#723);
#231=VERTEX_POINT('',#725);
#232=VERTEX_POINT('',#729);
#233=VERTEX_POINT('',#730);
#234=VERTEX_POINT('',#732);
#235=VERTEX_POINT('',#734);
#236=VERTEX_POINT('',#738);
#237=VERTEX_POINT('',#740);
#238=VERTEX_POINT('',#744);
#239=VERTEX_POINT('',#746);
#240=VERTEX_POINT('',#750);
#241=VERTEX_POINT('',#752);
#242=VERTEX_POINT('',#756);
#243=VERTEX_POINT('',#758);
#244=VERTEX_POINT('',#762);
#245=VERTEX_POINT('',#763);
#246=VERTEX_POINT('',#766);
#247=VERTEX_POINT('',#770);
#248=VERTEX_POINT('',#771);
#249=VERTEX_POINT('',#773);
#250=VERTEX_POINT('',#775);
#251=VERTEX_POINT('',#777);
#252=VERTEX_POINT('',#779);
#253=VERTEX_POINT('',#781);
#254=VERTEX_POINT('',#785);
#255=VERTEX_POINT('',#787);
#256=VERTEX_POINT('',#791);
#257=VERTEX_POINT('',#793);
#258=VERTEX_POINT('',#800);
#259=VERTEX_POINT('',#802);
#260=VERTEX_POINT('',#806);
#261=VERTEX_POINT('',#808);
#262=VERTEX_POINT('',#810);
#263=VERTEX_POINT('',#812);
#264=VERTEX_POINT('',#816);
#265=VERTEX_POINT('',#817);
#266=VERTEX_POINT('',#820);
#267=VERTEX_POINT('',#823);
#268=VERTEX_POINT('',#827);
#269=VERTEX_POINT('',#829);
#270=VERTEX_POINT('',#832);
#271=VERTEX_POINT('',#836);
#272=VERTEX_POINT('',#850);
#273=VERTEX_POINT('',#854);
#274=VERTEX_POINT('',#858);
#275=VERTEX_POINT('',#862);
#276=LINE('',#719,#336);
#277=LINE('',#722,#337);
#278=LINE('',#724,#338);
#279=LINE('',#726,#339);
#280=LINE('',#728,#340);
#281=LINE('',#731,#341);
#282=LINE('',#733,#342);
#283=LINE('',#735,#343);
#284=LINE('',#737,#344);
#285=LINE('',#739,#345);
#286=LINE('',#741,#346);
#287=LINE('',#743,#347);
#288=LINE('',#745,#348);
#289=LINE('',#747,#349);
#290=LINE('',#749,#350);
#291=LINE('',#751,#351);
#292=LINE('',#753,#352);
#293=LINE('',#755,#353);
#294=LINE('',#757,#354);
#295=LINE('',#759,#355);
#296=LINE('',#761,#356);
#297=LINE('',#764,#357);
#298=LINE('',#765,#358);
#299=LINE('',#767,#359);
#300=LINE('',#769,#360);
#301=LINE('',#772,#361);
#302=LINE('',#774,#362);
#303=LINE('',#776,#363);
#304=LINE('',#778,#364);
#305=LINE('',#780,#365);
#306=LINE('',#782,#366);
#307=LINE('',#784,#367);
#308=LINE('',#786,#368);
#309=LINE('',#788,#369);
#310=LINE('',#790,#370);
#311=LINE('',#792,#371);
#312=LINE('',#794,#372);
#313=LINE('',#796,#373);
#314=LINE('',#797,#374);
#315=LINE('',#799,#375);
#316=LINE('',#801,#376);
#317=LINE('',#803,#377);
#318=LINE('',#813,#378);
#319=LINE('',#815,#379);
#320=LINE('',#818,#380);
#321=LINE('',#819,#381);
#322=LINE('',#821,#382);
#323=LINE('',#822,#383);
#324=LINE('',#824,#384);
#325=LINE('',#826,#385);
#326=LINE('',#828,#386);
#327=LINE('',#830,#387);
#328=LINE('',#831,#388);
#329=LINE('',#833,#389);
#330=LINE('',#835,#390);
#331=LINE('',#837,#391);
#332=LINE('',#838,#392);
#333=LINE('',#840,#393);
#334=LINE('',#843,#394);
#335=LINE('',#846,#395);
#336=VECTOR('',#583,1.);
#337=VECTOR('',#584,1.);
#338=VECTOR('',#585,1.);
#339=VECTOR('',#586,1.);
#340=VECTOR('',#589,1.);
#341=VECTOR('',#590,1.);
#342=VECTOR('',#591,1.);
#343=VECTOR('',#592,1.);
#344=VECTOR('',#595,1.);
#345=VECTOR('',#596,1.);
#346=VECTOR('',#597,1.);
#347=VECTOR('',#600,1.);
#348=VECTOR('',#601,1.);
#349=VECTOR('',#602,1.);
#350=VECTOR('',#605,1.);
#351=VECTOR('',#606,1.);
#352=VECTOR('',#607,1.);
#353=VECTOR('',#610,1.);
#354=VECTOR('',#611,1.);
#355=VECTOR('',#612,1.);
#356=VECTOR('',#615,1.);
#357=VECTOR('',#616,1.);
#358=VECTOR('',#617,1.);
#359=VECTOR('',#618,1.);
#360=VECTOR('',#621,1.);
#361=VECTOR('',#622,1.);
#362=VECTOR('',#623,1.);
#363=VECTOR('',#624,1.);
#364=VECTOR('',#625,1.);
#365=VECTOR('',#626,1.);
#366=VECTOR('',#627,1.);
#367=VECTOR('',#630,1.);
#368=VECTOR('',#631,1.);
#369=VECTOR('',#632,1.);
#370=VECTOR('',#635,1.);
#371=VECTOR('',#636,1.);
#372=VECTOR('',#637,1.);
#373=VECTOR('',#640,1.);
#374=VECTOR('',#641,1.);
#375=VECTOR('',#644,1.);
#376=VECTOR('',#645,1.);
#377=VECTOR('',#646,1.);
#378=VECTOR('',#657,1.);
#379=VECTOR('',#660,1.);
#380=VECTOR('',#661,1.);
#381=VECTOR('',#662,1.);
#382=VECTOR('',#663,1.);
#383=VECTOR('',#664,1.);
#384=VECTOR('',#665,1.);
#385=VECTOR('',#668,1.);
#386=VECTOR('',#669,1.);
#387=VECTOR('',#670,1.);
#388=VECTOR('',#671,1.);
#389=VECTOR('',#672,1.);
#390=VECTOR('',#675,1.);
#391=VECTOR('',#676,1.);
#392=VECTOR('',#677,1.);
#393=VECTOR('',#680,1.);
#394=VECTOR('',#685,1.);
#395=VECTOR('',#690,1.);
#396=EDGE_LOOP('',(#24,#25,#26,#27));
#397=EDGE_LOOP('',(#28,#29,#30,#31));
#398=EDGE_LOOP('',(#32,#33,#34,#35));
#399=EDGE_LOOP('',(#36,#37,#38,#39));
#400=EDGE_LOOP('',(#40,#41,#42,#43));
#401=EDGE_LOOP('',(#44,#45,#46,#47));
#402=EDGE_LOOP('',(#48,#49,#50,#51,#52));
#403=EDGE_LOOP('',(#53,#54,#55,#56,#57,#58,#59));
#404=EDGE_LOOP('',(#60,#61,#62,#63));
#405=EDGE_LOOP('',(#64,#65,#66,#67));
#406=EDGE_LOOP('',(#68,#69,#70,#71));
#407=EDGE_LOOP('',(#72,#73,#74,#75,#76,#77,#78,#79,#80,#81,#82,#83,#84));
#408=EDGE_LOOP('',(#85));
#409=EDGE_LOOP('',(#86));
#410=EDGE_LOOP('',(#87));
#411=EDGE_LOOP('',(#88));
#412=EDGE_LOOP('',(#89,#90,#91,#92,#93,#94,#95,#96,#97,#98,#99));
#413=EDGE_LOOP('',(#100,#101,#102,#103,#104,#105,#106,#107));
#414=EDGE_LOOP('',(#108,#109,#110,#111,#112,#113,#114,#115));
#415=EDGE_LOOP('',(#116,#117,#118,#119,#120,#121));
#416=EDGE_LOOP('',(#122,#123,#124,#125));
#417=EDGE_LOOP('',(#126,#127,#128,#129));
#418=EDGE_LOOP('',(#130,#131,#132,#133));
#419=EDGE_LOOP('',(#134,#135,#136,#137));
#420=EDGE_LOOP('',(#138,#139,#140,#141));
#421=EDGE_LOOP('',(#142,#143,#144,#145,#146,#147));
#422=EDGE_LOOP('',(#148));
#423=EDGE_LOOP('',(#149));
#424=EDGE_LOOP('',(#150));
#425=EDGE_LOOP('',(#151));
#426=EDGE_LOOP('',(#152));
#427=EDGE_LOOP('',(#153));
#428=EDGE_LOOP('',(#154));
#429=EDGE_LOOP('',(#155));
#430=EDGE_LOOP('',(#156));
#431=EDGE_LOOP('',(#157));
#432=EDGE_LOOP('',(#158));
#433=EDGE_LOOP('',(#159));
#434=FACE_BOUND('',#396,.T.);
#435=FACE_BOUND('',#397,.T.);
#436=FACE_BOUND('',#398,.T.);
#437=FACE_BOUND('',#399,.T.);
#438=FACE_BOUND('',#400,.T.);
#439=FACE_BOUND('',#401,.T.);
#440=FACE_BOUND('',#402,.T.);
#441=FACE_BOUND('',#403,.T.);
#442=FACE_BOUND('',#404,.T.);
#443=FACE_BOUND('',#405,.T.);
#444=FACE_BOUND('',#406,.T.);
#445=FACE_BOUND('',#407,.T.);
#446=FACE_BOUND('',#408,.T.);
#447=FACE_BOUND('',#409,.T.);
#448=FACE_BOUND('',#410,.T.);
#449=FACE_BOUND('',#411,.T.);
#450=FACE_BOUND('',#412,.T.);
#451=FACE_BOUND('',#413,.T.);
#452=FACE_BOUND('',#414,.T.);
#453=FACE_BOUND('',#415,.T.);
#454=FACE_BOUND('',#416,.T.);
#455=FACE_BOUND('',#417,.T.);
#456=FACE_BOUND('',#418,.T.);
#457=FACE_BOUND('',#419,.T.);
#458=FACE_BOUND('',#420,.T.);
#459=FACE_BOUND('',#421,.T.);
#460=FACE_BOUND('',#422,.T.);
#461=FACE_BOUND('',#423,.T.);
#462=FACE_BOUND('',#424,.T.);
#463=FACE_BOUND('',#425,.T.);
#464=FACE_BOUND('',#426,.T.);
#465=FACE_BOUND('',#427,.T.);
#466=FACE_BOUND('',#428,.T.);
#467=FACE_BOUND('',#429,.T.);
#468=FACE_BOUND('',#430,.T.);
#469=FACE_BOUND('',#431,.T.);
#470=FACE_BOUND('',#432,.T.);
#471=FACE_BOUND('',#433,.T.);
#472=PLANE('',#541);
#473=PLANE('',#542);
#474=PLANE('',#543);
#475=PLANE('',#544);
#476=PLANE('',#545);
#477=PLANE('',#546);
#478=PLANE('',#547);
#479=PLANE('',#548);
#480=PLANE('',#549);
#481=PLANE('',#550);
#482=PLANE('',#551);
#483=PLANE('',#552);
#484=PLANE('',#553);
#485=PLANE('',#558);
#486=PLANE('',#559);
#487=PLANE('',#560);
#488=PLANE('',#561);
#489=PLANE('',#562);
#490=PLANE('',#563);
#491=PLANE('',#564);
#492=PLANE('',#565);
#493=PLANE('',#566);
#494=PLANE('',#569);
#495=PLANE('',#572);
#496=PLANE('',#575);
#497=PLANE('',#578);
#498=ADVANCED_FACE('',(#434),#472,.F.);
#499=ADVANCED_FACE('',(#435),#473,.F.);
#500=ADVANCED_FACE('',(#436),#474,.F.);
#501=ADVANCED_FACE('',(#437),#475,.F.);
#502=ADVANCED_FACE('',(#438),#476,.F.);
#503=ADVANCED_FACE('',(#439),#477,.F.);
#504=ADVANCED_FACE('',(#440),#478,.T.);
#505=ADVANCED_FACE('',(#441),#479,.F.);
#506=ADVANCED_FACE('',(#442),#480,.F.);
#507=ADVANCED_FACE('',(#443),#481,.F.);
#508=ADVANCED_FACE('',(#444),#482,.F.);
#509=ADVANCED_FACE('',(#445),#483,.T.);
#510=ADVANCED_FACE('',(#446,#447,#448,#449,#450),#484,.F.);
#511=ADVANCED_FACE('',(#451),#485,.F.);
#512=ADVANCED_FACE('',(#452),#486,.T.);
#513=ADVANCED_FACE('',(#453),#487,.T.);
#514=ADVANCED_FACE('',(#454),#488,.F.);
#515=ADVANCED_FACE('',(#455),#489,.T.);
#516=ADVANCED_FACE('',(#456),#490,.F.);
#517=ADVANCED_FACE('',(#457),#491,.T.);
#518=ADVANCED_FACE('',(#458),#492,.F.);
#519=ADVANCED_FACE('',(#459),#493,.T.);
#520=ADVANCED_FACE('',(#460,#461),#12,.T.);
#521=ADVANCED_FACE('',(#462),#494,.T.);
#522=ADVANCED_FACE('',(#463,#464),#13,.T.);
#523=ADVANCED_FACE('',(#465),#495,.T.);
#524=ADVANCED_FACE('',(#466,#467),#14,.T.);
#525=ADVANCED_FACE('',(#468),#496,.T.);
#526=ADVANCED_FACE('',(#469,#470),#15,.T.);
#527=ADVANCED_FACE('',(#471),#497,.T.);
#528=CLOSED_SHELL('',(#498,#499,#500,#501,#502,#503,#504,#505,#506,#507,
#508,#509,#510,#511,#512,#513,#514,#515,#516,#517,#518,#519,#520,#521,#522,
#523,#524,#525,#526,#527));
#529=STYLED_ITEM('',(#530),#537);
#530=PRESENTATION_STYLE_ASSIGNMENT((#531));
#531=SURFACE_STYLE_USAGE(.BOTH.,#532);
#532=SURFACE_SIDE_STYLE('',(#533));
#533=SURFACE_STYLE_FILL_AREA(#534);
#534=FILL_AREA_STYLE('',(#535));
#535=FILL_AREA_STYLE_COLOUR('',#536);
#536=COLOUR_RGB('',0.231372549019608,0.380392156862745,0.705882352941177);
#537=MANIFOLD_SOLID_BREP('Cap',#528);
#538=SHAPE_DEFINITION_REPRESENTATION(#870,#539);
#539=SHAPE_REPRESENTATION('Cap',(#540),#865);
#540=AXIS2_PLACEMENT_3D('',#717,#579,#580);
#541=AXIS2_PLACEMENT_3D('',#718,#581,#582);
#542=AXIS2_PLACEMENT_3D('',#727,#587,#588);
#543=AXIS2_PLACEMENT_3D('',#736,#593,#594);
#544=AXIS2_PLACEMENT_3D('',#742,#598,#599);
#545=AXIS2_PLACEMENT_3D('',#748,#603,#604);
#546=AXIS2_PLACEMENT_3D('',#754,#608,#609);
#547=AXIS2_PLACEMENT_3D('',#760,#613,#614);
#548=AXIS2_PLACEMENT_3D('',#768,#619,#620);
#549=AXIS2_PLACEMENT_3D('',#783,#628,#629);
#550=AXIS2_PLACEMENT_3D('',#789,#633,#634);
#551=AXIS2_PLACEMENT_3D('',#795,#638,#639);
#552=AXIS2_PLACEMENT_3D('',#798,#642,#643);
#553=AXIS2_PLACEMENT_3D('',#804,#647,#648);
#554=AXIS2_PLACEMENT_3D('',#805,#649,#650);
#555=AXIS2_PLACEMENT_3D('',#807,#651,#652);
#556=AXIS2_PLACEMENT_3D('',#809,#653,#654);
#557=AXIS2_PLACEMENT_3D('',#811,#655,#656);
#558=AXIS2_PLACEMENT_3D('',#814,#658,#659);
#559=AXIS2_PLACEMENT_3D('',#825,#666,#667);
#560=AXIS2_PLACEMENT_3D('',#834,#673,#674);
#561=AXIS2_PLACEMENT_3D('',#839,#678,#679);
#562=AXIS2_PLACEMENT_3D('',#841,#681,#682);
#563=AXIS2_PLACEMENT_3D('',#842,#683,#684);
#564=AXIS2_PLACEMENT_3D('',#844,#686,#687);
#565=AXIS2_PLACEMENT_3D('',#845,#688,#689);
#566=AXIS2_PLACEMENT_3D('',#847,#691,#692);
#567=AXIS2_PLACEMENT_3D('',#848,#693,#694);
#568=AXIS2_PLACEMENT_3D('',#849,#695,#696);
#569=AXIS2_PLACEMENT_3D('',#851,#697,#698);
#570=AXIS2_PLACEMENT_3D('',#852,#699,#700);
#571=AXIS2_PLACEMENT_3D('',#853,#701,#702);
#572=AXIS2_PLACEMENT_3D('',#855,#703,#704);
#573=AXIS2_PLACEMENT_3D('',#856,#705,#706);
#574=AXIS2_PLACEMENT_3D('',#857,#707,#708);
#575=AXIS2_PLACEMENT_3D('',#859,#709,#710);
#576=AXIS2_PLACEMENT_3D('',#860,#711,#712);
#577=AXIS2_PLACEMENT_3D('',#861,#713,#714);
#578=AXIS2_PLACEMENT_3D('',#863,#715,#716);
#579=DIRECTION('',(0.,0.,1.));
#580=DIRECTION('',(1.,0.,0.));
#581=DIRECTION('',(0.,0.,1.));
#582=DIRECTION('',(1.,0.,0.));
#583=DIRECTION('',(-1.,0.,0.));
#584=DIRECTION('',(0.,1.,0.));
#585=DIRECTION('',(1.,0.,0.));
#586=DIRECTION('',(0.,1.,0.));
#587=DIRECTION('',(0.,1.,0.));
#588=DIRECTION('',(0.,0.,1.));
#589=DIRECTION('',(1.,0.,0.));
#590=DIRECTION('',(0.,0.,-1.));
#591=DIRECTION('',(1.,0.,0.));
#592=DIRECTION('',(0.,0.,-1.));
#593=DIRECTION('',(-0.167700674968363,0.985837960120808,0.));
#594=DIRECTION('',(-0.985837960120808,-0.167700674968363,0.));
#595=DIRECTION('',(0.985837960120808,0.167700674968363,0.));
#596=DIRECTION('',(0.,0.,-1.));
#597=DIRECTION('',(0.985837960120808,0.167700674968363,0.));
#598=DIRECTION('',(-1.,0.,0.));
#599=DIRECTION('',(0.,0.,1.));
#600=DIRECTION('',(0.,1.,0.));
#601=DIRECTION('',(0.,0.,-1.));
#602=DIRECTION('',(0.,1.,0.));
#603=DIRECTION('',(0.,-1.,0.));
#604=DIRECTION('',(0.,0.,-1.));
#605=DIRECTION('',(-1.,0.,0.));
#606=DIRECTION('',(0.,0.,-1.));
#607=DIRECTION('',(-1.,0.,0.));
#608=DIRECTION('',(-1.,0.,0.));
#609=DIRECTION('',(0.,0.,1.));
#610=DIRECTION('',(0.,1.,0.));
#611=DIRECTION('',(0.,0.,-1.));
#612=DIRECTION('',(0.,1.,0.));
#613=DIRECTION('',(0.,-1.,0.));
#614=DIRECTION('',(0.,0.,-1.));
#615=DIRECTION('',(0.,0.,-1.));
#616=DIRECTION('',(-1.,0.,0.));
#617=DIRECTION('',(-1.,0.,0.));
#618=DIRECTION('',(-0.707106781186548,0.,0.707106781186548));
#619=DIRECTION('',(0.,-1.,0.));
#620=DIRECTION('',(0.,0.,-1.));
#621=DIRECTION('',(0.,0.,1.));
#622=DIRECTION('',(0.707106781186548,0.,-0.707106781186548));
#623=DIRECTION('',(-1.,0.,0.));
#624=DIRECTION('',(0.,0.,-1.));
#625=DIRECTION('',(-1.,0.,0.));
#626=DIRECTION('',(0.,0.,1.));
#627=DIRECTION('',(-1.,0.,0.));
#628=DIRECTION('',(-1.,0.,0.));
#629=DIRECTION('',(0.,0.,1.));
#630=DIRECTION('',(0.,1.,0.));
#631=DIRECTION('',(0.,0.,-1.));
#632=DIRECTION('',(0.,1.,0.));
#633=DIRECTION('',(0.,-1.,0.));
#634=DIRECTION('',(0.,0.,-1.));
#635=DIRECTION('',(-1.,0.,0.));
#636=DIRECTION('',(0.,0.,-1.));
#637=DIRECTION('',(-1.,0.,0.));
#638=DIRECTION('',(1.,0.,0.));
#639=DIRECTION('',(0.,0.,-1.));
#640=DIRECTION('',(0.,-1.,0.));
#641=DIRECTION('',(0.,-1.,0.));
#642=DIRECTION('',(0.,0.,1.));
#643=DIRECTION('',(1.,0.,0.));
#644=DIRECTION('',(0.,1.,0.));
#645=DIRECTION('',(-1.,0.,0.));
#646=DIRECTION('',(0.,-1.,0.));
#647=DIRECTION('',(0.,0.,1.));
#648=DIRECTION('',(1.,0.,0.));
#649=DIRECTION('',(0.,0.,1.));
#650=DIRECTION('',(1.,0.,0.));
#651=DIRECTION('',(0.,0.,1.));
#652=DIRECTION('',(1.,0.,0.));
#653=DIRECTION('',(0.,0.,1.));
#654=DIRECTION('',(1.,0.,0.));
#655=DIRECTION('',(0.,0.,1.));
#656=DIRECTION('',(1.,0.,0.));
#657=DIRECTION('',(0.,-1.,0.));
#658=DIRECTION('',(1.,0.,0.));
#659=DIRECTION('',(0.,0.,-1.));
#660=DIRECTION('',(0.,0.,-1.));
#661=DIRECTION('',(0.,1.,0.));
#662=DIRECTION('',(0.,1.,0.));
#663=DIRECTION('',(0.,0.,1.));
#664=DIRECTION('',(0.,0.,1.));
#665=DIRECTION('',(0.,1.,0.));
#666=DIRECTION('',(1.,0.,0.));
#667=DIRECTION('',(0.,0.,-1.));
#668=DIRECTION('',(0.,0.,1.));
#669=DIRECTION('',(0.,1.,0.));
#670=DIRECTION('',(0.,0.,1.));
#671=DIRECTION('',(0.,0.,1.));
#672=DIRECTION('',(0.,1.,0.));
#673=DIRECTION('',(0.,-1.,0.));
#674=DIRECTION('',(1.,0.,0.));
#675=DIRECTION('',(0.,0.,-1.));
#676=DIRECTION('',(-0.707106781186548,0.,0.707106781186548));
#677=DIRECTION('',(-1.,0.,0.));
#678=DIRECTION('',(0.,-1.,0.));
#679=DIRECTION('',(0.,0.,-1.));
#680=DIRECTION('',(1.,0.,0.));
#681=DIRECTION('',(0.,0.,-1.));
#682=DIRECTION('',(1.,0.,0.));
#683=DIRECTION('',(0.,1.,0.));
#684=DIRECTION('',(0.,0.,1.));
#685=DIRECTION('',(-1.,0.,0.));
#686=DIRECTION('',(0.,0.,-1.));
#687=DIRECTION('',(1.,0.,0.));
#688=DIRECTION('',(1.,0.,0.));
#689=DIRECTION('',(0.,0.,-1.));
#690=DIRECTION('',(0.,1.,0.));
#691=DIRECTION('',(-0.707106781186548,0.,-0.707106781186548));
#692=DIRECTION('',(0.,-1.,0.));
#693=DIRECTION('',(0.,0.,1.));
#694=DIRECTION('',(1.,0.,0.));
#695=DIRECTION('',(0.,0.,-1.));
#696=DIRECTION('',(-1.,0.,0.));
#697=DIRECTION('',(0.,0.,-1.));
#698=DIRECTION('',(1.,0.,0.));
#699=DIRECTION('',(0.,0.,1.));
#700=DIRECTION('',(1.,0.,0.));
#701=DIRECTION('',(0.,0.,-1.));
#702=DIRECTION('',(-1.,0.,0.));
#703=DIRECTION('',(0.,0.,-1.));
#704=DIRECTION('',(1.,0.,0.));
#705=DIRECTION('',(0.,0.,1.));
#706=DIRECTION('',(1.,0.,0.));
#707=DIRECTION('',(0.,0.,-1.));
#708=DIRECTION('',(-1.,0.,0.));
#709=DIRECTION('',(0.,0.,-1.));
#710=DIRECTION('',(1.,0.,0.));
#711=DIRECTION('',(0.,0.,1.));
#712=DIRECTION('',(1.,0.,0.));
#713=DIRECTION('',(0.,0.,-1.));
#714=DIRECTION('',(-1.,0.,0.));
#715=DIRECTION('',(0.,0.,-1.));
#716=DIRECTION('',(1.,0.,0.));
#717=CARTESIAN_POINT('',(0.,0.,0.));
#718=CARTESIAN_POINT('',(0.00546060806512831,-0.00248258188441397,0.1226));
#719=CARTESIAN_POINT('',(0.0882817090153694,0.00250868638977409,0.1226));
#720=CARTESIAN_POINT('',(0.0897817090153694,0.00250868638977409,0.1226));
#721=CARTESIAN_POINT('',(0.0867817090153694,0.00250868638977409,0.1226));
#722=CARTESIAN_POINT('',(0.0897817090153694,-0.00503741763532162,0.1226));
#723=CARTESIAN_POINT('',(0.0897817090153694,-0.0177046991884708,0.1226));
#724=CARTESIAN_POINT('',(0.0882817090153694,-0.0177046991884708,0.1226));
#725=CARTESIAN_POINT('',(0.0867817090153694,-0.0177046991884708,0.1226));
#726=CARTESIAN_POINT('',(0.0867817090153694,-0.00503741763532161,0.1226));
#727=CARTESIAN_POINT('',(-0.0773604928851128,-0.0519,0.1382));
#728=CARTESIAN_POINT('',(-0.0773604928851128,-0.0519,0.1352));
#729=CARTESIAN_POINT('',(-0.0788604928851128,-0.0519,0.1352));
#730=CARTESIAN_POINT('',(0.039515478226025,-0.0519,0.1352));
#731=CARTESIAN_POINT('',(0.039515478226025,-0.0519,0.1382));
#732=CARTESIAN_POINT('',(0.039515478226025,-0.0519,0.1382));
#733=CARTESIAN_POINT('',(-0.0773604928851128,-0.0519,0.1382));
#734=CARTESIAN_POINT('',(-0.0788604928851128,-0.0519,0.1382));
#735=CARTESIAN_POINT('',(-0.0788604928851128,-0.0519,0.1382));
#736=CARTESIAN_POINT('',(0.0602396759450223,-0.0483746113598347,0.1382));
#737=CARTESIAN_POINT('',(0.0602396759450223,-0.0483746113598347,0.1352));
#738=CARTESIAN_POINT('',(0.0897817090153694,-0.0433492227196693,0.1352));
#739=CARTESIAN_POINT('',(0.0897817090153694,-0.0433492227196693,0.1382));
#740=CARTESIAN_POINT('',(0.0897817090153694,-0.0433492227196693,0.1382));
#741=CARTESIAN_POINT('',(0.0602396759450223,-0.0483746113598347,0.1382));
#742=CARTESIAN_POINT('',(0.0897817090153694,-0.0418492227196693,0.1382));
#743=CARTESIAN_POINT('',(0.0897817090153694,-0.0418492227196693,0.1352));
#744=CARTESIAN_POINT('',(0.0897817090153694,-0.0403492227196693,0.1352));
#745=CARTESIAN_POINT('',(0.0897817090153694,-0.0403492227196693,0.1382));
#746=CARTESIAN_POINT('',(0.0897817090153694,-0.0403492227196693,0.1382));
#747=CARTESIAN_POINT('',(0.0897817090153694,-0.0418492227196693,0.1382));
#748=CARTESIAN_POINT('',(0.07030413672328,-0.0403492227196693,0.1382));
#749=CARTESIAN_POINT('',(0.07030413672328,-0.0403492227196693,0.1352));
#750=CARTESIAN_POINT('',(0.0508265644311905,-0.0403492227196693,0.1352));
#751=CARTESIAN_POINT('',(0.0508265644311905,-0.0403492227196693,0.1382));
#752=CARTESIAN_POINT('',(0.0508265644311905,-0.0403492227196693,0.1382));
#753=CARTESIAN_POINT('',(0.07030413672328,-0.0403492227196693,0.1382));
#754=CARTESIAN_POINT('',(0.0508265644311905,-0.0306788664311171,0.1382));
#755=CARTESIAN_POINT('',(0.0508265644311905,-0.0306788664311171,0.1352));
#756=CARTESIAN_POINT('',(0.0508265644311905,-0.0210085101425647,0.1352));
#757=CARTESIAN_POINT('',(0.0508265644311905,-0.0210085101425647,0.1382));
#758=CARTESIAN_POINT('',(0.0508265644311905,-0.0210085101425647,0.1382));
#759=CARTESIAN_POINT('',(0.0508265644311905,-0.0306788664311171,0.1382));
#760=CARTESIAN_POINT('',(0.06880413672328,-0.0210085101425647,0.1382));
#761=CARTESIAN_POINT('',(0.079496343047871,-0.0210085101425647,0.1367));
#762=CARTESIAN_POINT('',(0.079496343047871,-0.0210085101425647,0.1382));
#763=CARTESIAN_POINT('',(0.079496343047871,-0.0210085101425647,0.135185365967498));
#764=CARTESIAN_POINT('',(0.06880413672328,-0.0210085101425647,0.1382));
#765=CARTESIAN_POINT('',(0.06880413672328,-0.0210085101425647,0.1352));
#766=CARTESIAN_POINT('',(0.0794817090153694,-0.0210085101425647,0.1352));
#767=CARTESIAN_POINT('',(0.0867817090153694,-0.0210085101425647,0.1279));
#768=CARTESIAN_POINT('',(0.0197577391130125,0.0109336748719215,0.1382));
#769=CARTESIAN_POINT('',(0.0867817090153694,0.0109336748719215,0.1226));
#770=CARTESIAN_POINT('',(0.0867817090153694,0.0109336748719215,0.0294));
#771=CARTESIAN_POINT('',(0.0867817090153694,0.0109336748719215,0.1279));
#772=CARTESIAN_POINT('',(0.048119724064191,0.0109336748719215,0.166561984951178));
#773=CARTESIAN_POINT('',(0.0794817090153694,0.0109336748719215,0.1352));
#774=CARTESIAN_POINT('',(0.0197577391130125,0.0109336748719215,0.1352));
#775=CARTESIAN_POINT('',(0.,0.0109336748719215,0.1352));
#776=CARTESIAN_POINT('',(0.,0.0109336748719215,0.1382));
#777=CARTESIAN_POINT('',(0.,0.0109336748719215,0.1382));
#778=CARTESIAN_POINT('',(0.0197577391130125,0.0109336748719215,0.1382));
#779=CARTESIAN_POINT('',(0.0897817090153694,0.0109336748719215,0.1382));
#780=CARTESIAN_POINT('',(0.0897817090153694,0.0109336748719215,0.1226));
#781=CARTESIAN_POINT('',(0.0897817090153694,0.0109336748719215,0.0294));
#782=CARTESIAN_POINT('',(0.0882817090153694,0.0109336748719215,0.0294));
#783=CARTESIAN_POINT('',(0.,-0.0630651637688279,0.1382));
#784=CARTESIAN_POINT('',(0.,-0.0630651637688279,0.1352));
#785=CARTESIAN_POINT('',(0.,0.0469348362311721,0.1352));
#786=CARTESIAN_POINT('',(0.,0.0469348362311721,0.1382));
#787=CARTESIAN_POINT('',(0.,0.0469348362311721,0.1382));
#788=CARTESIAN_POINT('',(0.,-0.0630651637688279,0.1382));
#789=CARTESIAN_POINT('',(-0.0379302464425564,0.0469348362311721,0.1382));
#790=CARTESIAN_POINT('',(-0.0379302464425564,0.0469348362311721,0.1352));
#791=CARTESIAN_POINT('',(-0.0788604928851128,0.0469348362311721,0.1352));
#792=CARTESIAN_POINT('',(-0.0788604928851128,0.0469348362311721,0.1382));
#793=CARTESIAN_POINT('',(-0.0788604928851128,0.0469348362311721,0.1382));
#794=CARTESIAN_POINT('',(-0.0379302464425564,0.0469348362311721,0.1382));
#795=CARTESIAN_POINT('',(-0.0788604928851128,0.0454348362311721,0.1382));
#796=CARTESIAN_POINT('',(-0.0788604928851128,0.0454348362311721,0.1352));
#797=CARTESIAN_POINT('',(-0.0788604928851128,0.0454348362311721,0.1382));
#798=CARTESIAN_POINT('',(0.00546060806512831,-0.00248258188441397,0.1382));
#799=CARTESIAN_POINT('',(0.079496343047871,-0.0374034325593749,0.1382));
#800=CARTESIAN_POINT('',(0.079496343047871,-0.0374014325593749,0.1382));
#801=CARTESIAN_POINT('',(0.06880413672328,-0.0374014325593749,0.1382));
#802=CARTESIAN_POINT('',(0.0897817090153694,-0.0374014325593749,0.1382));
#803=CARTESIAN_POINT('',(0.0897817090153694,-0.00503741763532162,0.1382));
#804=CARTESIAN_POINT('',(0.00546060806512831,-0.00248258188441397,0.1352));
#805=CARTESIAN_POINT('',(0.039515478226025,-0.0489,0.1352));
#806=CARTESIAN_POINT('',(0.040965478226025,-0.0489,0.1352));
#807=CARTESIAN_POINT('',(-0.0758604928851128,-0.0489,0.1352));
#808=CARTESIAN_POINT('',(-0.0744104928851128,-0.0489,0.1352));
#809=CARTESIAN_POINT('',(-0.003,0.0439348362311721,0.1352));
#810=CARTESIAN_POINT('',(-0.00155,0.0439348362311721,0.1352));
#811=CARTESIAN_POINT('',(-0.0758604928851128,0.0439348362311721,0.1352));
#812=CARTESIAN_POINT('',(-0.0744104928851128,0.0439348362311721,0.1352));
#813=CARTESIAN_POINT('',(0.0794817090153694,-0.0374014325593749,0.1352));
#814=CARTESIAN_POINT('',(0.0867817090153694,-0.00503741763532161,0.1226));
#815=CARTESIAN_POINT('',(0.0867817090153694,-0.0374014325593749,0.1304));
#816=CARTESIAN_POINT('',(0.0867817090153694,-0.0374014325593749,0.1279));
#817=CARTESIAN_POINT('',(0.0867817090153694,-0.0374014325593749,0.0294));
#818=CARTESIAN_POINT('',(0.0867817090153694,0.0109336748719215,0.1279));
#819=CARTESIAN_POINT('',(0.0867817090153694,-0.00503741763532161,0.0294));
#820=CARTESIAN_POINT('',(0.0867817090153694,0.00250868638977409,0.0294));
#821=CARTESIAN_POINT('',(0.0867817090153694,0.00250868638977409,0.029398));
#822=CARTESIAN_POINT('',(0.0867817090153694,-0.0177046991884708,0.029398));
#823=CARTESIAN_POINT('',(0.0867817090153694,-0.0177046991884708,0.0294));
#824=CARTESIAN_POINT('',(0.0867817090153694,-0.00503741763532161,0.0294));
#825=CARTESIAN_POINT('',(0.0897817090153694,-0.00503741763532162,0.1226));
#826=CARTESIAN_POINT('',(0.0897817090153694,-0.0374014325593749,0.1226));
#827=CARTESIAN_POINT('',(0.0897817090153694,-0.0374014325593749,0.0294));
#828=CARTESIAN_POINT('',(0.0897817090153694,-0.00503741763532162,0.0294));
#829=CARTESIAN_POINT('',(0.0897817090153694,-0.0177046991884708,0.0294));
#830=CARTESIAN_POINT('',(0.0897817090153694,-0.0177046991884708,0.029398));
#831=CARTESIAN_POINT('',(0.0897817090153694,0.00250868638977409,0.029398));
#832=CARTESIAN_POINT('',(0.0897817090153694,0.00250868638977409,0.0294));
#833=CARTESIAN_POINT('',(0.0897817090153694,-0.00503741763532162,0.0294));
#834=CARTESIAN_POINT('',(0.0507252920269966,-0.0374014325593749,0.12902));
#835=CARTESIAN_POINT('',(0.079496343047871,-0.0374014325593749,0.1367));
#836=CARTESIAN_POINT('',(0.079496343047871,-0.0374014325593749,0.135185365967498));
#837=CARTESIAN_POINT('',(0.0867817090153694,-0.0374014325593749,0.1279));
#838=CARTESIAN_POINT('',(0.0882817090153694,-0.0374014325593749,0.0294));
#839=CARTESIAN_POINT('',(0.0882817090153694,-0.0177046991884708,0.029398));
#840=CARTESIAN_POINT('',(0.0882817090153694,-0.0177046991884708,0.0294));
#841=CARTESIAN_POINT('',(0.0897817090153694,-0.0195151637688279,0.0294));
#842=CARTESIAN_POINT('',(0.0882817090153694,0.00250868638977409,0.029398));
#843=CARTESIAN_POINT('',(0.0882817090153694,0.00250868638977409,0.0294));
#844=CARTESIAN_POINT('',(0.0897817090153694,-0.0177046991884708,0.0294));
#845=CARTESIAN_POINT('',(0.079496343047871,-0.0374034325593749,0.1367));
#846=CARTESIAN_POINT('',(0.079496343047871,-0.0374034325593749,0.135185365967498));
#847=CARTESIAN_POINT('',(0.0867817090153694,-0.00503741763532161,0.1279));
#848=CARTESIAN_POINT('',(-0.0758604928851128,0.0439348362311721,0.1333));
#849=CARTESIAN_POINT('',(-0.0758604928851128,0.0439348362311721,0.1333));
#850=CARTESIAN_POINT('',(-0.0773104928851128,0.0439348362311721,0.1333));
#851=CARTESIAN_POINT('',(0.00546060806512831,-0.00248258188441397,0.1333));
#852=CARTESIAN_POINT('',(-0.003,0.0439348362311721,0.1333));
#853=CARTESIAN_POINT('',(-0.003,0.0439348362311721,0.1333));
#854=CARTESIAN_POINT('',(-0.00445,0.0439348362311721,0.1333));
#855=CARTESIAN_POINT('',(0.00546060806512831,-0.00248258188441397,0.1333));
#856=CARTESIAN_POINT('',(-0.0758604928851128,-0.0489,0.1333));
#857=CARTESIAN_POINT('',(-0.0758604928851128,-0.0489,0.1333));
#858=CARTESIAN_POINT('',(-0.0773104928851128,-0.0489,0.1333));
#859=CARTESIAN_POINT('',(0.00546060806512831,-0.00248258188441397,0.1333));
#860=CARTESIAN_POINT('',(0.039515478226025,-0.0489,0.1333));
#861=CARTESIAN_POINT('',(0.039515478226025,-0.0489,0.1333));
#862=CARTESIAN_POINT('',(0.038065478226025,-0.0489,0.1333));
#863=CARTESIAN_POINT('',(0.00546060806512831,-0.00248258188441397,0.1333));
#864=MECHANICAL_DESIGN_GEOMETRIC_PRESENTATION_REPRESENTATION('',(#529),
#865);
#865=(
GEOMETRIC_REPRESENTATION_CONTEXT(3)
GLOBAL_UNCERTAINTY_ASSIGNED_CONTEXT((#866))
GLOBAL_UNIT_ASSIGNED_CONTEXT((#869,#868,#867))
REPRESENTATION_CONTEXT('Cap','TOP_LEVEL_ASSEMBLY_PART')
);
#866=UNCERTAINTY_MEASURE_WITH_UNIT(LENGTH_MEASURE(1.E-8),#869,
'DISTANCE_ACCURACY_VALUE','Maximum Tolerance applied to model');
#867=(
NAMED_UNIT(*)
SI_UNIT($,.STERADIAN.)
SOLID_ANGLE_UNIT()
);
#868=(
NAMED_UNIT(*)
PLANE_ANGLE_UNIT()
SI_UNIT($,.RADIAN.)
);
#869=(
LENGTH_UNIT()
NAMED_UNIT(*)
SI_UNIT($,.METRE.)
);
#870=PRODUCT_DEFINITION_SHAPE('','',#871);
#871=PRODUCT_DEFINITION('','',#873,#872);
#872=PRODUCT_DEFINITION_CONTEXT('',#879,'design');
#873=PRODUCT_DEFINITION_FORMATION_WITH_SPECIFIED_SOURCE('','',#875,
 .NOT_KNOWN.);
#874=PRODUCT_RELATED_PRODUCT_CATEGORY('','',(#875));
#875=PRODUCT('Cap','Cap','Cap',(#877));
#876=PRODUCT_CATEGORY('','');
#877=PRODUCT_CONTEXT('',#879,'mechanical');
#878=APPLICATION_PROTOCOL_DEFINITION('international standard',
'ap242_managed_model_based_3d_engineering',2020,#879);
#879=APPLICATION_CONTEXT('managed model based 3d engineering');
ENDSEC;
END-ISO-10303-21;
