ISO-10303-21;
HEADER;
/* Generated by software containing ST-Developer
 * from STEP Tools, Inc. (www.steptools.com) 
 */
/* OPTION: using custom renumber hook */

FILE_DESCRIPTION(
/* description */ ('STEP AP242 Edition 2',
'CAx-IF Rec.Pracs.---Representation and Presentation of Product Manufa
cturing Information (PMI)---4.0---2014-10-13',
'CAx-IF Rec.Pracs.---3D Tessellated Geometry---0.4---2014-09-14','2;1',
'CAx-IF Rec.Pracs.---User Defined Attributes---1.5---2016-08-15'),
/* implementation_level */ '2;1');

FILE_NAME(
/* name */ 'Part Studio 1 - Case',
/* time_stamp */ '2026-07-12T09:24:25Z',
/* author */ (''),
/* organization */ (''),
/* preprocessor_version */ 'ST-DEVELOPER v20',
/* originating_system */ 'ONSHAPE BY PTC INC, 1.217',
/* authorisation */ '  ');

FILE_SCHEMA (('AP242_MANAGED_MODEL_BASED_3D_ENGINEERING_MIM_LF { 1 0 10303 442 3 1 4 }'));
ENDSEC;

DATA;
#10=SHAPE_REPRESENTATION_RELATIONSHIP('','',#917,#11);
#11=ADVANCED_BREP_SHAPE_REPRESENTATION('',(#915),#1483);
#12=CYLINDRICAL_SURFACE('',#927,0.00507099509213535);
#13=CYLINDRICAL_SURFACE('',#935,0.00507099509213535);
#14=CYLINDRICAL_SURFACE('',#960,0.00605);
#15=CYLINDRICAL_SURFACE('',#962,0.00796569);
#16=CYLINDRICAL_SURFACE('',#963,0.00796569);
#17=CYLINDRICAL_SURFACE('',#974,0.0015);
#18=CYLINDRICAL_SURFACE('',#977,0.0015);
#19=CYLINDRICAL_SURFACE('',#980,0.0015);
#20=CYLINDRICAL_SURFACE('',#983,0.0015);
#21=CIRCLE('',#922,0.00507099509213535);
#22=CIRCLE('',#923,0.00507099509213535);
#23=CIRCLE('',#925,0.00507099509213535);
#24=CIRCLE('',#926,0.00507099509213535);
#25=CIRCLE('',#941,0.0015);
#26=CIRCLE('',#942,0.0015);
#27=CIRCLE('',#943,0.0015);
#28=CIRCLE('',#944,0.0015);
#29=CIRCLE('',#953,0.00605);
#30=CIRCLE('',#954,0.00796569);
#31=CIRCLE('',#955,0.00796569);
#32=CIRCLE('',#957,0.00605);
#33=CIRCLE('',#958,0.00796569);
#34=CIRCLE('',#959,0.00796569);
#35=CIRCLE('',#975,0.0015);
#36=CIRCLE('',#978,0.0015);
#37=CIRCLE('',#981,0.0015);
#38=CIRCLE('',#984,0.0015);
#39=ORIENTED_EDGE('',*,*,#283,.T.);
#40=ORIENTED_EDGE('',*,*,#284,.T.);
#41=ORIENTED_EDGE('',*,*,#285,.F.);
#42=ORIENTED_EDGE('',*,*,#286,.T.);
#43=ORIENTED_EDGE('',*,*,#287,.T.);
#44=ORIENTED_EDGE('',*,*,#288,.T.);
#45=ORIENTED_EDGE('',*,*,#289,.F.);
#46=ORIENTED_EDGE('',*,*,#290,.T.);
#47=ORIENTED_EDGE('',*,*,#291,.T.);
#48=ORIENTED_EDGE('',*,*,#292,.T.);
#49=ORIENTED_EDGE('',*,*,#293,.F.);
#50=ORIENTED_EDGE('',*,*,#294,.F.);
#51=ORIENTED_EDGE('',*,*,#295,.T.);
#52=ORIENTED_EDGE('',*,*,#291,.F.);
#53=ORIENTED_EDGE('',*,*,#296,.T.);
#54=ORIENTED_EDGE('',*,*,#283,.F.);
#55=ORIENTED_EDGE('',*,*,#297,.F.);
#56=ORIENTED_EDGE('',*,*,#298,.T.);
#57=ORIENTED_EDGE('',*,*,#299,.T.);
#58=ORIENTED_EDGE('',*,*,#300,.T.);
#59=ORIENTED_EDGE('',*,*,#301,.T.);
#60=ORIENTED_EDGE('',*,*,#302,.T.);
#61=ORIENTED_EDGE('',*,*,#303,.F.);
#62=ORIENTED_EDGE('',*,*,#304,.T.);
#63=ORIENTED_EDGE('',*,*,#305,.F.);
#64=ORIENTED_EDGE('',*,*,#306,.T.);
#65=ORIENTED_EDGE('',*,*,#307,.T.);
#66=ORIENTED_EDGE('',*,*,#308,.F.);
#67=ORIENTED_EDGE('',*,*,#309,.T.);
#68=ORIENTED_EDGE('',*,*,#310,.F.);
#69=ORIENTED_EDGE('',*,*,#311,.F.);
#70=ORIENTED_EDGE('',*,*,#312,.T.);
#71=ORIENTED_EDGE('',*,*,#313,.T.);
#72=ORIENTED_EDGE('',*,*,#314,.F.);
#73=ORIENTED_EDGE('',*,*,#315,.F.);
#74=ORIENTED_EDGE('',*,*,#316,.F.);
#75=ORIENTED_EDGE('',*,*,#317,.F.);
#76=ORIENTED_EDGE('',*,*,#318,.T.);
#77=ORIENTED_EDGE('',*,*,#319,.T.);
#78=ORIENTED_EDGE('',*,*,#320,.F.);
#79=ORIENTED_EDGE('',*,*,#321,.F.);
#80=ORIENTED_EDGE('',*,*,#322,.F.);
#81=ORIENTED_EDGE('',*,*,#323,.T.);
#82=ORIENTED_EDGE('',*,*,#324,.F.);
#83=ORIENTED_EDGE('',*,*,#325,.T.);
#84=ORIENTED_EDGE('',*,*,#326,.F.);
#85=ORIENTED_EDGE('',*,*,#327,.T.);
#86=ORIENTED_EDGE('',*,*,#328,.F.);
#87=ORIENTED_EDGE('',*,*,#329,.F.);
#88=ORIENTED_EDGE('',*,*,#330,.T.);
#89=ORIENTED_EDGE('',*,*,#331,.F.);
#90=ORIENTED_EDGE('',*,*,#332,.T.);
#91=ORIENTED_EDGE('',*,*,#304,.F.);
#92=ORIENTED_EDGE('',*,*,#333,.F.);
#93=ORIENTED_EDGE('',*,*,#330,.F.);
#94=ORIENTED_EDGE('',*,*,#331,.T.);
#95=ORIENTED_EDGE('',*,*,#333,.T.);
#96=ORIENTED_EDGE('',*,*,#303,.T.);
#97=ORIENTED_EDGE('',*,*,#334,.F.);
#98=ORIENTED_EDGE('',*,*,#334,.T.);
#99=ORIENTED_EDGE('',*,*,#302,.F.);
#100=ORIENTED_EDGE('',*,*,#335,.F.);
#101=ORIENTED_EDGE('',*,*,#313,.F.);
#102=ORIENTED_EDGE('',*,*,#329,.T.);
#103=ORIENTED_EDGE('',*,*,#336,.T.);
#104=ORIENTED_EDGE('',*,*,#305,.T.);
#105=ORIENTED_EDGE('',*,*,#332,.F.);
#106=ORIENTED_EDGE('',*,*,#336,.F.);
#107=ORIENTED_EDGE('',*,*,#328,.T.);
#108=ORIENTED_EDGE('',*,*,#337,.T.);
#109=ORIENTED_EDGE('',*,*,#306,.F.);
#110=ORIENTED_EDGE('',*,*,#327,.F.);
#111=ORIENTED_EDGE('',*,*,#338,.T.);
#112=ORIENTED_EDGE('',*,*,#307,.F.);
#113=ORIENTED_EDGE('',*,*,#337,.F.);
#114=ORIENTED_EDGE('',*,*,#339,.F.);
#115=ORIENTED_EDGE('',*,*,#324,.T.);
#116=ORIENTED_EDGE('',*,*,#340,.T.);
#117=ORIENTED_EDGE('',*,*,#310,.T.);
#118=ORIENTED_EDGE('',*,*,#325,.F.);
#119=ORIENTED_EDGE('',*,*,#339,.T.);
#120=ORIENTED_EDGE('',*,*,#309,.F.);
#121=ORIENTED_EDGE('',*,*,#341,.F.);
#122=ORIENTED_EDGE('',*,*,#338,.F.);
#123=ORIENTED_EDGE('',*,*,#326,.T.);
#124=ORIENTED_EDGE('',*,*,#341,.T.);
#125=ORIENTED_EDGE('',*,*,#308,.T.);
#126=ORIENTED_EDGE('',*,*,#340,.F.);
#127=ORIENTED_EDGE('',*,*,#323,.F.);
#128=ORIENTED_EDGE('',*,*,#342,.F.);
#129=ORIENTED_EDGE('',*,*,#311,.T.);
#130=ORIENTED_EDGE('',*,*,#343,.F.);
#131=ORIENTED_EDGE('',*,*,#344,.T.);
#132=ORIENTED_EDGE('',*,*,#345,.T.);
#133=ORIENTED_EDGE('',*,*,#294,.T.);
#134=ORIENTED_EDGE('',*,*,#346,.F.);
#135=ORIENTED_EDGE('',*,*,#347,.F.);
#136=ORIENTED_EDGE('',*,*,#348,.T.);
#137=ORIENTED_EDGE('',*,*,#312,.F.);
#138=ORIENTED_EDGE('',*,*,#342,.T.);
#139=ORIENTED_EDGE('',*,*,#322,.T.);
#140=ORIENTED_EDGE('',*,*,#321,.T.);
#141=ORIENTED_EDGE('',*,*,#349,.F.);
#142=ORIENTED_EDGE('',*,*,#350,.F.);
#143=ORIENTED_EDGE('',*,*,#346,.T.);
#144=ORIENTED_EDGE('',*,*,#351,.F.);
#145=ORIENTED_EDGE('',*,*,#352,.F.);
#146=ORIENTED_EDGE('',*,*,#353,.F.);
#147=ORIENTED_EDGE('',*,*,#354,.F.);
#148=ORIENTED_EDGE('',*,*,#355,.T.);
#149=ORIENTED_EDGE('',*,*,#356,.T.);
#150=ORIENTED_EDGE('',*,*,#357,.T.);
#151=ORIENTED_EDGE('',*,*,#285,.T.);
#152=ORIENTED_EDGE('',*,*,#358,.T.);
#153=ORIENTED_EDGE('',*,*,#289,.T.);
#154=ORIENTED_EDGE('',*,*,#359,.T.);
#155=ORIENTED_EDGE('',*,*,#344,.F.);
#156=ORIENTED_EDGE('',*,*,#360,.T.);
#157=ORIENTED_EDGE('',*,*,#347,.T.);
#158=ORIENTED_EDGE('',*,*,#350,.T.);
#159=ORIENTED_EDGE('',*,*,#361,.T.);
#160=ORIENTED_EDGE('',*,*,#362,.T.);
#161=ORIENTED_EDGE('',*,*,#363,.T.);
#162=ORIENTED_EDGE('',*,*,#364,.T.);
#163=ORIENTED_EDGE('',*,*,#365,.T.);
#164=ORIENTED_EDGE('',*,*,#366,.T.);
#165=ORIENTED_EDGE('',*,*,#361,.F.);
#166=ORIENTED_EDGE('',*,*,#349,.T.);
#167=ORIENTED_EDGE('',*,*,#320,.T.);
#168=ORIENTED_EDGE('',*,*,#301,.F.);
#169=ORIENTED_EDGE('',*,*,#367,.T.);
#170=ORIENTED_EDGE('',*,*,#314,.T.);
#171=ORIENTED_EDGE('',*,*,#335,.T.);
#172=ORIENTED_EDGE('',*,*,#298,.F.);
#173=ORIENTED_EDGE('',*,*,#368,.F.);
#174=ORIENTED_EDGE('',*,*,#364,.F.);
#175=ORIENTED_EDGE('',*,*,#369,.F.);
#176=ORIENTED_EDGE('',*,*,#317,.T.);
#177=ORIENTED_EDGE('',*,*,#370,.T.);
#178=ORIENTED_EDGE('',*,*,#318,.F.);
#179=ORIENTED_EDGE('',*,*,#369,.T.);
#180=ORIENTED_EDGE('',*,*,#363,.F.);
#181=ORIENTED_EDGE('',*,*,#371,.F.);
#182=ORIENTED_EDGE('',*,*,#371,.T.);
#183=ORIENTED_EDGE('',*,*,#362,.F.);
#184=ORIENTED_EDGE('',*,*,#366,.F.);
#185=ORIENTED_EDGE('',*,*,#319,.F.);
#186=ORIENTED_EDGE('',*,*,#372,.T.);
#187=ORIENTED_EDGE('',*,*,#373,.T.);
#188=ORIENTED_EDGE('',*,*,#365,.F.);
#189=ORIENTED_EDGE('',*,*,#368,.T.);
#190=ORIENTED_EDGE('',*,*,#297,.T.);
#191=ORIENTED_EDGE('',*,*,#288,.F.);
#192=ORIENTED_EDGE('',*,*,#374,.T.);
#193=ORIENTED_EDGE('',*,*,#375,.T.);
#194=ORIENTED_EDGE('',*,*,#376,.F.);
#195=ORIENTED_EDGE('',*,*,#377,.T.);
#196=ORIENTED_EDGE('',*,*,#378,.T.);
#197=ORIENTED_EDGE('',*,*,#379,.T.);
#198=ORIENTED_EDGE('',*,*,#376,.T.);
#199=ORIENTED_EDGE('',*,*,#380,.T.);
#200=ORIENTED_EDGE('',*,*,#381,.T.);
#201=ORIENTED_EDGE('',*,*,#382,.F.);
#202=ORIENTED_EDGE('',*,*,#383,.T.);
#203=ORIENTED_EDGE('',*,*,#384,.F.);
#204=ORIENTED_EDGE('',*,*,#374,.F.);
#205=ORIENTED_EDGE('',*,*,#385,.T.);
#206=ORIENTED_EDGE('',*,*,#386,.T.);
#207=ORIENTED_EDGE('',*,*,#387,.T.);
#208=ORIENTED_EDGE('',*,*,#388,.T.);
#209=ORIENTED_EDGE('',*,*,#389,.T.);
#210=ORIENTED_EDGE('',*,*,#390,.T.);
#211=ORIENTED_EDGE('',*,*,#384,.T.);
#212=ORIENTED_EDGE('',*,*,#378,.F.);
#213=ORIENTED_EDGE('',*,*,#388,.F.);
#214=ORIENTED_EDGE('',*,*,#391,.T.);
#215=ORIENTED_EDGE('',*,*,#392,.T.);
#216=ORIENTED_EDGE('',*,*,#382,.T.);
#217=ORIENTED_EDGE('',*,*,#393,.T.);
#218=ORIENTED_EDGE('',*,*,#393,.F.);
#219=ORIENTED_EDGE('',*,*,#381,.F.);
#220=ORIENTED_EDGE('',*,*,#394,.F.);
#221=ORIENTED_EDGE('',*,*,#389,.F.);
#222=ORIENTED_EDGE('',*,*,#380,.F.);
#223=ORIENTED_EDGE('',*,*,#375,.F.);
#224=ORIENTED_EDGE('',*,*,#390,.F.);
#225=ORIENTED_EDGE('',*,*,#394,.T.);
#226=ORIENTED_EDGE('',*,*,#357,.F.);
#227=ORIENTED_EDGE('',*,*,#395,.T.);
#228=ORIENTED_EDGE('',*,*,#383,.F.);
#229=ORIENTED_EDGE('',*,*,#396,.F.);
#230=ORIENTED_EDGE('',*,*,#286,.F.);
#231=ORIENTED_EDGE('',*,*,#396,.T.);
#232=ORIENTED_EDGE('',*,*,#392,.F.);
#233=ORIENTED_EDGE('',*,*,#397,.F.);
#234=ORIENTED_EDGE('',*,*,#287,.F.);
#235=ORIENTED_EDGE('',*,*,#391,.F.);
#236=ORIENTED_EDGE('',*,*,#387,.F.);
#237=ORIENTED_EDGE('',*,*,#398,.F.);
#238=ORIENTED_EDGE('',*,*,#372,.F.);
#239=ORIENTED_EDGE('',*,*,#397,.T.);
#240=ORIENTED_EDGE('',*,*,#386,.F.);
#241=ORIENTED_EDGE('',*,*,#399,.T.);
#242=ORIENTED_EDGE('',*,*,#355,.F.);
#243=ORIENTED_EDGE('',*,*,#373,.F.);
#244=ORIENTED_EDGE('',*,*,#398,.T.);
#245=ORIENTED_EDGE('',*,*,#358,.F.);
#246=ORIENTED_EDGE('',*,*,#284,.F.);
#247=ORIENTED_EDGE('',*,*,#296,.F.);
#248=ORIENTED_EDGE('',*,*,#290,.F.);
#249=ORIENTED_EDGE('',*,*,#359,.F.);
#250=ORIENTED_EDGE('',*,*,#292,.F.);
#251=ORIENTED_EDGE('',*,*,#295,.F.);
#252=ORIENTED_EDGE('',*,*,#345,.F.);
#253=ORIENTED_EDGE('',*,*,#395,.F.);
#254=ORIENTED_EDGE('',*,*,#356,.F.);
#255=ORIENTED_EDGE('',*,*,#399,.F.);
#256=ORIENTED_EDGE('',*,*,#385,.F.);
#257=ORIENTED_EDGE('',*,*,#377,.F.);
#258=ORIENTED_EDGE('',*,*,#379,.F.);
#259=ORIENTED_EDGE('',*,*,#360,.F.);
#260=ORIENTED_EDGE('',*,*,#343,.T.);
#261=ORIENTED_EDGE('',*,*,#293,.T.);
#262=ORIENTED_EDGE('',*,*,#348,.F.);
#263=ORIENTED_EDGE('',*,*,#300,.F.);
#264=ORIENTED_EDGE('',*,*,#400,.T.);
#265=ORIENTED_EDGE('',*,*,#315,.T.);
#266=ORIENTED_EDGE('',*,*,#367,.F.);
#267=ORIENTED_EDGE('',*,*,#400,.F.);
#268=ORIENTED_EDGE('',*,*,#299,.F.);
#269=ORIENTED_EDGE('',*,*,#370,.F.);
#270=ORIENTED_EDGE('',*,*,#316,.T.);
#271=ORIENTED_EDGE('',*,*,#401,.F.);
#272=ORIENTED_EDGE('',*,*,#354,.T.);
#273=ORIENTED_EDGE('',*,*,#401,.T.);
#274=ORIENTED_EDGE('',*,*,#402,.F.);
#275=ORIENTED_EDGE('',*,*,#353,.T.);
#276=ORIENTED_EDGE('',*,*,#402,.T.);
#277=ORIENTED_EDGE('',*,*,#403,.F.);
#278=ORIENTED_EDGE('',*,*,#352,.T.);
#279=ORIENTED_EDGE('',*,*,#403,.T.);
#280=ORIENTED_EDGE('',*,*,#404,.F.);
#281=ORIENTED_EDGE('',*,*,#351,.T.);
#282=ORIENTED_EDGE('',*,*,#404,.T.);
#283=EDGE_CURVE('',#405,#406,#489,.T.);
#284=EDGE_CURVE('',#406,#407,#490,.T.);
#285=EDGE_CURVE('',#408,#407,#491,.T.);
#286=EDGE_CURVE('',#408,#409,#492,.T.);
#287=EDGE_CURVE('',#409,#410,#493,.T.);
#288=EDGE_CURVE('',#410,#405,#494,.T.);
#289=EDGE_CURVE('',#411,#412,#495,.T.);
#290=EDGE_CURVE('',#411,#413,#496,.T.);
#291=EDGE_CURVE('',#413,#414,#497,.T.);
#292=EDGE_CURVE('',#414,#412,#498,.T.);
#293=EDGE_CURVE('',#415,#416,#499,.T.);
#294=EDGE_CURVE('',#417,#415,#500,.T.);
#295=EDGE_CURVE('',#417,#414,#501,.F.);
#296=EDGE_CURVE('',#413,#406,#502,.T.);
#297=EDGE_CURVE('',#418,#405,#503,.T.);
#298=EDGE_CURVE('',#418,#419,#504,.T.);
#299=EDGE_CURVE('',#419,#420,#505,.T.);
#300=EDGE_CURVE('',#420,#421,#506,.T.);
#301=EDGE_CURVE('',#421,#422,#507,.T.);
#302=EDGE_CURVE('',#422,#423,#508,.T.);
#303=EDGE_CURVE('',#424,#423,#509,.T.);
#304=EDGE_CURVE('',#424,#425,#21,.T.);
#305=EDGE_CURVE('',#426,#425,#510,.T.);
#306=EDGE_CURVE('',#426,#427,#511,.T.);
#307=EDGE_CURVE('',#427,#428,#512,.T.);
#308=EDGE_CURVE('',#429,#428,#22,.T.);
#309=EDGE_CURVE('',#429,#430,#513,.T.);
#310=EDGE_CURVE('',#431,#430,#514,.T.);
#311=EDGE_CURVE('',#432,#431,#515,.T.);
#312=EDGE_CURVE('',#432,#416,#516,.T.);
#313=EDGE_CURVE('',#433,#434,#517,.T.);
#314=EDGE_CURVE('',#435,#434,#518,.T.);
#315=EDGE_CURVE('',#436,#435,#519,.T.);
#316=EDGE_CURVE('',#437,#436,#520,.T.);
#317=EDGE_CURVE('',#438,#437,#521,.T.);
#318=EDGE_CURVE('',#438,#439,#522,.T.);
#319=EDGE_CURVE('',#439,#440,#523,.T.);
#320=EDGE_CURVE('',#441,#440,#524,.T.);
#321=EDGE_CURVE('',#442,#441,#525,.T.);
#322=EDGE_CURVE('',#443,#442,#526,.T.);
#323=EDGE_CURVE('',#443,#444,#527,.T.);
#324=EDGE_CURVE('',#445,#444,#528,.T.);
#325=EDGE_CURVE('',#445,#446,#529,.T.);
#326=EDGE_CURVE('',#447,#446,#23,.F.);
#327=EDGE_CURVE('',#447,#448,#530,.T.);
#328=EDGE_CURVE('',#449,#448,#531,.T.);
#329=EDGE_CURVE('',#450,#449,#532,.T.);
#330=EDGE_CURVE('',#450,#451,#24,.F.);
#331=EDGE_CURVE('',#433,#451,#533,.T.);
#332=EDGE_CURVE('',#450,#425,#534,.T.);
#333=EDGE_CURVE('',#451,#424,#535,.T.);
#334=EDGE_CURVE('',#433,#423,#536,.T.);
#335=EDGE_CURVE('',#434,#422,#537,.T.);
#336=EDGE_CURVE('',#449,#426,#538,.T.);
#337=EDGE_CURVE('',#448,#427,#539,.T.);
#338=EDGE_CURVE('',#447,#428,#540,.T.);
#339=EDGE_CURVE('',#445,#430,#541,.T.);
#340=EDGE_CURVE('',#444,#431,#542,.T.);
#341=EDGE_CURVE('',#446,#429,#543,.T.);
#342=EDGE_CURVE('',#432,#443,#544,.T.);
#343=EDGE_CURVE('',#452,#415,#545,.T.);
#344=EDGE_CURVE('',#452,#453,#546,.T.);
#345=EDGE_CURVE('',#453,#417,#547,.T.);
#346=EDGE_CURVE('',#454,#442,#548,.T.);
#347=EDGE_CURVE('',#455,#454,#549,.T.);
#348=EDGE_CURVE('',#455,#416,#550,.T.);
#349=EDGE_CURVE('',#456,#441,#551,.T.);
#350=EDGE_CURVE('',#454,#456,#552,.T.);
#351=EDGE_CURVE('',#457,#457,#25,.T.);
#352=EDGE_CURVE('',#458,#458,#26,.T.);
#353=EDGE_CURVE('',#459,#459,#27,.T.);
#354=EDGE_CURVE('',#460,#460,#28,.T.);
#355=EDGE_CURVE('',#461,#462,#553,.F.);
#356=EDGE_CURVE('',#462,#463,#554,.T.);
#357=EDGE_CURVE('',#463,#408,#555,.T.);
#358=EDGE_CURVE('',#407,#411,#556,.T.);
#359=EDGE_CURVE('',#412,#453,#557,.F.);
#360=EDGE_CURVE('',#452,#455,#558,.T.);
#361=EDGE_CURVE('',#456,#464,#559,.T.);
#362=EDGE_CURVE('',#464,#465,#560,.T.);
#363=EDGE_CURVE('',#465,#466,#561,.T.);
#364=EDGE_CURVE('',#466,#467,#562,.T.);
#365=EDGE_CURVE('',#467,#461,#563,.T.);
#366=EDGE_CURVE('',#440,#464,#564,.T.);
#367=EDGE_CURVE('',#421,#435,#565,.T.);
#368=EDGE_CURVE('',#467,#418,#566,.T.);
#369=EDGE_CURVE('',#438,#466,#567,.T.);
#370=EDGE_CURVE('',#437,#419,#568,.T.);
#371=EDGE_CURVE('',#439,#465,#569,.T.);
#372=EDGE_CURVE('',#410,#468,#570,.T.);
#373=EDGE_CURVE('',#468,#461,#571,.T.);
#374=EDGE_CURVE('',#469,#470,#572,.F.);
#375=EDGE_CURVE('',#470,#471,#573,.F.);
#376=EDGE_CURVE('',#472,#471,#574,.F.);
#377=EDGE_CURVE('',#472,#469,#575,.T.);
#378=EDGE_CURVE('',#473,#473,#29,.T.);
#379=EDGE_CURVE('',#474,#472,#576,.T.);
#380=EDGE_CURVE('',#471,#475,#30,.T.);
#381=EDGE_CURVE('',#475,#476,#31,.T.);
#382=EDGE_CURVE('',#477,#476,#577,.T.);
#383=EDGE_CURVE('',#477,#474,#578,.T.);
#384=EDGE_CURVE('',#478,#478,#32,.T.);
#385=EDGE_CURVE('',#469,#479,#579,.T.);
#386=EDGE_CURVE('',#479,#480,#580,.T.);
#387=EDGE_CURVE('',#480,#481,#581,.F.);
#388=EDGE_CURVE('',#481,#482,#582,.T.);
#389=EDGE_CURVE('',#482,#483,#33,.F.);
#390=EDGE_CURVE('',#483,#470,#34,.F.);
#391=EDGE_CURVE('',#481,#484,#583,.T.);
#392=EDGE_CURVE('',#484,#477,#584,.T.);
#393=EDGE_CURVE('',#476,#482,#585,.T.);
#394=EDGE_CURVE('',#483,#475,#586,.T.);
#395=EDGE_CURVE('',#463,#474,#587,.T.);
#396=EDGE_CURVE('',#409,#477,#588,.T.);
#397=EDGE_CURVE('',#410,#484,#589,.F.);
#398=EDGE_CURVE('',#468,#480,#590,.F.);
#399=EDGE_CURVE('',#479,#462,#591,.F.);
#400=EDGE_CURVE('',#420,#436,#592,.T.);
#401=EDGE_CURVE('',#485,#485,#35,.T.);
#402=EDGE_CURVE('',#486,#486,#36,.T.);
#403=EDGE_CURVE('',#487,#487,#37,.T.);
#404=EDGE_CURVE('',#488,#488,#38,.T.);
#405=VERTEX_POINT('',#1229);
#406=VERTEX_POINT('',#1230);
#407=VERTEX_POINT('',#1232);
#408=VERTEX_POINT('',#1234);
#409=VERTEX_POINT('',#1236);
#410=VERTEX_POINT('',#1238);
#411=VERTEX_POINT('',#1242);
#412=VERTEX_POINT('',#1243);
#413=VERTEX_POINT('',#1245);
#414=VERTEX_POINT('',#1247);
#415=VERTEX_POINT('',#1251);
#416=VERTEX_POINT('',#1252);
#417=VERTEX_POINT('',#1254);
#418=VERTEX_POINT('',#1258);
#419=VERTEX_POINT('',#1260);
#420=VERTEX_POINT('',#1262);
#421=VERTEX_POINT('',#1264);
#422=VERTEX_POINT('',#1266);
#423=VERTEX_POINT('',#1268);
#424=VERTEX_POINT('',#1270);
#425=VERTEX_POINT('',#1272);
#426=VERTEX_POINT('',#1274);
#427=VERTEX_POINT('',#1276);
#428=VERTEX_POINT('',#1278);
#429=VERTEX_POINT('',#1280);
#430=VERTEX_POINT('',#1282);
#431=VERTEX_POINT('',#1284);
#432=VERTEX_POINT('',#1286);
#433=VERTEX_POINT('',#1290);
#434=VERTEX_POINT('',#1291);
#435=VERTEX_POINT('',#1293);
#436=VERTEX_POINT('',#1295);
#437=VERTEX_POINT('',#1297);
#438=VERTEX_POINT('',#1299);
#439=VERTEX_POINT('',#1301);
#440=VERTEX_POINT('',#1303);
#441=VERTEX_POINT('',#1305);
#442=VERTEX_POINT('',#1307);
#443=VERTEX_POINT('',#1309);
#444=VERTEX_POINT('',#1311);
#445=VERTEX_POINT('',#1313);
#446=VERTEX_POINT('',#1315);
#447=VERTEX_POINT('',#1317);
#448=VERTEX_POINT('',#1319);
#449=VERTEX_POINT('',#1321);
#450=VERTEX_POINT('',#1323);
#451=VERTEX_POINT('',#1325);
#452=VERTEX_POINT('',#1350);
#453=VERTEX_POINT('',#1352);
#454=VERTEX_POINT('',#1356);
#455=VERTEX_POINT('',#1358);
#456=VERTEX_POINT('',#1362);
#457=VERTEX_POINT('',#1366);
#458=VERTEX_POINT('',#1368);
#459=VERTEX_POINT('',#1370);
#460=VERTEX_POINT('',#1372);
#461=VERTEX_POINT('',#1374);
#462=VERTEX_POINT('',#1375);
#463=VERTEX_POINT('',#1377);
#464=VERTEX_POINT('',#1383);
#465=VERTEX_POINT('',#1385);
#466=VERTEX_POINT('',#1387);
#467=VERTEX_POINT('',#1389);
#468=VERTEX_POINT('',#1404);
#469=VERTEX_POINT('',#1408);
#470=VERTEX_POINT('',#1409);
#471=VERTEX_POINT('',#1411);
#472=VERTEX_POINT('',#1413);
#473=VERTEX_POINT('',#1417);
#474=VERTEX_POINT('',#1419);
#475=VERTEX_POINT('',#1421);
#476=VERTEX_POINT('',#1423);
#477=VERTEX_POINT('',#1425);
#478=VERTEX_POINT('',#1429);
#479=VERTEX_POINT('',#1431);
#480=VERTEX_POINT('',#1433);
#481=VERTEX_POINT('',#1435);
#482=VERTEX_POINT('',#1437);
#483=VERTEX_POINT('',#1439);
#484=VERTEX_POINT('',#1444);
#485=VERTEX_POINT('',#1468);
#486=VERTEX_POINT('',#1472);
#487=VERTEX_POINT('',#1476);
#488=VERTEX_POINT('',#1480);
#489=LINE('',#1228,#593);
#490=LINE('',#1231,#594);
#491=LINE('',#1233,#595);
#492=LINE('',#1235,#596);
#493=LINE('',#1237,#597);
#494=LINE('',#1239,#598);
#495=LINE('',#1241,#599);
#496=LINE('',#1244,#600);
#497=LINE('',#1246,#601);
#498=LINE('',#1248,#602);
#499=LINE('',#1250,#603);
#500=LINE('',#1253,#604);
#501=LINE('',#1255,#605);
#502=LINE('',#1256,#606);
#503=LINE('',#1257,#607);
#504=LINE('',#1259,#608);
#505=LINE('',#1261,#609);
#506=LINE('',#1263,#610);
#507=LINE('',#1265,#611);
#508=LINE('',#1267,#612);
#509=LINE('',#1269,#613);
#510=LINE('',#1273,#614);
#511=LINE('',#1275,#615);
#512=LINE('',#1277,#616);
#513=LINE('',#1281,#617);
#514=LINE('',#1283,#618);
#515=LINE('',#1285,#619);
#516=LINE('',#1287,#620);
#517=LINE('',#1289,#621);
#518=LINE('',#1292,#622);
#519=LINE('',#1294,#623);
#520=LINE('',#1296,#624);
#521=LINE('',#1298,#625);
#522=LINE('',#1300,#626);
#523=LINE('',#1302,#627);
#524=LINE('',#1304,#628);
#525=LINE('',#1306,#629);
#526=LINE('',#1308,#630);
#527=LINE('',#1310,#631);
#528=LINE('',#1312,#632);
#529=LINE('',#1314,#633);
#530=LINE('',#1318,#634);
#531=LINE('',#1320,#635);
#532=LINE('',#1322,#636);
#533=LINE('',#1326,#637);
#534=LINE('',#1328,#638);
#535=LINE('',#1329,#639);
#536=LINE('',#1331,#640);
#537=LINE('',#1333,#641);
#538=LINE('',#1335,#642);
#539=LINE('',#1337,#643);
#540=LINE('',#1339,#644);
#541=LINE('',#1341,#645);
#542=LINE('',#1342,#646);
#543=LINE('',#1344,#647);
#544=LINE('',#1347,#648);
#545=LINE('',#1349,#649);
#546=LINE('',#1351,#650);
#547=LINE('',#1353,#651);
#548=LINE('',#1355,#652);
#549=LINE('',#1357,#653);
#550=LINE('',#1359,#654);
#551=LINE('',#1361,#655);
#552=LINE('',#1363,#656);
#553=LINE('',#1373,#657);
#554=LINE('',#1376,#658);
#555=LINE('',#1378,#659);
#556=LINE('',#1379,#660);
#557=LINE('',#1380,#661);
#558=LINE('',#1381,#662);
#559=LINE('',#1382,#663);
#560=LINE('',#1384,#664);
#561=LINE('',#1386,#665);
#562=LINE('',#1388,#666);
#563=LINE('',#1390,#667);
#564=LINE('',#1392,#668);
#565=LINE('',#1394,#669);
#566=LINE('',#1396,#670);
#567=LINE('',#1397,#671);
#568=LINE('',#1398,#672);
#569=LINE('',#1400,#673);
#570=LINE('',#1403,#674);
#571=LINE('',#1405,#675);
#572=LINE('',#1407,#676);
#573=LINE('',#1410,#677);
#574=LINE('',#1412,#678);
#575=LINE('',#1414,#679);
#576=LINE('',#1418,#680);
#577=LINE('',#1424,#681);
#578=LINE('',#1426,#682);
#579=LINE('',#1430,#683);
#580=LINE('',#1432,#684);
#581=LINE('',#1434,#685);
#582=LINE('',#1436,#686);
#583=LINE('',#1443,#687);
#584=LINE('',#1445,#688);
#585=LINE('',#1446,#689);
#586=LINE('',#1448,#690);
#587=LINE('',#1451,#691);
#588=LINE('',#1452,#692);
#589=LINE('',#1454,#693);
#590=LINE('',#1456,#694);
#591=LINE('',#1458,#695);
#592=LINE('',#1464,#696);
#593=VECTOR('',#990,1.);
#594=VECTOR('',#991,1.);
#595=VECTOR('',#992,1.);
#596=VECTOR('',#993,1.);
#597=VECTOR('',#994,1.);
#598=VECTOR('',#995,1.);
#599=VECTOR('',#998,1.);
#600=VECTOR('',#999,1.);
#601=VECTOR('',#1000,1.);
#602=VECTOR('',#1001,1.);
#603=VECTOR('',#1004,1.);
#604=VECTOR('',#1005,1.);
#605=VECTOR('',#1006,1.);
#606=VECTOR('',#1007,1.);
#607=VECTOR('',#1008,1.);
#608=VECTOR('',#1009,1.);
#609=VECTOR('',#1010,1.);
#610=VECTOR('',#1011,1.);
#611=VECTOR('',#1012,1.);
#612=VECTOR('',#1013,1.);
#613=VECTOR('',#1014,1.);
#614=VECTOR('',#1017,1.);
#615=VECTOR('',#1018,1.);
#616=VECTOR('',#1019,1.);
#617=VECTOR('',#1022,1.);
#618=VECTOR('',#1023,1.);
#619=VECTOR('',#1024,1.);
#620=VECTOR('',#1025,1.);
#621=VECTOR('',#1028,1.);
#622=VECTOR('',#1029,1.);
#623=VECTOR('',#1030,1.);
#624=VECTOR('',#1031,1.);
#625=VECTOR('',#1032,1.);
#626=VECTOR('',#1033,1.);
#627=VECTOR('',#1034,1.);
#628=VECTOR('',#1035,1.);
#629=VECTOR('',#1036,1.);
#630=VECTOR('',#1037,1.);
#631=VECTOR('',#1038,1.);
#632=VECTOR('',#1039,1.);
#633=VECTOR('',#1040,1.);
#634=VECTOR('',#1043,1.);
#635=VECTOR('',#1044,1.);
#636=VECTOR('',#1045,1.);
#637=VECTOR('',#1048,1.);
#638=VECTOR('',#1051,1.);
#639=VECTOR('',#1052,1.);
#640=VECTOR('',#1055,1.);
#641=VECTOR('',#1058,1.);
#642=VECTOR('',#1061,1.);
#643=VECTOR('',#1064,1.);
#644=VECTOR('',#1067,1.);
#645=VECTOR('',#1070,1.);
#646=VECTOR('',#1071,1.);
#647=VECTOR('',#1074,1.);
#648=VECTOR('',#1079,1.);
#649=VECTOR('',#1082,1.);
#650=VECTOR('',#1083,1.);
#651=VECTOR('',#1084,1.);
#652=VECTOR('',#1087,1.);
#653=VECTOR('',#1088,1.);
#654=VECTOR('',#1089,1.);
#655=VECTOR('',#1092,1.);
#656=VECTOR('',#1093,1.);
#657=VECTOR('',#1104,1.);
#658=VECTOR('',#1105,1.);
#659=VECTOR('',#1106,1.);
#660=VECTOR('',#1107,1.);
#661=VECTOR('',#1108,1.);
#662=VECTOR('',#1109,1.);
#663=VECTOR('',#1110,1.);
#664=VECTOR('',#1111,1.);
#665=VECTOR('',#1112,1.);
#666=VECTOR('',#1113,1.);
#667=VECTOR('',#1114,1.);
#668=VECTOR('',#1117,1.);
#669=VECTOR('',#1120,1.);
#670=VECTOR('',#1123,1.);
#671=VECTOR('',#1124,1.);
#672=VECTOR('',#1125,1.);
#673=VECTOR('',#1128,1.);
#674=VECTOR('',#1133,1.);
#675=VECTOR('',#1134,1.);
#676=VECTOR('',#1137,1.);
#677=VECTOR('',#1138,1.);
#678=VECTOR('',#1139,1.);
#679=VECTOR('',#1140,1.);
#680=VECTOR('',#1145,1.);
#681=VECTOR('',#1150,1.);
#682=VECTOR('',#1151,1.);
#683=VECTOR('',#1156,1.);
#684=VECTOR('',#1157,1.);
#685=VECTOR('',#1158,1.);
#686=VECTOR('',#1159,1.);
#687=VECTOR('',#1168,1.);
#688=VECTOR('',#1169,1.);
#689=VECTOR('',#1170,1.);
#690=VECTOR('',#1173,1.);
#691=VECTOR('',#1178,1.);
#692=VECTOR('',#1179,1.);
#693=VECTOR('',#1182,1.);
#694=VECTOR('',#1185,1.);
#695=VECTOR('',#1188,1.);
#696=VECTOR('',#1199,1.);
#697=EDGE_LOOP('',(#39,#40,#41,#42,#43,#44));
#698=EDGE_LOOP('',(#45,#46,#47,#48));
#699=EDGE_LOOP('',(#49,#50,#51,#52,#53,#54,#55,#56,#57,#58,#59,#60,#61,
#62,#63,#64,#65,#66,#67,#68,#69,#70));
#700=EDGE_LOOP('',(#71,#72,#73,#74,#75,#76,#77,#78,#79,#80,#81,#82,#83,
#84,#85,#86,#87,#88,#89));
#701=EDGE_LOOP('',(#90,#91,#92,#93));
#702=EDGE_LOOP('',(#94,#95,#96,#97));
#703=EDGE_LOOP('',(#98,#99,#100,#101));
#704=EDGE_LOOP('',(#102,#103,#104,#105));
#705=EDGE_LOOP('',(#106,#107,#108,#109));
#706=EDGE_LOOP('',(#110,#111,#112,#113));
#707=EDGE_LOOP('',(#114,#115,#116,#117));
#708=EDGE_LOOP('',(#118,#119,#120,#121));
#709=EDGE_LOOP('',(#122,#123,#124,#125));
#710=EDGE_LOOP('',(#126,#127,#128,#129));
#711=EDGE_LOOP('',(#130,#131,#132,#133));
#712=EDGE_LOOP('',(#134,#135,#136,#137,#138,#139));
#713=EDGE_LOOP('',(#140,#141,#142,#143));
#714=EDGE_LOOP('',(#144));
#715=EDGE_LOOP('',(#145));
#716=EDGE_LOOP('',(#146));
#717=EDGE_LOOP('',(#147));
#718=EDGE_LOOP('',(#148,#149,#150,#151,#152,#153,#154,#155,#156,#157,#158,
#159,#160,#161,#162,#163));
#719=EDGE_LOOP('',(#164,#165,#166,#167));
#720=EDGE_LOOP('',(#168,#169,#170,#171));
#721=EDGE_LOOP('',(#172,#173,#174,#175,#176,#177));
#722=EDGE_LOOP('',(#178,#179,#180,#181));
#723=EDGE_LOOP('',(#182,#183,#184,#185));
#724=EDGE_LOOP('',(#186,#187,#188,#189,#190,#191));
#725=EDGE_LOOP('',(#192,#193,#194,#195));
#726=EDGE_LOOP('',(#196));
#727=EDGE_LOOP('',(#197,#198,#199,#200,#201,#202));
#728=EDGE_LOOP('',(#203));
#729=EDGE_LOOP('',(#204,#205,#206,#207,#208,#209,#210));
#730=EDGE_LOOP('',(#211));
#731=EDGE_LOOP('',(#212));
#732=EDGE_LOOP('',(#213,#214,#215,#216,#217));
#733=EDGE_LOOP('',(#218,#219,#220,#221));
#734=EDGE_LOOP('',(#222,#223,#224,#225));
#735=EDGE_LOOP('',(#226,#227,#228,#229,#230));
#736=EDGE_LOOP('',(#231,#232,#233,#234));
#737=EDGE_LOOP('',(#235,#236,#237,#238,#239));
#738=EDGE_LOOP('',(#240,#241,#242,#243,#244));
#739=EDGE_LOOP('',(#245,#246,#247,#248));
#740=EDGE_LOOP('',(#249,#250,#251,#252));
#741=EDGE_LOOP('',(#253,#254,#255,#256,#257,#258));
#742=EDGE_LOOP('',(#259,#260,#261,#262));
#743=EDGE_LOOP('',(#263,#264,#265,#266));
#744=EDGE_LOOP('',(#267,#268,#269,#270));
#745=EDGE_LOOP('',(#271));
#746=EDGE_LOOP('',(#272));
#747=EDGE_LOOP('',(#273));
#748=EDGE_LOOP('',(#274));
#749=EDGE_LOOP('',(#275));
#750=EDGE_LOOP('',(#276));
#751=EDGE_LOOP('',(#277));
#752=EDGE_LOOP('',(#278));
#753=EDGE_LOOP('',(#279));
#754=EDGE_LOOP('',(#280));
#755=EDGE_LOOP('',(#281));
#756=EDGE_LOOP('',(#282));
#757=FACE_BOUND('',#697,.T.);
#758=FACE_BOUND('',#698,.T.);
#759=FACE_BOUND('',#699,.T.);
#760=FACE_BOUND('',#700,.T.);
#761=FACE_BOUND('',#701,.T.);
#762=FACE_BOUND('',#702,.T.);
#763=FACE_BOUND('',#703,.T.);
#764=FACE_BOUND('',#704,.T.);
#765=FACE_BOUND('',#705,.T.);
#766=FACE_BOUND('',#706,.T.);
#767=FACE_BOUND('',#707,.T.);
#768=FACE_BOUND('',#708,.T.);
#769=FACE_BOUND('',#709,.T.);
#770=FACE_BOUND('',#710,.T.);
#771=FACE_BOUND('',#711,.T.);
#772=FACE_BOUND('',#712,.T.);
#773=FACE_BOUND('',#713,.T.);
#774=FACE_BOUND('',#714,.T.);
#775=FACE_BOUND('',#715,.T.);
#776=FACE_BOUND('',#716,.T.);
#777=FACE_BOUND('',#717,.T.);
#778=FACE_BOUND('',#718,.T.);
#779=FACE_BOUND('',#719,.T.);
#780=FACE_BOUND('',#720,.T.);
#781=FACE_BOUND('',#721,.T.);
#782=FACE_BOUND('',#722,.T.);
#783=FACE_BOUND('',#723,.T.);
#784=FACE_BOUND('',#724,.T.);
#785=FACE_BOUND('',#725,.T.);
#786=FACE_BOUND('',#726,.T.);
#787=FACE_BOUND('',#727,.T.);
#788=FACE_BOUND('',#728,.T.);
#789=FACE_BOUND('',#729,.T.);
#790=FACE_BOUND('',#730,.T.);
#791=FACE_BOUND('',#731,.T.);
#792=FACE_BOUND('',#732,.T.);
#793=FACE_BOUND('',#733,.T.);
#794=FACE_BOUND('',#734,.T.);
#795=FACE_BOUND('',#735,.T.);
#796=FACE_BOUND('',#736,.T.);
#797=FACE_BOUND('',#737,.T.);
#798=FACE_BOUND('',#738,.T.);
#799=FACE_BOUND('',#739,.T.);
#800=FACE_BOUND('',#740,.T.);
#801=FACE_BOUND('',#741,.T.);
#802=FACE_BOUND('',#742,.T.);
#803=FACE_BOUND('',#743,.T.);
#804=FACE_BOUND('',#744,.T.);
#805=FACE_BOUND('',#745,.T.);
#806=FACE_BOUND('',#746,.T.);
#807=FACE_BOUND('',#747,.T.);
#808=FACE_BOUND('',#748,.T.);
#809=FACE_BOUND('',#749,.T.);
#810=FACE_BOUND('',#750,.T.);
#811=FACE_BOUND('',#751,.T.);
#812=FACE_BOUND('',#752,.T.);
#813=FACE_BOUND('',#753,.T.);
#814=FACE_BOUND('',#754,.T.);
#815=FACE_BOUND('',#755,.T.);
#816=FACE_BOUND('',#756,.T.);
#817=PLANE('',#919);
#818=PLANE('',#920);
#819=PLANE('',#921);
#820=PLANE('',#924);
#821=PLANE('',#928);
#822=PLANE('',#929);
#823=PLANE('',#930);
#824=PLANE('',#931);
#825=PLANE('',#932);
#826=PLANE('',#933);
#827=PLANE('',#934);
#828=PLANE('',#936);
#829=PLANE('',#937);
#830=PLANE('',#938);
#831=PLANE('',#939);
#832=PLANE('',#940);
#833=PLANE('',#945);
#834=PLANE('',#946);
#835=PLANE('',#947);
#836=PLANE('',#948);
#837=PLANE('',#949);
#838=PLANE('',#950);
#839=PLANE('',#951);
#840=PLANE('',#952);
#841=PLANE('',#956);
#842=PLANE('',#961);
#843=PLANE('',#964);
#844=PLANE('',#965);
#845=PLANE('',#966);
#846=PLANE('',#967);
#847=PLANE('',#968);
#848=PLANE('',#969);
#849=PLANE('',#970);
#850=PLANE('',#971);
#851=PLANE('',#972);
#852=PLANE('',#973);
#853=PLANE('',#976);
#854=PLANE('',#979);
#855=PLANE('',#982);
#856=PLANE('',#985);
#857=ADVANCED_FACE('',(#757),#817,.F.);
#858=ADVANCED_FACE('',(#758),#818,.T.);
#859=ADVANCED_FACE('',(#759),#819,.T.);
#860=ADVANCED_FACE('',(#760),#820,.F.);
#861=ADVANCED_FACE('',(#761),#12,.F.);
#862=ADVANCED_FACE('',(#762),#821,.T.);
#863=ADVANCED_FACE('',(#763),#822,.F.);
#864=ADVANCED_FACE('',(#764),#823,.T.);
#865=ADVANCED_FACE('',(#765),#824,.T.);
#866=ADVANCED_FACE('',(#766),#825,.T.);
#867=ADVANCED_FACE('',(#767),#826,.F.);
#868=ADVANCED_FACE('',(#768),#827,.T.);
#869=ADVANCED_FACE('',(#769),#13,.F.);
#870=ADVANCED_FACE('',(#770),#828,.T.);
#871=ADVANCED_FACE('',(#771),#829,.T.);
#872=ADVANCED_FACE('',(#772),#830,.F.);
#873=ADVANCED_FACE('',(#773),#831,.F.);
#874=ADVANCED_FACE('',(#774,#775,#776,#777,#778),#832,.T.);
#875=ADVANCED_FACE('',(#779),#833,.F.);
#876=ADVANCED_FACE('',(#780),#834,.F.);
#877=ADVANCED_FACE('',(#781),#835,.T.);
#878=ADVANCED_FACE('',(#782),#836,.T.);
#879=ADVANCED_FACE('',(#783),#837,.T.);
#880=ADVANCED_FACE('',(#784),#838,.F.);
#881=ADVANCED_FACE('',(#785),#839,.F.);
#882=ADVANCED_FACE('',(#786,#787),#840,.T.);
#883=ADVANCED_FACE('',(#788,#789),#841,.F.);
#884=ADVANCED_FACE('',(#790,#791),#14,.F.);
#885=ADVANCED_FACE('',(#792),#842,.F.);
#886=ADVANCED_FACE('',(#793),#15,.T.);
#887=ADVANCED_FACE('',(#794),#16,.T.);
#888=ADVANCED_FACE('',(#795),#843,.F.);
#889=ADVANCED_FACE('',(#796),#844,.T.);
#890=ADVANCED_FACE('',(#797),#845,.T.);
#891=ADVANCED_FACE('',(#798),#846,.T.);
#892=ADVANCED_FACE('',(#799),#847,.F.);
#893=ADVANCED_FACE('',(#800),#848,.T.);
#894=ADVANCED_FACE('',(#801),#849,.T.);
#895=ADVANCED_FACE('',(#802),#850,.F.);
#896=ADVANCED_FACE('',(#803),#851,.T.);
#897=ADVANCED_FACE('',(#804),#852,.T.);
#898=ADVANCED_FACE('',(#805,#806),#17,.F.);
#899=ADVANCED_FACE('',(#807),#853,.T.);
#900=ADVANCED_FACE('',(#808,#809),#18,.F.);
#901=ADVANCED_FACE('',(#810),#854,.T.);
#902=ADVANCED_FACE('',(#811,#812),#19,.F.);
#903=ADVANCED_FACE('',(#813),#855,.T.);
#904=ADVANCED_FACE('',(#814,#815),#20,.F.);
#905=ADVANCED_FACE('',(#816),#856,.T.);
#906=CLOSED_SHELL('',(#857,#858,#859,#860,#861,#862,#863,#864,#865,#866,
#867,#868,#869,#870,#871,#872,#873,#874,#875,#876,#877,#878,#879,#880,#881,
#882,#883,#884,#885,#886,#887,#888,#889,#890,#891,#892,#893,#894,#895,#896,
#897,#898,#899,#900,#901,#902,#903,#904,#905));
#907=STYLED_ITEM('',(#908),#915);
#908=PRESENTATION_STYLE_ASSIGNMENT((#909));
#909=SURFACE_STYLE_USAGE(.BOTH.,#910);
#910=SURFACE_SIDE_STYLE('',(#911));
#911=SURFACE_STYLE_FILL_AREA(#912);
#912=FILL_AREA_STYLE('',(#913));
#913=FILL_AREA_STYLE_COLOUR('',#914);
#914=COLOUR_RGB('',0.647058823529412,0.647058823529412,0.647058823529412);
#915=MANIFOLD_SOLID_BREP('Case',#906);
#916=SHAPE_DEFINITION_REPRESENTATION(#1488,#917);
#917=SHAPE_REPRESENTATION('Case',(#918),#1483);
#918=AXIS2_PLACEMENT_3D('',#1226,#986,#987);
#919=AXIS2_PLACEMENT_3D('',#1227,#988,#989);
#920=AXIS2_PLACEMENT_3D('',#1240,#996,#997);
#921=AXIS2_PLACEMENT_3D('',#1249,#1002,#1003);
#922=AXIS2_PLACEMENT_3D('',#1271,#1015,#1016);
#923=AXIS2_PLACEMENT_3D('',#1279,#1020,#1021);
#924=AXIS2_PLACEMENT_3D('',#1288,#1026,#1027);
#925=AXIS2_PLACEMENT_3D('',#1316,#1041,#1042);
#926=AXIS2_PLACEMENT_3D('',#1324,#1046,#1047);
#927=AXIS2_PLACEMENT_3D('',#1327,#1049,#1050);
#928=AXIS2_PLACEMENT_3D('',#1330,#1053,#1054);
#929=AXIS2_PLACEMENT_3D('',#1332,#1056,#1057);
#930=AXIS2_PLACEMENT_3D('',#1334,#1059,#1060);
#931=AXIS2_PLACEMENT_3D('',#1336,#1062,#1063);
#932=AXIS2_PLACEMENT_3D('',#1338,#1065,#1066);
#933=AXIS2_PLACEMENT_3D('',#1340,#1068,#1069);
#934=AXIS2_PLACEMENT_3D('',#1343,#1072,#1073);
#935=AXIS2_PLACEMENT_3D('',#1345,#1075,#1076);
#936=AXIS2_PLACEMENT_3D('',#1346,#1077,#1078);
#937=AXIS2_PLACEMENT_3D('',#1348,#1080,#1081);
#938=AXIS2_PLACEMENT_3D('',#1354,#1085,#1086);
#939=AXIS2_PLACEMENT_3D('',#1360,#1090,#1091);
#940=AXIS2_PLACEMENT_3D('',#1364,#1094,#1095);
#941=AXIS2_PLACEMENT_3D('',#1365,#1096,#1097);
#942=AXIS2_PLACEMENT_3D('',#1367,#1098,#1099);
#943=AXIS2_PLACEMENT_3D('',#1369,#1100,#1101);
#944=AXIS2_PLACEMENT_3D('',#1371,#1102,#1103);
#945=AXIS2_PLACEMENT_3D('',#1391,#1115,#1116);
#946=AXIS2_PLACEMENT_3D('',#1393,#1118,#1119);
#947=AXIS2_PLACEMENT_3D('',#1395,#1121,#1122);
#948=AXIS2_PLACEMENT_3D('',#1399,#1126,#1127);
#949=AXIS2_PLACEMENT_3D('',#1401,#1129,#1130);
#950=AXIS2_PLACEMENT_3D('',#1402,#1131,#1132);
#951=AXIS2_PLACEMENT_3D('',#1406,#1135,#1136);
#952=AXIS2_PLACEMENT_3D('',#1415,#1141,#1142);
#953=AXIS2_PLACEMENT_3D('',#1416,#1143,#1144);
#954=AXIS2_PLACEMENT_3D('',#1420,#1146,#1147);
#955=AXIS2_PLACEMENT_3D('',#1422,#1148,#1149);
#956=AXIS2_PLACEMENT_3D('',#1427,#1152,#1153);
#957=AXIS2_PLACEMENT_3D('',#1428,#1154,#1155);
#958=AXIS2_PLACEMENT_3D('',#1438,#1160,#1161);
#959=AXIS2_PLACEMENT_3D('',#1440,#1162,#1163);
#960=AXIS2_PLACEMENT_3D('',#1441,#1164,#1165);
#961=AXIS2_PLACEMENT_3D('',#1442,#1166,#1167);
#962=AXIS2_PLACEMENT_3D('',#1447,#1171,#1172);
#963=AXIS2_PLACEMENT_3D('',#1449,#1174,#1175);
#964=AXIS2_PLACEMENT_3D('',#1450,#1176,#1177);
#965=AXIS2_PLACEMENT_3D('',#1453,#1180,#1181);
#966=AXIS2_PLACEMENT_3D('',#1455,#1183,#1184);
#967=AXIS2_PLACEMENT_3D('',#1457,#1186,#1187);
#968=AXIS2_PLACEMENT_3D('',#1459,#1189,#1190);
#969=AXIS2_PLACEMENT_3D('',#1460,#1191,#1192);
#970=AXIS2_PLACEMENT_3D('',#1461,#1193,#1194);
#971=AXIS2_PLACEMENT_3D('',#1462,#1195,#1196);
#972=AXIS2_PLACEMENT_3D('',#1463,#1197,#1198);
#973=AXIS2_PLACEMENT_3D('',#1465,#1200,#1201);
#974=AXIS2_PLACEMENT_3D('',#1466,#1202,#1203);
#975=AXIS2_PLACEMENT_3D('',#1467,#1204,#1205);
#976=AXIS2_PLACEMENT_3D('',#1469,#1206,#1207);
#977=AXIS2_PLACEMENT_3D('',#1470,#1208,#1209);
#978=AXIS2_PLACEMENT_3D('',#1471,#1210,#1211);
#979=AXIS2_PLACEMENT_3D('',#1473,#1212,#1213);
#980=AXIS2_PLACEMENT_3D('',#1474,#1214,#1215);
#981=AXIS2_PLACEMENT_3D('',#1475,#1216,#1217);
#982=AXIS2_PLACEMENT_3D('',#1477,#1218,#1219);
#983=AXIS2_PLACEMENT_3D('',#1478,#1220,#1221);
#984=AXIS2_PLACEMENT_3D('',#1479,#1222,#1223);
#985=AXIS2_PLACEMENT_3D('',#1481,#1224,#1225);
#986=DIRECTION('',(0.,0.,1.));
#987=DIRECTION('',(1.,0.,0.));
#988=DIRECTION('',(0.,-1.,0.));
#989=DIRECTION('',(0.,0.,-1.));
#990=DIRECTION('',(-1.,0.,0.));
#991=DIRECTION('',(0.,0.,1.));
#992=DIRECTION('',(-1.,0.,0.));
#993=DIRECTION('',(0.,0.,-1.));
#994=DIRECTION('',(1.,0.,0.));
#995=DIRECTION('',(0.,0.,-1.));
#996=DIRECTION('',(1.,0.,0.));
#997=DIRECTION('',(0.,0.,-1.));
#998=DIRECTION('',(0.,1.,0.));
#999=DIRECTION('',(0.,0.,-1.));
#1000=DIRECTION('',(0.,1.,0.));
#1001=DIRECTION('',(0.,0.,1.));
#1002=DIRECTION('',(0.,0.,1.));
#1003=DIRECTION('',(1.,0.,0.));
#1004=DIRECTION('',(0.707106781186548,-0.707106781186548,0.));
#1005=DIRECTION('',(1.,0.,0.));
#1006=DIRECTION('',(0.707106781186548,0.707106781186548,0.));
#1007=DIRECTION('',(0.707106781186548,-0.707106781186547,0.));
#1008=DIRECTION('',(-0.985837960120808,-0.167700674968363,0.));
#1009=DIRECTION('',(-1.14336422688682E-16,1.,0.));
#1010=DIRECTION('',(-1.,-1.14336422688682E-16,0.));
#1011=DIRECTION('',(1.14336422688682E-16,-1.,0.));
#1012=DIRECTION('',(-1.,-1.14336422688682E-16,0.));
#1013=DIRECTION('',(0.,1.,0.));
#1014=DIRECTION('',(1.,0.,0.));
#1015=DIRECTION('',(0.,0.,-1.));
#1016=DIRECTION('',(1.,0.,0.));
#1017=DIRECTION('',(1.,0.,0.));
#1018=DIRECTION('',(-1.14336422688682E-16,1.,0.));
#1019=DIRECTION('',(1.,0.,0.));
#1020=DIRECTION('',(0.,0.,1.));
#1021=DIRECTION('',(1.,0.,0.));
#1022=DIRECTION('',(1.,0.,0.));
#1023=DIRECTION('',(0.,-1.,0.));
#1024=DIRECTION('',(-1.,-1.14336422688682E-16,0.));
#1025=DIRECTION('',(0.,1.,0.));
#1026=DIRECTION('',(0.,0.,1.));
#1027=DIRECTION('',(1.,0.,0.));
#1028=DIRECTION('',(0.,-1.,0.));
#1029=DIRECTION('',(-1.,-1.14336422688682E-16,0.));
#1030=DIRECTION('',(1.14336422688682E-16,-1.,0.));
#1031=DIRECTION('',(-1.,-1.14336422688682E-16,0.));
#1032=DIRECTION('',(-1.14336422688682E-16,1.,0.));
#1033=DIRECTION('',(-0.985837960120808,-0.167700674968363,0.));
#1034=DIRECTION('',(-1.,0.,0.));
#1035=DIRECTION('',(0.,-1.,0.));
#1036=DIRECTION('',(-1.,0.,0.));
#1037=DIRECTION('',(0.,1.,0.));
#1038=DIRECTION('',(-1.,-1.14336422688682E-16,0.));
#1039=DIRECTION('',(0.,1.,0.));
#1040=DIRECTION('',(-1.,0.,0.));
#1041=DIRECTION('',(0.,0.,1.));
#1042=DIRECTION('',(1.,0.,0.));
#1043=DIRECTION('',(-1.,0.,0.));
#1044=DIRECTION('',(-1.14336422688682E-16,1.,0.));
#1045=DIRECTION('',(-1.,0.,0.));
#1046=DIRECTION('',(0.,0.,-1.));
#1047=DIRECTION('',(1.,0.,0.));
#1048=DIRECTION('',(-1.,0.,0.));
#1049=DIRECTION('',(0.,0.,1.));
#1050=DIRECTION('',(1.,0.,0.));
#1051=DIRECTION('',(0.,0.,1.));
#1052=DIRECTION('',(0.,0.,1.));
#1053=DIRECTION('',(0.,1.,0.));
#1054=DIRECTION('',(0.,0.,-1.));
#1055=DIRECTION('',(0.,0.,1.));
#1056=DIRECTION('',(-1.,0.,0.));
#1057=DIRECTION('',(0.,0.,1.));
#1058=DIRECTION('',(0.,0.,1.));
#1059=DIRECTION('',(0.,1.,0.));
#1060=DIRECTION('',(0.,0.,-1.));
#1061=DIRECTION('',(0.,0.,1.));
#1062=DIRECTION('',(1.,1.14336422688682E-16,0.));
#1063=DIRECTION('',(-1.14336422688682E-16,1.,0.));
#1064=DIRECTION('',(0.,0.,1.));
#1065=DIRECTION('',(0.,-1.,0.));
#1066=DIRECTION('',(0.,0.,-1.));
#1067=DIRECTION('',(0.,0.,1.));
#1068=DIRECTION('',(-1.,0.,0.));
#1069=DIRECTION('',(0.,0.,1.));
#1070=DIRECTION('',(0.,0.,1.));
#1071=DIRECTION('',(0.,0.,1.));
#1072=DIRECTION('',(0.,-1.,0.));
#1073=DIRECTION('',(0.,0.,-1.));
#1074=DIRECTION('',(0.,0.,1.));
#1075=DIRECTION('',(0.,0.,1.));
#1076=DIRECTION('',(1.,0.,0.));
#1077=DIRECTION('',(1.14336422688682E-16,-1.,0.));
#1078=DIRECTION('',(1.,1.14336422688682E-16,0.));
#1079=DIRECTION('',(0.,0.,-1.));
#1080=DIRECTION('',(0.,-1.,0.));
#1081=DIRECTION('',(0.,0.,-1.));
#1082=DIRECTION('',(0.,0.,-1.));
#1083=DIRECTION('',(-1.,0.,0.));
#1084=DIRECTION('',(0.,0.,-1.));
#1085=DIRECTION('',(-1.,0.,0.));
#1086=DIRECTION('',(0.,0.,1.));
#1087=DIRECTION('',(0.,0.,-1.));
#1088=DIRECTION('',(0.,1.,0.));
#1089=DIRECTION('',(0.,0.,-1.));
#1090=DIRECTION('',(0.,-1.,0.));
#1091=DIRECTION('',(0.,0.,-1.));
#1092=DIRECTION('',(0.,0.,-1.));
#1093=DIRECTION('',(-1.,0.,0.));
#1094=DIRECTION('',(0.,0.,1.));
#1095=DIRECTION('',(1.,0.,0.));
#1096=DIRECTION('',(0.,0.,1.));
#1097=DIRECTION('',(1.,0.,0.));
#1098=DIRECTION('',(0.,0.,1.));
#1099=DIRECTION('',(1.,0.,0.));
#1100=DIRECTION('',(0.,0.,1.));
#1101=DIRECTION('',(1.,0.,0.));
#1102=DIRECTION('',(0.,0.,1.));
#1103=DIRECTION('',(1.,0.,0.));
#1104=DIRECTION('',(0.624694468016298,-0.780869273073179,0.));
#1105=DIRECTION('',(-1.,0.,0.));
#1106=DIRECTION('',(-0.581238193719096,-0.813733471206735,0.));
#1107=DIRECTION('',(-0.707106781186548,0.707106781186547,0.));
#1108=DIRECTION('',(-0.707106781186548,-0.707106781186548,0.));
#1109=DIRECTION('',(0.707106781186548,-0.707106781186548,0.));
#1110=DIRECTION('',(0.,-1.,0.));
#1111=DIRECTION('',(1.,0.,0.));
#1112=DIRECTION('',(0.985837960120808,0.167700674968363,0.));
#1113=DIRECTION('',(0.,1.,0.));
#1114=DIRECTION('',(-0.985837960120808,-0.167700674968363,0.));
#1115=DIRECTION('',(1.,0.,0.));
#1116=DIRECTION('',(0.,0.,-1.));
#1117=DIRECTION('',(0.,0.,1.));
#1118=DIRECTION('',(1.14336422688682E-16,-1.,0.));
#1119=DIRECTION('',(1.,1.14336422688682E-16,0.));
#1120=DIRECTION('',(0.,0.,-1.));
#1121=DIRECTION('',(1.,1.14336422688682E-16,0.));
#1122=DIRECTION('',(-1.14336422688682E-16,1.,0.));
#1123=DIRECTION('',(0.,0.,-1.));
#1124=DIRECTION('',(0.,0.,1.));
#1125=DIRECTION('',(0.,0.,1.));
#1126=DIRECTION('',(0.167700674968363,-0.985837960120808,0.));
#1127=DIRECTION('',(0.985837960120808,0.167700674968363,0.));
#1128=DIRECTION('',(0.,0.,1.));
#1129=DIRECTION('',(0.,-1.,0.));
#1130=DIRECTION('',(0.,0.,-1.));
#1131=DIRECTION('',(0.167700674968363,-0.985837960120808,0.));
#1132=DIRECTION('',(0.985837960120808,0.167700674968363,0.));
#1133=DIRECTION('',(0.985837960120808,0.167700674968363,0.));
#1134=DIRECTION('',(0.,0.,1.));
#1135=DIRECTION('',(0.,0.,-1.));
#1136=DIRECTION('',(-1.,0.,0.));
#1137=DIRECTION('',(0.,-1.,0.));
#1138=DIRECTION('',(1.,0.,0.));
#1139=DIRECTION('',(0.,-1.,0.));
#1140=DIRECTION('',(1.,0.,0.));
#1141=DIRECTION('',(-1.,0.,0.));
#1142=DIRECTION('',(0.,-1.,0.));
#1143=DIRECTION('',(1.,0.,0.));
#1144=DIRECTION('',(0.,0.,-1.));
#1145=DIRECTION('',(0.,0.627752451189782,-0.77841303947533));
#1146=DIRECTION('',(-1.,0.,0.));
#1147=DIRECTION('',(0.,0.,1.));
#1148=DIRECTION('',(-1.,0.,0.));
#1149=DIRECTION('',(0.,0.,1.));
#1150=DIRECTION('',(0.,1.,0.));
#1151=DIRECTION('',(0.,0.,1.));
#1152=DIRECTION('',(-1.,0.,0.));
#1153=DIRECTION('',(0.,-1.,0.));
#1154=DIRECTION('',(1.,0.,0.));
#1155=DIRECTION('',(0.,0.,-1.));
#1156=DIRECTION('',(0.,-0.627752451189782,0.77841303947533));
#1157=DIRECTION('',(0.,0.,-1.));
#1158=DIRECTION('',(0.,-0.817626955153849,-0.575748349720471));
#1159=DIRECTION('',(0.,1.,0.));
#1160=DIRECTION('',(-1.,0.,0.));
#1161=DIRECTION('',(0.,0.,1.));
#1162=DIRECTION('',(-1.,0.,0.));
#1163=DIRECTION('',(0.,0.,1.));
#1164=DIRECTION('',(1.,0.,0.));
#1165=DIRECTION('',(0.,0.,-1.));
#1166=DIRECTION('',(0.,0.,1.));
#1167=DIRECTION('',(1.,0.,0.));
#1168=DIRECTION('',(-0.985837960120808,-0.167700674968363,0.));
#1169=DIRECTION('',(-1.,0.,0.));
#1170=DIRECTION('',(1.,0.,0.));
#1171=DIRECTION('',(-1.,0.,0.));
#1172=DIRECTION('',(0.,0.,1.));
#1173=DIRECTION('',(-1.,0.,0.));
#1174=DIRECTION('',(-1.,0.,0.));
#1175=DIRECTION('',(0.,0.,1.));
#1176=DIRECTION('',(0.813733471206735,-0.581238193719096,0.));
#1177=DIRECTION('',(0.,0.,1.));
#1178=DIRECTION('',(0.409146123873673,0.572804573423143,-0.710277671044698));
#1179=DIRECTION('',(0.502518907629606,0.703526470681449,0.502518907629607));
#1180=DIRECTION('',(0.,0.581238193719097,-0.813733471206735));
#1181=DIRECTION('',(-1.,0.,0.));
#1182=DIRECTION('',(0.068556743283327,-0.81181893430048,-0.579870667357486));
#1183=DIRECTION('',(-0.0974740374040845,0.573006675240337,-0.813733471206735));
#1184=DIRECTION('',(-0.985837960120808,-0.167700674968363,0.));
#1185=DIRECTION('',(0.529812589280216,-0.662266744205373,-0.529812589280217));
#1186=DIRECTION('',(0.780869273073179,0.624694468016298,0.));
#1187=DIRECTION('',(0.,0.,-1.));
#1188=DIRECTION('',(-0.448786563582245,0.560984057986463,-0.695620231903214));
#1189=DIRECTION('',(-0.707106781186547,-0.707106781186548,0.));
#1190=DIRECTION('',(0.,0.,-1.));
#1191=DIRECTION('',(0.707106781186548,-0.707106781186548,0.));
#1192=DIRECTION('',(0.,0.,1.));
#1193=DIRECTION('',(0.,0.77841303947533,0.627752451189781));
#1194=DIRECTION('',(-1.,0.,0.));
#1195=DIRECTION('',(0.707106781186548,0.707106781186548,0.));
#1196=DIRECTION('',(-0.707106781186548,0.707106781186548,0.));
#1197=DIRECTION('',(-1.,-1.14336422688682E-16,0.));
#1198=DIRECTION('',(1.14336422688682E-16,-1.,0.));
#1199=DIRECTION('',(0.,0.,-1.));
#1200=DIRECTION('',(-1.14336422688682E-16,1.,0.));
#1201=DIRECTION('',(-1.,-1.14336422688682E-16,0.));
#1202=DIRECTION('',(0.,0.,1.));
#1203=DIRECTION('',(1.,0.,0.));
#1204=DIRECTION('',(0.,0.,1.));
#1205=DIRECTION('',(1.,0.,0.));
#1206=DIRECTION('',(0.,0.,1.));
#1207=DIRECTION('',(1.,0.,0.));
#1208=DIRECTION('',(0.,0.,1.));
#1209=DIRECTION('',(1.,0.,0.));
#1210=DIRECTION('',(0.,0.,1.));
#1211=DIRECTION('',(1.,0.,0.));
#1212=DIRECTION('',(0.,0.,1.));
#1213=DIRECTION('',(1.,0.,0.));
#1214=DIRECTION('',(0.,0.,1.));
#1215=DIRECTION('',(1.,0.,0.));
#1216=DIRECTION('',(0.,0.,1.));
#1217=DIRECTION('',(1.,0.,0.));
#1218=DIRECTION('',(0.,0.,1.));
#1219=DIRECTION('',(1.,0.,0.));
#1220=DIRECTION('',(0.,0.,1.));
#1221=DIRECTION('',(1.,0.,0.));
#1222=DIRECTION('',(0.,0.,1.));
#1223=DIRECTION('',(1.,0.,0.));
#1224=DIRECTION('',(0.,0.,1.));
#1225=DIRECTION('',(1.,0.,0.));
#1226=CARTESIAN_POINT('',(0.,0.,0.));
#1227=CARTESIAN_POINT('',(0.0358939059078694,-0.0489,0.135202));
#1228=CARTESIAN_POINT('',(0.0358939059078694,-0.0489,0.0294));
#1229=CARTESIAN_POINT('',(0.039515478226025,-0.0489,0.0294));
#1230=CARTESIAN_POINT('',(-0.0688604928851128,-0.0489,0.0294));
#1231=CARTESIAN_POINT('',(-0.0688604928851128,-0.0489,0.135202));
#1232=CARTESIAN_POINT('',(-0.0688604928851128,-0.0489,0.1352));
#1233=CARTESIAN_POINT('',(0.0358939059078694,-0.0489,0.1352));
#1234=CARTESIAN_POINT('',(0.0307252920269966,-0.0489,0.1352));
#1235=CARTESIAN_POINT('',(0.0307252920269966,-0.0489,0.135202));
#1236=CARTESIAN_POINT('',(0.0307252920269966,-0.0489,0.108645123359449));
#1237=CARTESIAN_POINT('',(0.039515478226025,-0.0489,0.108645123359449));
#1238=CARTESIAN_POINT('',(0.039515478226025,-0.0489,0.108645123359449));
#1239=CARTESIAN_POINT('',(0.039515478226025,-0.0489,0.135202));
#1240=CARTESIAN_POINT('',(-0.0758604928851128,-0.0403512227196694,0.0823));
#1241=CARTESIAN_POINT('',(-0.0758604928851128,-0.0403512227196694,0.1352));
#1242=CARTESIAN_POINT('',(-0.0758604928851128,-0.0419,0.1352));
#1243=CARTESIAN_POINT('',(-0.0758604928851128,0.0369348362311721,0.1352));
#1244=CARTESIAN_POINT('',(-0.0758604928851128,-0.0419,0.0823));
#1245=CARTESIAN_POINT('',(-0.0758604928851128,-0.0419,0.0294));
#1246=CARTESIAN_POINT('',(-0.0758604928851128,-0.0403512227196694,0.0294));
#1247=CARTESIAN_POINT('',(-0.0758604928851128,0.0369348362311721,0.0294));
#1248=CARTESIAN_POINT('',(-0.0758604928851128,0.0369348362311721,0.1352));
#1249=CARTESIAN_POINT('',(-0.0379302464425564,-0.0167731342934072,0.0294));
#1250=CARTESIAN_POINT('',(-0.0035,0.0404348362311721,0.0294));
#1251=CARTESIAN_POINT('',(-0.007,0.0439348362311721,0.0294));
#1252=CARTESIAN_POINT('',(0.,0.0369348362311721,0.0294));
#1253=CARTESIAN_POINT('',(-0.0379302464425564,0.0439348362311721,0.0294));
#1254=CARTESIAN_POINT('',(-0.0688604928851128,0.0439348362311721,0.0294));
#1255=CARTESIAN_POINT('',(-0.0837493549261242,0.0290459741901606,0.0294));
#1256=CARTESIAN_POINT('',(-0.069458802517131,-0.0483016903679818,0.0294));
#1257=CARTESIAN_POINT('',(0.0514218405936728,-0.0468746113598347,0.0294));
#1258=CARTESIAN_POINT('',(0.0897817090153694,-0.0403492227196693,0.0294));
#1259=CARTESIAN_POINT('',(0.0897817090153694,-0.0403512227196694,0.0294));
#1260=CARTESIAN_POINT('',(0.0897817090153694,-0.0177046991884708,0.0294));
#1261=CARTESIAN_POINT('',(0.0897837090153694,-0.0177046991884708,0.0294));
#1262=CARTESIAN_POINT('',(8.23938080430707E-7,-0.0177046991884708,0.0294));
#1263=CARTESIAN_POINT('',(8.23938080430706E-7,-0.0177026991884708,0.0294));
#1264=CARTESIAN_POINT('',(8.23938080430914E-7,-0.0195151637688279,0.0294));
#1265=CARTESIAN_POINT('',(0.0897837090153694,-0.0195151637688279,0.0294));
#1266=CARTESIAN_POINT('',(-0.032137000966316,-0.0195151637688279,0.0294));
#1267=CARTESIAN_POINT('',(-0.032137000966316,-0.0175862959028221,0.0294));
#1268=CARTESIAN_POINT('',(-0.032137000966316,-0.0156574280368164,0.0294));
#1269=CARTESIAN_POINT('',(-0.0457949033172158,-0.0156574280368164,0.0294));
#1270=CARTESIAN_POINT('',(-0.0594528056681156,-0.0156574280368164,0.0294));
#1271=CARTESIAN_POINT('',(-0.0587279689314548,-0.0106385035574436,0.0294));
#1272=CARTESIAN_POINT('',(-0.0637989640235901,-0.0106385035574436,0.0294));
#1273=CARTESIAN_POINT('',(-0.0681147284543514,-0.0106385035574436,0.0294));
#1274=CARTESIAN_POINT('',(-0.0724304928851128,-0.0106385035574436,0.0294));
#1275=CARTESIAN_POINT('',(-0.0724304928851128,-0.0403512227196694,0.0294));
#1276=CARTESIAN_POINT('',(-0.0724304928851128,-0.00434182398021221,0.0294));
#1277=CARTESIAN_POINT('',(-0.0681147284543514,-0.00434182398021221,0.0294));
#1278=CARTESIAN_POINT('',(-0.0637989640235901,-0.00434182398021221,0.0294));
#1279=CARTESIAN_POINT('',(-0.0587279689314548,-0.00434182398021224,0.0294));
#1280=CARTESIAN_POINT('',(-0.0594528056681156,0.000677100499160584,0.0294));
#1281=CARTESIAN_POINT('',(-0.0457949033172158,0.000677100499160588,0.0294));
#1282=CARTESIAN_POINT('',(-0.032137000966316,0.000677100499160588,0.0294));
#1283=CARTESIAN_POINT('',(-0.032137000966316,0.00260596836516634,0.0294));
#1284=CARTESIAN_POINT('',(-0.032137000966316,0.00453483623117209,0.0294));
#1285=CARTESIAN_POINT('',(-0.0379302464425564,0.00453483623117209,0.0294));
#1286=CARTESIAN_POINT('',(0.,0.0045348362311721,0.0294));
#1287=CARTESIAN_POINT('',(0.,-0.0630651637688279,0.0294));
#1288=CARTESIAN_POINT('',(-0.0379302464425564,-0.0407151637688279,0.0264));
#1289=CARTESIAN_POINT('',(-0.032137000966316,-0.0175862959028221,0.0264));
#1290=CARTESIAN_POINT('',(-0.032137000966316,-0.0156574280368164,0.0264));
#1291=CARTESIAN_POINT('',(-0.032137000966316,-0.0195151637688279,0.0264));
#1292=CARTESIAN_POINT('',(0.0897837090153694,-0.0195151637688279,0.0264));
#1293=CARTESIAN_POINT('',(8.23938080429798E-7,-0.0195151637688279,0.0264));
#1294=CARTESIAN_POINT('',(8.23938080430706E-7,-0.0177026991884708,0.0264));
#1295=CARTESIAN_POINT('',(8.23938080430707E-7,-0.0177046991884708,0.0264));
#1296=CARTESIAN_POINT('',(0.0897837090153694,-0.0177046991884708,0.0264));
#1297=CARTESIAN_POINT('',(0.0897817090153694,-0.0177046991884708,0.0264));
#1298=CARTESIAN_POINT('',(0.0897817090153694,-0.0403512227196694,0.0264));
#1299=CARTESIAN_POINT('',(0.0897817090153694,-0.0433492227196693,0.0264));
#1300=CARTESIAN_POINT('',(0.0602396759450223,-0.0483746113598347,0.0264));
#1301=CARTESIAN_POINT('',(0.039515478226025,-0.0519,0.0264));
#1302=CARTESIAN_POINT('',(-0.0773604928851128,-0.0519,0.0264));
#1303=CARTESIAN_POINT('',(-0.0788604928851128,-0.0519,0.0264));
#1304=CARTESIAN_POINT('',(-0.0788604928851128,0.0454348362311721,0.0264));
#1305=CARTESIAN_POINT('',(-0.0788604928851128,0.0469348362311721,0.0264));
#1306=CARTESIAN_POINT('',(-0.0379302464425564,0.0469348362311721,0.0264));
#1307=CARTESIAN_POINT('',(0.,0.0469348362311721,0.0264));
#1308=CARTESIAN_POINT('',(0.,-0.0630651637688279,0.0264));
#1309=CARTESIAN_POINT('',(0.,0.0045348362311721,0.0264));
#1310=CARTESIAN_POINT('',(-0.0379302464425564,0.00453483623117209,0.0264));
#1311=CARTESIAN_POINT('',(-0.032137000966316,0.00453483623117209,0.0264));
#1312=CARTESIAN_POINT('',(-0.032137000966316,0.00260596836516634,0.0264));
#1313=CARTESIAN_POINT('',(-0.032137000966316,0.000677100499160588,0.0264));
#1314=CARTESIAN_POINT('',(-0.0457949033172158,0.000677100499160588,0.0264));
#1315=CARTESIAN_POINT('',(-0.0594528056681156,0.000677100499160584,0.0264));
#1316=CARTESIAN_POINT('',(-0.0587279689314548,-0.00434182398021224,0.0264));
#1317=CARTESIAN_POINT('',(-0.0637989640235901,-0.00434182398021221,0.0264));
#1318=CARTESIAN_POINT('',(-0.0681147284543514,-0.00434182398021221,0.0264));
#1319=CARTESIAN_POINT('',(-0.0724304928851128,-0.00434182398021221,0.0264));
#1320=CARTESIAN_POINT('',(-0.0724304928851128,-0.0403512227196694,0.0264));
#1321=CARTESIAN_POINT('',(-0.0724304928851128,-0.0106385035574436,0.0264));
#1322=CARTESIAN_POINT('',(-0.0681147284543514,-0.0106385035574436,0.0264));
#1323=CARTESIAN_POINT('',(-0.0637989640235901,-0.0106385035574436,0.0264));
#1324=CARTESIAN_POINT('',(-0.0587279689314548,-0.0106385035574436,0.0264));
#1325=CARTESIAN_POINT('',(-0.0594528056681156,-0.0156574280368164,0.0264));
#1326=CARTESIAN_POINT('',(-0.0457949033172158,-0.0156574280368164,0.0264));
#1327=CARTESIAN_POINT('',(-0.0587279689314548,-0.0106385035574436,0.026398));
#1328=CARTESIAN_POINT('',(-0.0637989640235901,-0.0106385035574436,0.026398));
#1329=CARTESIAN_POINT('',(-0.0594528056681156,-0.0156574280368164,0.026398));
#1330=CARTESIAN_POINT('',(-0.0457949033172158,-0.0156574280368164,0.026398));
#1331=CARTESIAN_POINT('',(-0.032137000966316,-0.0156574280368164,0.026398));
#1332=CARTESIAN_POINT('',(-0.032137000966316,-0.0175862959028221,0.026398));
#1333=CARTESIAN_POINT('',(-0.032137000966316,-0.0195151637688279,0.026398));
#1334=CARTESIAN_POINT('',(-0.0681147284543514,-0.0106385035574436,0.026398));
#1335=CARTESIAN_POINT('',(-0.0724304928851128,-0.0106385035574436,0.026398));
#1336=CARTESIAN_POINT('',(-0.0724304928851128,-0.0403512227196694,0.0279));
#1337=CARTESIAN_POINT('',(-0.0724304928851128,-0.00434182398021221,0.026398));
#1338=CARTESIAN_POINT('',(-0.0681147284543514,-0.00434182398021221,0.026398));
#1339=CARTESIAN_POINT('',(-0.0637989640235901,-0.00434182398021221,0.026398));
#1340=CARTESIAN_POINT('',(-0.032137000966316,0.00260596836516634,0.026398));
#1341=CARTESIAN_POINT('',(-0.032137000966316,0.000677100499160588,0.026398));
#1342=CARTESIAN_POINT('',(-0.032137000966316,0.00453483623117209,0.026398));
#1343=CARTESIAN_POINT('',(-0.0457949033172158,0.000677100499160588,0.026398));
#1344=CARTESIAN_POINT('',(-0.0594528056681156,0.000677100499160584,0.026398));
#1345=CARTESIAN_POINT('',(-0.0587279689314548,-0.00434182398021224,0.026398));
#1346=CARTESIAN_POINT('',(-0.0379302464425564,0.00453483623117209,0.0294));
#1347=CARTESIAN_POINT('',(0.,0.0045348362311721,0.0294));
#1348=CARTESIAN_POINT('',(-0.0379302464425564,0.0439348362311721,0.1352));
#1349=CARTESIAN_POINT('',(-0.007,0.0439348362311721,0.135202));
#1350=CARTESIAN_POINT('',(-0.007,0.0439348362311721,0.1352));
#1351=CARTESIAN_POINT('',(-0.0379302464425564,0.0439348362311721,0.1352));
#1352=CARTESIAN_POINT('',(-0.0688604928851128,0.0439348362311721,0.1352));
#1353=CARTESIAN_POINT('',(-0.0688604928851128,0.0439348362311721,0.0294));
#1354=CARTESIAN_POINT('',(0.,-0.0630651637688279,0.0294));
#1355=CARTESIAN_POINT('',(0.,0.0469348362311721,0.0294));
#1356=CARTESIAN_POINT('',(0.,0.0469348362311721,0.1352));
#1357=CARTESIAN_POINT('',(0.,-0.0630651637688279,0.1352));
#1358=CARTESIAN_POINT('',(9.10729824887824E-18,0.0369348362311721,0.1352));
#1359=CARTESIAN_POINT('',(9.10729824887824E-18,0.0369348362311721,0.135202));
#1360=CARTESIAN_POINT('',(-0.0379302464425564,0.0469348362311721,0.0294));
#1361=CARTESIAN_POINT('',(-0.0788604928851128,0.0469348362311721,0.0294));
#1362=CARTESIAN_POINT('',(-0.0788604928851128,0.0469348362311721,0.1352));
#1363=CARTESIAN_POINT('',(-0.0379302464425564,0.0469348362311721,0.1352));
#1364=CARTESIAN_POINT('',(-0.0379302464425564,0.0257348362311721,0.1352));
#1365=CARTESIAN_POINT('',(0.039515478226025,-0.0489,0.1352));
#1366=CARTESIAN_POINT('',(0.041015478226025,-0.0489,0.1352));
#1367=CARTESIAN_POINT('',(-0.0758604928851128,0.0439348362311721,0.1352));
#1368=CARTESIAN_POINT('',(-0.0743604928851128,0.0439348362311721,0.1352));
#1369=CARTESIAN_POINT('',(-0.0758604928851128,-0.0489,0.1352));
#1370=CARTESIAN_POINT('',(-0.0743604928851128,-0.0489,0.1352));
#1371=CARTESIAN_POINT('',(-0.003,0.0439348362311721,0.1352));
#1372=CARTESIAN_POINT('',(-0.0015,0.0439348362311721,0.1352));
#1373=CARTESIAN_POINT('',(0.0556544818276007,-0.0461545977059258,0.1352));
#1374=CARTESIAN_POINT('',(0.0556544818276007,-0.0461545977059258,0.1352));
#1375=CARTESIAN_POINT('',(0.0526390510723846,-0.0423853035271168,0.1352));
#1376=CARTESIAN_POINT('',(0.0357252920269966,-0.0423853035271168,0.1352));
#1377=CARTESIAN_POINT('',(0.0353786466504847,-0.0423853035271168,0.1352));
#1378=CARTESIAN_POINT('',(0.0357252920269966,-0.0419,0.1352));
#1379=CARTESIAN_POINT('',(-0.0758604928851128,-0.0419,0.1352));
#1380=CARTESIAN_POINT('',(-0.0688604928851128,0.0439348362311721,0.1352));
#1381=CARTESIAN_POINT('',(-0.0035,0.0404348362311721,0.1352));
#1382=CARTESIAN_POINT('',(-0.0788604928851128,0.0454348362311721,0.1352));
#1383=CARTESIAN_POINT('',(-0.0788604928851128,-0.0519,0.1352));
#1384=CARTESIAN_POINT('',(-0.0773604928851128,-0.0519,0.1352));
#1385=CARTESIAN_POINT('',(0.039515478226025,-0.0519,0.1352));
#1386=CARTESIAN_POINT('',(0.0602396759450223,-0.0483746113598347,0.1352));
#1387=CARTESIAN_POINT('',(0.0897817090153694,-0.0433492227196693,0.1352));
#1388=CARTESIAN_POINT('',(0.0897817090153694,-0.0418492227196693,0.1352));
#1389=CARTESIAN_POINT('',(0.0897817090153694,-0.0403492227196693,0.1352));
#1390=CARTESIAN_POINT('',(0.0514218405936728,-0.0468746113598347,0.1352));
#1391=CARTESIAN_POINT('',(-0.0788604928851128,0.0454348362311721,0.0294));
#1392=CARTESIAN_POINT('',(-0.0788604928851128,-0.0519,0.026398));
#1393=CARTESIAN_POINT('',(0.0897837090153694,-0.0195151637688279,0.026398));
#1394=CARTESIAN_POINT('',(8.23938080432029E-7,-0.0195151637688279,0.0279));
#1395=CARTESIAN_POINT('',(0.0897817090153694,-0.0104992222040892,0.10553003102541));
#1396=CARTESIAN_POINT('',(0.0897817090153694,-0.0403492227196693,0.135202));
#1397=CARTESIAN_POINT('',(0.0897817090153694,-0.0433492227196693,0.026398));
#1398=CARTESIAN_POINT('',(0.0897817090153694,-0.0177046991884708,0.026398));
#1399=CARTESIAN_POINT('',(0.0602396759450223,-0.0483746113598347,0.026398));
#1400=CARTESIAN_POINT('',(0.039515478226025,-0.0519,0.026398));
#1401=CARTESIAN_POINT('',(-0.0773604928851128,-0.0519,0.026398));
#1402=CARTESIAN_POINT('',(0.0514218405936728,-0.0468746113598347,0.135202));
#1403=CARTESIAN_POINT('',(0.0507252920269966,-0.0469931010807676,0.108645123359449));
#1404=CARTESIAN_POINT('',(0.0556544818276007,-0.0461545977059258,0.108645123359449));
#1405=CARTESIAN_POINT('',(0.0556544818276007,-0.0461545977059258,0.1352));
#1406=CARTESIAN_POINT('',(0.0357252920269966,0.00250483623117208,0.12902));
#1407=CARTESIAN_POINT('',(0.0507252920269966,0.00250483623117208,0.12902));
#1408=CARTESIAN_POINT('',(0.0507252920269966,-0.0374014325593749,0.12902));
#1409=CARTESIAN_POINT('',(0.0507252920269966,-0.029880853768828,0.12902));
#1410=CARTESIAN_POINT('',(0.0357252920269966,-0.0298808537688279,0.12902));
#1411=CARTESIAN_POINT('',(0.0357252920269966,-0.029880853768828,0.12902));
#1412=CARTESIAN_POINT('',(0.0357252920269966,0.00250483623117208,0.12902));
#1413=CARTESIAN_POINT('',(0.0357252920269966,-0.0374014325593749,0.12902));
#1414=CARTESIAN_POINT('',(0.0357252920269966,-0.0374014325593749,0.12902));
#1415=CARTESIAN_POINT('',(0.0357252920269966,-0.00749516376882792,0.110932561679725));
#1416=CARTESIAN_POINT('',(0.0357252920269966,-0.0300385446147621,0.121063521316859));
#1417=CARTESIAN_POINT('',(0.0357252920269966,-0.0300385446147621,0.115013521316859));
#1418=CARTESIAN_POINT('',(0.0357252920269966,-0.0167777360320702,0.103446616306142));
#1419=CARTESIAN_POINT('',(0.0357252920269966,-0.0419,0.134598223626375));
#1420=CARTESIAN_POINT('',(0.0357252920269966,-0.0298808537688279,0.12105431));
#1421=CARTESIAN_POINT('',(0.0357252920269966,-0.0219200250946992,0.121332561679725));
#1422=CARTESIAN_POINT('',(0.0357252920269966,-0.0298808537688279,0.121610813359449));
#1423=CARTESIAN_POINT('',(0.0357252920269966,-0.0298808537688279,0.113645123359449));
#1424=CARTESIAN_POINT('',(0.0357252920269966,-0.0379151637688279,0.113645123359449));
#1425=CARTESIAN_POINT('',(0.0357252920269966,-0.0419,0.113645123359449));
#1426=CARTESIAN_POINT('',(0.0357252920269966,-0.0419,0.110932561679725));
#1427=CARTESIAN_POINT('',(0.0507252920269966,-0.00749516376882792,0.110932561679725));
#1428=CARTESIAN_POINT('',(0.0507252920269966,-0.0300385446147621,0.121063521316859));
#1429=CARTESIAN_POINT('',(0.0507252920269966,-0.0300385446147621,0.115013521316859));
#1430=CARTESIAN_POINT('',(0.0507252920269966,-0.0373853035271168,0.129));
#1431=CARTESIAN_POINT('',(0.0507252920269966,-0.0399931010807677,0.132233668966527));
#1432=CARTESIAN_POINT('',(0.0507252920269966,-0.0399931010807677,0.113645123359449));
#1433=CARTESIAN_POINT('',(0.0507252920269966,-0.0399931010807677,0.113574313160053));
#1434=CARTESIAN_POINT('',(0.0507252920269966,-0.0195113778498359,0.127996927624154));
#1435=CARTESIAN_POINT('',(0.0507252920269966,-0.0398925426896683,0.113645123359449));
#1436=CARTESIAN_POINT('',(0.0507252920269966,-0.0379151637688279,0.113645123359449));
#1437=CARTESIAN_POINT('',(0.0507252920269966,-0.0298808537688279,0.113645123359449));
#1438=CARTESIAN_POINT('',(0.0507252920269966,-0.0298808537688279,0.121610813359449));
#1439=CARTESIAN_POINT('',(0.0507252920269966,-0.0219200250946992,0.121332561679725));
#1440=CARTESIAN_POINT('',(0.0507252920269966,-0.0298808537688279,0.12105431));
#1441=CARTESIAN_POINT('',(0.0357252920269966,-0.0300385446147621,0.121063521316859));
#1442=CARTESIAN_POINT('',(0.0357252920269966,-0.0379151637688279,0.113645123359449));
#1443=CARTESIAN_POINT('',(0.0383415735012464,-0.0419991342791544,0.113645123359449));
#1444=CARTESIAN_POINT('',(0.038924340002085,-0.0419,0.113645123359449));
#1445=CARTESIAN_POINT('',(0.0357252920269966,-0.0419,0.113645123359449));
#1446=CARTESIAN_POINT('',(0.0507252920269966,-0.0298808537688279,0.113645123359449));
#1447=CARTESIAN_POINT('',(0.0357252920269966,-0.0298808537688279,0.121610813359449));
#1448=CARTESIAN_POINT('',(0.0432252920269966,-0.0219200250946992,0.121332561679725));
#1449=CARTESIAN_POINT('',(0.0432252920269966,-0.0298808537688279,0.12105431));
#1450=CARTESIAN_POINT('',(0.0357252920269966,-0.0419,0.110932561679725));
#1451=CARTESIAN_POINT('',(0.0396657488693642,-0.0363833604206854,0.127757590548025));
#1452=CARTESIAN_POINT('',(0.0350403017038338,-0.0428589864524279,0.112960133036286));
#1453=CARTESIAN_POINT('',(0.0358939059078694,-0.0489,0.108645123359449));
#1454=CARTESIAN_POINT('',(0.0394587141050902,-0.0482278241357908,0.109125248976742));
#1455=CARTESIAN_POINT('',(0.0514218405936728,-0.0468746113598347,0.108645123359449));
#1456=CARTESIAN_POINT('',(0.0547190100102049,-0.0449852561550876,0.109580595176845));
#1457=CARTESIAN_POINT('',(0.0556544818276007,-0.0461545977059258,0.135202));
#1458=CARTESIAN_POINT('',(0.0475486740815276,-0.0360223226075942,0.127309903659792));
#1459=CARTESIAN_POINT('',(-0.0758604928851128,-0.0419,0.0823));
#1460=CARTESIAN_POINT('',(-0.0688604928851128,0.0439348362311721,0.1352));
#1461=CARTESIAN_POINT('',(0.0432252920269966,-0.0373853035271168,0.129));
#1462=CARTESIAN_POINT('',(-0.0035,0.0404348362311721,0.135202));
#1463=CARTESIAN_POINT('',(8.23938080431822E-7,-0.0177026991884708,0.0279));
#1464=CARTESIAN_POINT('',(8.23938080431822E-7,-0.0177046991884708,0.0279));
#1465=CARTESIAN_POINT('',(0.0897817090153694,-0.0177046991884708,0.0294));
#1466=CARTESIAN_POINT('',(-0.003,0.0439348362311721,0.1332));
#1467=CARTESIAN_POINT('',(-0.003,0.0439348362311721,0.1332));
#1468=CARTESIAN_POINT('',(-0.0015,0.0439348362311721,0.1332));
#1469=CARTESIAN_POINT('',(0.00546060806512831,-0.00248258188441397,0.1332));
#1470=CARTESIAN_POINT('',(-0.0758604928851128,-0.0489,0.1332));
#1471=CARTESIAN_POINT('',(-0.0758604928851128,-0.0489,0.1332));
#1472=CARTESIAN_POINT('',(-0.0743604928851128,-0.0489,0.1332));
#1473=CARTESIAN_POINT('',(0.00546060806512831,-0.00248258188441397,0.1332));
#1474=CARTESIAN_POINT('',(-0.0758604928851128,0.0439348362311721,0.1332));
#1475=CARTESIAN_POINT('',(-0.0758604928851128,0.0439348362311721,0.1332));
#1476=CARTESIAN_POINT('',(-0.0743604928851128,0.0439348362311721,0.1332));
#1477=CARTESIAN_POINT('',(0.00546060806512831,-0.00248258188441397,0.1332));
#1478=CARTESIAN_POINT('',(0.039515478226025,-0.0489,0.1332));
#1479=CARTESIAN_POINT('',(0.039515478226025,-0.0489,0.1332));
#1480=CARTESIAN_POINT('',(0.041015478226025,-0.0489,0.1332));
#1481=CARTESIAN_POINT('',(0.00546060806512831,-0.00248258188441397,0.1332));
#1482=MECHANICAL_DESIGN_GEOMETRIC_PRESENTATION_REPRESENTATION('',(#907),
#1483);
#1483=(
GEOMETRIC_REPRESENTATION_CONTEXT(3)
GLOBAL_UNCERTAINTY_ASSIGNED_CONTEXT((#1484))
GLOBAL_UNIT_ASSIGNED_CONTEXT((#1487,#1486,#1485))
REPRESENTATION_CONTEXT('Case','TOP_LEVEL_ASSEMBLY_PART')
);
#1484=UNCERTAINTY_MEASURE_WITH_UNIT(LENGTH_MEASURE(1.E-8),#1487,
'DISTANCE_ACCURACY_VALUE','Maximum Tolerance applied to model');
#1485=(
NAMED_UNIT(*)
SI_UNIT($,.STERADIAN.)
SOLID_ANGLE_UNIT()
);
#1486=(
NAMED_UNIT(*)
PLANE_ANGLE_UNIT()
SI_UNIT($,.RADIAN.)
);
#1487=(
LENGTH_UNIT()
NAMED_UNIT(*)
SI_UNIT($,.METRE.)
);
#1488=PRODUCT_DEFINITION_SHAPE('','',#1489);
#1489=PRODUCT_DEFINITION('','',#1491,#1490);
#1490=PRODUCT_DEFINITION_CONTEXT('',#1497,'design');
#1491=PRODUCT_DEFINITION_FORMATION_WITH_SPECIFIED_SOURCE('','',#1493,
 .NOT_KNOWN.);
#1492=PRODUCT_RELATED_PRODUCT_CATEGORY('','',(#1493));
#1493=PRODUCT('Case','Case','Case',(#1495));
#1494=PRODUCT_CATEGORY('','');
#1495=PRODUCT_CONTEXT('',#1497,'mechanical');
#1496=APPLICATION_PROTOCOL_DEFINITION('international standard',
'ap242_managed_model_based_3d_engineering',2020,#1497);
#1497=APPLICATION_CONTEXT('managed model based 3d engineering');
ENDSEC;
END-ISO-10303-21;
